<svg width="1919" height="324" viewBox="0 0 1919 324" fill="none" xmlns="http://www.w3.org/2000/svg">
<rect width="1920" height="324" fill="black"/>
<g opacity="0.9">
<path d="M977.023 127.159V125.841H977.75C978.03 125.841 978.265 125.786 978.455 125.676C978.648 125.566 978.807 125.424 978.932 125.25C979.061 125.076 979.167 124.894 979.25 124.705L979.432 124.273L975.409 115.364H976.932L980.136 122.591L983.068 115.364H984.568L980.545 125.114C980.386 125.477 980.205 125.814 980 126.125C979.799 126.436 979.525 126.686 979.176 126.875C978.831 127.064 978.364 127.159 977.773 127.159H977.023ZM987.723 127.182C986.905 127.182 986.2 126.989 985.609 126.602C985.018 126.216 984.564 125.684 984.245 125.006C983.927 124.328 983.768 123.553 983.768 122.682C983.768 121.795 983.931 121.013 984.257 120.335C984.586 119.653 985.045 119.121 985.632 118.739C986.223 118.352 986.912 118.159 987.7 118.159C988.314 118.159 988.867 118.273 989.359 118.5C989.852 118.727 990.255 119.045 990.569 119.455C990.884 119.864 991.079 120.341 991.155 120.886H989.814C989.711 120.489 989.484 120.136 989.132 119.83C988.783 119.519 988.314 119.364 987.723 119.364C987.2 119.364 986.742 119.5 986.348 119.773C985.958 120.042 985.653 120.422 985.433 120.915C985.217 121.403 985.109 121.977 985.109 122.636C985.109 123.311 985.215 123.898 985.427 124.398C985.643 124.898 985.946 125.286 986.336 125.562C986.73 125.839 987.192 125.977 987.723 125.977C988.071 125.977 988.387 125.917 988.672 125.795C988.956 125.674 989.196 125.5 989.393 125.273C989.59 125.045 989.73 124.773 989.814 124.455H991.155C991.079 124.97 990.891 125.434 990.592 125.847C990.297 126.256 989.905 126.581 989.416 126.824C988.931 127.062 988.367 127.182 987.723 127.182ZM991.542 127V125.75H991.86C992.122 125.75 992.339 125.699 992.514 125.597C992.688 125.491 992.828 125.307 992.934 125.045C993.044 124.78 993.127 124.413 993.184 123.943C993.245 123.47 993.288 122.867 993.315 122.136L993.474 118.273H999.292V127H997.951V119.523H994.747L994.61 122.636C994.58 123.352 994.516 123.983 994.417 124.528C994.322 125.07 994.177 125.525 993.98 125.892C993.786 126.259 993.529 126.536 993.207 126.722C992.885 126.907 992.481 127 991.997 127H991.542ZM1001.5 130.273C1001.28 130.273 1001.07 130.254 1000.9 130.216C1000.72 130.182 1000.59 130.148 1000.53 130.114L1000.87 128.932C1001.19 129.015 1001.48 129.045 1001.73 129.023C1001.98 129 1002.2 128.888 1002.4 128.688C1002.59 128.491 1002.77 128.17 1002.94 127.727L1003.19 127.045L999.958 118.273H1001.41L1003.82 125.227H1003.91L1006.32 118.273H1007.78L1004.07 128.273C1003.9 128.723 1003.7 129.097 1003.45 129.392C1003.21 129.691 1002.92 129.913 1002.59 130.057C1002.27 130.201 1001.91 130.273 1001.5 130.273ZM1014.13 118.273V119.523H1010.09V127H1008.75V118.273H1014.13ZM1016.63 125.023L1020.84 118.273H1022.38V127H1021.04V120.25L1016.86 127H1015.29V118.273H1016.63V125.023Z" fill="#D9D9D9"/>
<path d="M975.409 175V163.364H979.341C980.254 163.364 981 163.528 981.58 163.858C982.163 164.184 982.595 164.625 982.875 165.182C983.155 165.739 983.295 166.36 983.295 167.045C983.295 167.731 983.155 168.354 982.875 168.915C982.598 169.475 982.17 169.922 981.591 170.256C981.011 170.585 980.269 170.75 979.364 170.75H976.545V169.5H979.318C979.943 169.5 980.445 169.392 980.824 169.176C981.203 168.96 981.477 168.669 981.648 168.301C981.822 167.93 981.909 167.511 981.909 167.045C981.909 166.58 981.822 166.163 981.648 165.795C981.477 165.428 981.201 165.14 980.818 164.932C980.436 164.72 979.928 164.614 979.295 164.614H976.818V175H975.409ZM988.149 175.182C987.308 175.182 986.583 174.996 985.973 174.625C985.367 174.25 984.899 173.727 984.569 173.057C984.244 172.383 984.081 171.598 984.081 170.705C984.081 169.811 984.244 169.023 984.569 168.341C984.899 167.655 985.357 167.121 985.944 166.739C986.535 166.352 987.225 166.159 988.012 166.159C988.467 166.159 988.916 166.235 989.359 166.386C989.802 166.538 990.206 166.784 990.569 167.125C990.933 167.462 991.223 167.909 991.439 168.466C991.655 169.023 991.762 169.708 991.762 170.523V171.091H985.035V169.932H990.399C990.399 169.439 990.3 169 990.103 168.614C989.91 168.227 989.634 167.922 989.274 167.699C988.918 167.475 988.497 167.364 988.012 167.364C987.478 167.364 987.016 167.496 986.626 167.761C986.24 168.023 985.942 168.364 985.734 168.784C985.526 169.205 985.422 169.655 985.422 170.136V170.909C985.422 171.568 985.535 172.127 985.762 172.585C985.994 173.04 986.314 173.386 986.723 173.625C987.132 173.86 987.607 173.977 988.149 173.977C988.501 173.977 988.819 173.928 989.103 173.83C989.391 173.727 989.639 173.576 989.848 173.375C990.056 173.17 990.217 172.917 990.331 172.614L991.626 172.977C991.49 173.417 991.261 173.803 990.939 174.136C990.617 174.466 990.219 174.723 989.745 174.909C989.272 175.091 988.74 175.182 988.149 175.182ZM997.775 173.182L1000.82 166.273H1002.09L998.32 175H997.23L993.525 166.273H994.775L997.775 173.182ZM994.343 166.273V175H993.002V166.273H994.343ZM1001.21 175V166.273H1002.55V175H1001.21ZM1007.75 175.182C1006.96 175.182 1006.27 174.994 1005.67 174.619C1005.08 174.244 1004.62 173.72 1004.29 173.045C1003.96 172.371 1003.79 171.583 1003.79 170.682C1003.79 169.773 1003.96 168.979 1004.29 168.301C1004.62 167.623 1005.08 167.097 1005.67 166.722C1006.27 166.347 1006.96 166.159 1007.75 166.159C1008.54 166.159 1009.23 166.347 1009.82 166.722C1010.41 167.097 1010.87 167.623 1011.2 168.301C1011.54 168.979 1011.7 169.773 1011.7 170.682C1011.7 171.583 1011.54 172.371 1011.2 173.045C1010.87 173.72 1010.41 174.244 1009.82 174.619C1009.23 174.994 1008.54 175.182 1007.75 175.182ZM1007.75 173.977C1008.35 173.977 1008.84 173.824 1009.23 173.517C1009.61 173.21 1009.9 172.807 1010.08 172.307C1010.27 171.807 1010.36 171.265 1010.36 170.682C1010.36 170.098 1010.27 169.555 1010.08 169.051C1009.9 168.547 1009.61 168.14 1009.23 167.83C1008.84 167.519 1008.35 167.364 1007.75 167.364C1007.15 167.364 1006.66 167.519 1006.27 167.83C1005.88 168.14 1005.6 168.547 1005.41 169.051C1005.23 169.555 1005.13 170.098 1005.13 170.682C1005.13 171.265 1005.23 171.807 1005.41 172.307C1005.6 172.807 1005.88 173.21 1006.27 173.517C1006.66 173.824 1007.15 173.977 1007.75 173.977ZM1018.79 170.023V171.273H1013.97V170.023H1018.79ZM1014.29 166.273V175H1012.95V166.273H1014.29ZM1019.81 166.273V175H1018.47V166.273H1019.81ZM1020.27 167.523V166.273H1027.37V167.523H1024.5V175H1023.16V167.523H1020.27ZM1034.79 175.205C1034.24 175.205 1033.73 175.1 1033.28 174.892C1032.83 174.68 1032.47 174.375 1032.21 173.977C1031.94 173.576 1031.81 173.091 1031.81 172.523C1031.81 172.023 1031.91 171.617 1032.11 171.307C1032.3 170.992 1032.57 170.746 1032.9 170.568C1033.23 170.39 1033.59 170.258 1033.99 170.17C1034.39 170.08 1034.79 170.008 1035.2 169.955C1035.73 169.886 1036.16 169.835 1036.49 169.801C1036.82 169.763 1037.06 169.701 1037.22 169.614C1037.37 169.527 1037.45 169.375 1037.45 169.159V169.114C1037.45 168.553 1037.29 168.117 1036.99 167.807C1036.69 167.496 1036.22 167.341 1035.61 167.341C1034.97 167.341 1034.47 167.481 1034.1 167.761C1033.74 168.042 1033.48 168.341 1033.33 168.659L1032.06 168.205C1032.29 167.674 1032.59 167.261 1032.97 166.966C1033.35 166.667 1033.77 166.458 1034.22 166.341C1034.68 166.22 1035.12 166.159 1035.56 166.159C1035.84 166.159 1036.16 166.193 1036.53 166.261C1036.9 166.326 1037.25 166.46 1037.59 166.665C1037.94 166.869 1038.22 167.178 1038.45 167.591C1038.68 168.004 1038.79 168.557 1038.79 169.25V175H1037.45V173.818H1037.38C1037.29 174.008 1037.14 174.21 1036.93 174.426C1036.71 174.642 1036.43 174.826 1036.08 174.977C1035.73 175.129 1035.3 175.205 1034.79 175.205ZM1034.99 174C1035.52 174 1035.97 173.896 1036.33 173.688C1036.7 173.479 1036.98 173.21 1037.16 172.881C1037.35 172.551 1037.45 172.205 1037.45 171.841V170.614C1037.39 170.682 1037.27 170.744 1037.07 170.801C1036.88 170.854 1036.66 170.902 1036.41 170.943C1036.17 170.981 1035.93 171.015 1035.69 171.045C1035.46 171.072 1035.27 171.095 1035.13 171.114C1034.78 171.159 1034.46 171.233 1034.15 171.335C1033.85 171.434 1033.61 171.583 1033.43 171.784C1033.24 171.981 1033.15 172.25 1033.15 172.591C1033.15 173.057 1033.33 173.409 1033.67 173.648C1034.02 173.883 1034.46 174 1034.99 174ZM1040.99 178.273C1040.76 178.273 1040.56 178.254 1040.38 178.216C1040.2 178.182 1040.08 178.148 1040.01 178.114L1040.35 176.932C1040.68 177.015 1040.97 177.045 1041.22 177.023C1041.47 177 1041.69 176.888 1041.88 176.688C1042.08 176.491 1042.26 176.17 1042.42 175.727L1042.67 175.045L1039.44 166.273H1040.9L1043.31 173.227H1043.4L1045.81 166.273H1047.26L1043.56 176.273C1043.39 176.723 1043.18 177.097 1042.94 177.392C1042.69 177.691 1042.4 177.913 1042.08 178.057C1041.76 178.201 1041.39 178.273 1040.99 178.273ZM1046.56 177.5V173.75H1047.29C1047.47 173.564 1047.62 173.364 1047.75 173.148C1047.88 172.932 1047.99 172.676 1048.09 172.381C1048.19 172.081 1048.27 171.718 1048.34 171.29C1048.41 170.858 1048.47 170.337 1048.52 169.727L1048.81 166.273H1054.36V173.75H1055.7V177.5H1054.36V175H1047.91V177.5H1046.56ZM1048.81 173.75H1053.02V167.523H1050.06L1049.84 169.727C1049.74 170.64 1049.62 171.437 1049.48 172.119C1049.34 172.801 1049.12 173.345 1048.81 173.75ZM1058.02 173.023L1062.23 166.273H1063.77V175H1062.43V168.25L1058.25 175H1056.68V166.273H1058.02V173.023ZM1068.97 175.182C1068.18 175.182 1067.49 174.994 1066.9 174.619C1066.31 174.244 1065.85 173.72 1065.51 173.045C1065.18 172.371 1065.02 171.583 1065.02 170.682C1065.02 169.773 1065.18 168.979 1065.51 168.301C1065.85 167.623 1066.31 167.097 1066.9 166.722C1067.49 166.347 1068.18 166.159 1068.97 166.159C1069.76 166.159 1070.45 166.347 1071.04 166.722C1071.64 167.097 1072.1 167.623 1072.43 168.301C1072.76 168.979 1072.93 169.773 1072.93 170.682C1072.93 171.583 1072.76 172.371 1072.43 173.045C1072.1 173.72 1071.64 174.244 1071.04 174.619C1070.45 174.994 1069.76 175.182 1068.97 175.182ZM1068.97 173.977C1069.57 173.977 1070.06 173.824 1070.45 173.517C1070.84 173.21 1071.12 172.807 1071.31 172.307C1071.49 171.807 1071.59 171.265 1071.59 170.682C1071.59 170.098 1071.49 169.555 1071.31 169.051C1071.12 168.547 1070.84 168.14 1070.45 167.83C1070.06 167.519 1069.57 167.364 1068.97 167.364C1068.37 167.364 1067.88 167.519 1067.5 167.83C1067.11 168.14 1066.82 168.547 1066.64 169.051C1066.45 169.555 1066.36 170.098 1066.36 170.682C1066.36 171.265 1066.45 171.807 1066.64 172.307C1066.82 172.807 1067.11 173.21 1067.5 173.517C1067.88 173.824 1068.37 173.977 1068.97 173.977ZM1077.37 167.523V166.273H1084.47V167.523H1081.6V175H1080.26V167.523H1077.37ZM1088.83 175.182C1087.99 175.182 1087.26 174.996 1086.65 174.625C1086.04 174.25 1085.58 173.727 1085.25 173.057C1084.92 172.383 1084.76 171.598 1084.76 170.705C1084.76 169.811 1084.92 169.023 1085.25 168.341C1085.58 167.655 1086.04 167.121 1086.62 166.739C1087.21 166.352 1087.9 166.159 1088.69 166.159C1089.15 166.159 1089.59 166.235 1090.04 166.386C1090.48 166.538 1090.88 166.784 1091.25 167.125C1091.61 167.462 1091.9 167.909 1092.12 168.466C1092.33 169.023 1092.44 169.708 1092.44 170.523V171.091H1085.71V169.932H1091.08C1091.08 169.439 1090.98 169 1090.78 168.614C1090.59 168.227 1090.31 167.922 1089.95 167.699C1089.6 167.475 1089.18 167.364 1088.69 167.364C1088.16 167.364 1087.69 167.496 1087.3 167.761C1086.92 168.023 1086.62 168.364 1086.41 168.784C1086.2 169.205 1086.1 169.655 1086.1 170.136V170.909C1086.1 171.568 1086.21 172.127 1086.44 172.585C1086.67 173.04 1086.99 173.386 1087.4 173.625C1087.81 173.86 1088.29 173.977 1088.83 173.977C1089.18 173.977 1089.5 173.928 1089.78 173.83C1090.07 173.727 1090.32 173.576 1090.53 173.375C1090.73 173.17 1090.9 172.917 1091.01 172.614L1092.3 172.977C1092.17 173.417 1091.94 173.803 1091.62 174.136C1091.29 174.466 1090.9 174.723 1090.42 174.909C1089.95 175.091 1089.42 175.182 1088.83 175.182ZM1094.45 166.273L1096.54 169.841L1098.63 166.273H1100.17L1097.36 170.636L1100.17 175H1098.63L1096.54 171.614L1094.45 175H1092.9L1095.67 170.636L1092.9 166.273H1094.45ZM1107.13 170.023V171.273H1102.31V170.023H1107.13ZM1102.63 166.273V175H1101.29V166.273H1102.63ZM1108.15 166.273V175H1106.81V166.273H1108.15ZM1111.14 173.023L1115.34 166.273H1116.89V175H1115.55V168.25L1111.37 175H1109.8V166.273H1111.14V173.023ZM1118.55 175V166.273H1119.89V170.068H1120.77L1123.91 166.273H1125.64L1122.11 170.477L1125.68 175H1123.96L1121.09 171.318H1119.89V175H1118.55ZM1127.68 173.023L1131.89 166.273H1133.43V175H1132.09V168.25L1127.91 175H1126.34V166.273H1127.68V173.023Z" fill="#D9D9D9"/>
<path d="M975.409 223V211.364H979.341C980.254 211.364 981 211.528 981.58 211.858C982.163 212.184 982.595 212.625 982.875 213.182C983.155 213.739 983.295 214.36 983.295 215.045C983.295 215.731 983.155 216.354 982.875 216.915C982.598 217.475 982.17 217.922 981.591 218.256C981.011 218.585 980.269 218.75 979.364 218.75H976.545V217.5H979.318C979.943 217.5 980.445 217.392 980.824 217.176C981.203 216.96 981.477 216.669 981.648 216.301C981.822 215.93 981.909 215.511 981.909 215.045C981.909 214.58 981.822 214.163 981.648 213.795C981.477 213.428 981.201 213.14 980.818 212.932C980.436 212.72 979.928 212.614 979.295 212.614H976.818V223H975.409ZM988.149 223.182C987.308 223.182 986.583 222.996 985.973 222.625C985.367 222.25 984.899 221.727 984.569 221.057C984.244 220.383 984.081 219.598 984.081 218.705C984.081 217.811 984.244 217.023 984.569 216.341C984.899 215.655 985.357 215.121 985.944 214.739C986.535 214.352 987.225 214.159 988.012 214.159C988.467 214.159 988.916 214.235 989.359 214.386C989.802 214.538 990.206 214.784 990.569 215.125C990.933 215.462 991.223 215.909 991.439 216.466C991.655 217.023 991.762 217.708 991.762 218.523V219.091H985.035V217.932H990.399C990.399 217.439 990.3 217 990.103 216.614C989.91 216.227 989.634 215.922 989.274 215.699C988.918 215.475 988.497 215.364 988.012 215.364C987.478 215.364 987.016 215.496 986.626 215.761C986.24 216.023 985.942 216.364 985.734 216.784C985.526 217.205 985.422 217.655 985.422 218.136V218.909C985.422 219.568 985.535 220.127 985.762 220.585C985.994 221.04 986.314 221.386 986.723 221.625C987.132 221.86 987.607 221.977 988.149 221.977C988.501 221.977 988.819 221.928 989.103 221.83C989.391 221.727 989.639 221.576 989.848 221.375C990.056 221.17 990.217 220.917 990.331 220.614L991.626 220.977C991.49 221.417 991.261 221.803 990.939 222.136C990.617 222.466 990.219 222.723 989.745 222.909C989.272 223.091 988.74 223.182 988.149 223.182ZM997.775 221.182L1000.82 214.273H1002.09L998.32 223H997.23L993.525 214.273H994.775L997.775 221.182ZM994.343 214.273V223H993.002V214.273H994.343ZM1001.21 223V214.273H1002.55V223H1001.21ZM1007.75 223.182C1006.96 223.182 1006.27 222.994 1005.67 222.619C1005.08 222.244 1004.62 221.72 1004.29 221.045C1003.96 220.371 1003.79 219.583 1003.79 218.682C1003.79 217.773 1003.96 216.979 1004.29 216.301C1004.62 215.623 1005.08 215.097 1005.67 214.722C1006.27 214.347 1006.96 214.159 1007.75 214.159C1008.54 214.159 1009.23 214.347 1009.82 214.722C1010.41 215.097 1010.87 215.623 1011.2 216.301C1011.54 216.979 1011.7 217.773 1011.7 218.682C1011.7 219.583 1011.54 220.371 1011.2 221.045C1010.87 221.72 1010.41 222.244 1009.82 222.619C1009.23 222.994 1008.54 223.182 1007.75 223.182ZM1007.75 221.977C1008.35 221.977 1008.84 221.824 1009.23 221.517C1009.61 221.21 1009.9 220.807 1010.08 220.307C1010.27 219.807 1010.36 219.265 1010.36 218.682C1010.36 218.098 1010.27 217.555 1010.08 217.051C1009.9 216.547 1009.61 216.14 1009.23 215.83C1008.84 215.519 1008.35 215.364 1007.75 215.364C1007.15 215.364 1006.66 215.519 1006.27 215.83C1005.88 216.14 1005.6 216.547 1005.41 217.051C1005.23 217.555 1005.13 218.098 1005.13 218.682C1005.13 219.265 1005.23 219.807 1005.41 220.307C1005.6 220.807 1005.88 221.21 1006.27 221.517C1006.66 221.824 1007.15 221.977 1007.75 221.977ZM1018.79 218.023V219.273H1013.97V218.023H1018.79ZM1014.29 214.273V223H1012.95V214.273H1014.29ZM1019.81 214.273V223H1018.47V214.273H1019.81ZM1020.27 215.523V214.273H1027.37V215.523H1024.5V223H1023.16V215.523H1020.27ZM1032.22 223V214.273H1035.79C1036.73 214.273 1037.47 214.485 1038.03 214.909C1038.58 215.333 1038.86 215.894 1038.86 216.591C1038.86 217.121 1038.7 217.532 1038.39 217.824C1038.07 218.112 1037.67 218.307 1037.18 218.409C1037.5 218.455 1037.81 218.568 1038.11 218.75C1038.42 218.932 1038.67 219.182 1038.87 219.5C1039.08 219.814 1039.18 220.201 1039.18 220.659C1039.18 221.106 1039.06 221.506 1038.83 221.858C1038.61 222.21 1038.28 222.489 1037.86 222.693C1037.43 222.898 1036.93 223 1036.33 223H1032.22ZM1033.49 221.773H1036.33C1036.8 221.773 1037.16 221.663 1037.42 221.443C1037.68 221.223 1037.81 220.924 1037.81 220.545C1037.81 220.095 1037.68 219.741 1037.42 219.483C1037.16 219.222 1036.8 219.091 1036.33 219.091H1033.49V221.773ZM1033.49 217.932H1035.79C1036.15 217.932 1036.46 217.883 1036.72 217.784C1036.97 217.682 1037.17 217.538 1037.31 217.352C1037.45 217.163 1037.52 216.939 1037.52 216.682C1037.52 216.314 1037.36 216.027 1037.06 215.818C1036.75 215.606 1036.33 215.5 1035.79 215.5H1033.49V217.932ZM1041.75 221.023L1045.95 214.273H1047.5V223H1046.16V216.25L1041.97 223H1040.41V214.273H1041.75V221.023ZM1048.22 225.5V221.75H1048.95C1049.13 221.564 1049.28 221.364 1049.41 221.148C1049.54 220.932 1049.65 220.676 1049.74 220.381C1049.84 220.081 1049.93 219.718 1049.99 219.29C1050.06 218.858 1050.12 218.337 1050.18 217.727L1050.47 214.273H1056.02V221.75H1057.36V225.5H1056.02V223H1049.56V225.5H1048.22ZM1050.47 221.75H1054.68V215.523H1051.72L1051.49 217.727C1051.4 218.64 1051.28 219.437 1051.14 220.119C1051 220.801 1050.78 221.345 1050.47 221.75ZM1062 223.182C1061.15 223.182 1060.43 222.996 1059.82 222.625C1059.21 222.25 1058.75 221.727 1058.42 221.057C1058.09 220.383 1057.93 219.598 1057.93 218.705C1057.93 217.811 1058.09 217.023 1058.42 216.341C1058.75 215.655 1059.2 215.121 1059.79 214.739C1060.38 214.352 1061.07 214.159 1061.86 214.159C1062.31 214.159 1062.76 214.235 1063.21 214.386C1063.65 214.538 1064.05 214.784 1064.42 215.125C1064.78 215.462 1065.07 215.909 1065.29 216.466C1065.5 217.023 1065.61 217.708 1065.61 218.523V219.091H1058.88V217.932H1064.25C1064.25 217.439 1064.15 217 1063.95 216.614C1063.76 216.227 1063.48 215.922 1063.12 215.699C1062.76 215.475 1062.34 215.364 1061.86 215.364C1061.33 215.364 1060.86 215.496 1060.47 215.761C1060.09 216.023 1059.79 216.364 1059.58 216.784C1059.37 217.205 1059.27 217.655 1059.27 218.136V218.909C1059.27 219.568 1059.38 220.127 1059.61 220.585C1059.84 221.04 1060.16 221.386 1060.57 221.625C1060.98 221.86 1061.45 221.977 1062 221.977C1062.35 221.977 1062.67 221.928 1062.95 221.83C1063.24 221.727 1063.49 221.576 1063.69 221.375C1063.9 221.17 1064.06 220.917 1064.18 220.614L1065.47 220.977C1065.34 221.417 1065.11 221.803 1064.79 222.136C1064.46 222.466 1064.07 222.723 1063.59 222.909C1063.12 223.091 1062.59 223.182 1062 223.182ZM1070.39 223.182C1069.61 223.182 1068.92 222.994 1068.32 222.619C1067.73 222.244 1067.27 221.72 1066.93 221.045C1066.6 220.371 1066.44 219.583 1066.44 218.682C1066.44 217.773 1066.6 216.979 1066.93 216.301C1067.27 215.623 1067.73 215.097 1068.32 214.722C1068.92 214.347 1069.61 214.159 1070.39 214.159C1071.18 214.159 1071.87 214.347 1072.46 214.722C1073.06 215.097 1073.52 215.623 1073.85 216.301C1074.18 216.979 1074.35 217.773 1074.35 218.682C1074.35 219.583 1074.18 220.371 1073.85 221.045C1073.52 221.72 1073.06 222.244 1072.46 222.619C1071.87 222.994 1071.18 223.182 1070.39 223.182ZM1070.39 221.977C1070.99 221.977 1071.49 221.824 1071.87 221.517C1072.26 221.21 1072.54 220.807 1072.73 220.307C1072.92 219.807 1073.01 219.265 1073.01 218.682C1073.01 218.098 1072.92 217.555 1072.73 217.051C1072.54 216.547 1072.26 216.14 1071.87 215.83C1071.49 215.519 1070.99 215.364 1070.39 215.364C1069.8 215.364 1069.3 215.519 1068.92 215.83C1068.53 216.14 1068.24 216.547 1068.06 217.051C1067.87 217.555 1067.78 218.098 1067.78 218.682C1067.78 219.265 1067.87 219.807 1068.06 220.307C1068.24 220.807 1068.53 221.21 1068.92 221.517C1069.3 221.824 1069.8 221.977 1070.39 221.977ZM1078.8 215.523V214.273H1085.89V215.523H1083.02V223H1081.68V215.523H1078.8ZM1090.25 223.182C1089.41 223.182 1088.68 222.996 1088.07 222.625C1087.47 222.25 1087 221.727 1086.67 221.057C1086.34 220.383 1086.18 219.598 1086.18 218.705C1086.18 217.811 1086.34 217.023 1086.67 216.341C1087 215.655 1087.46 215.121 1088.04 214.739C1088.64 214.352 1089.32 214.159 1090.11 214.159C1090.57 214.159 1091.02 214.235 1091.46 214.386C1091.9 214.538 1092.31 214.784 1092.67 215.125C1093.03 215.462 1093.32 215.909 1093.54 216.466C1093.75 217.023 1093.86 217.708 1093.86 218.523V219.091H1087.14V217.932H1092.5C1092.5 217.439 1092.4 217 1092.2 216.614C1092.01 216.227 1091.73 215.922 1091.37 215.699C1091.02 215.475 1090.6 215.364 1090.11 215.364C1089.58 215.364 1089.12 215.496 1088.73 215.761C1088.34 216.023 1088.04 216.364 1087.83 216.784C1087.63 217.205 1087.52 217.655 1087.52 218.136V218.909C1087.52 219.568 1087.64 220.127 1087.86 220.585C1088.09 221.04 1088.41 221.386 1088.82 221.625C1089.23 221.86 1089.71 221.977 1090.25 221.977C1090.6 221.977 1090.92 221.928 1091.2 221.83C1091.49 221.727 1091.74 221.576 1091.95 221.375C1092.16 221.17 1092.32 220.917 1092.43 220.614L1093.73 220.977C1093.59 221.417 1093.36 221.803 1093.04 222.136C1092.72 222.466 1092.32 222.723 1091.85 222.909C1091.37 223.091 1090.84 223.182 1090.25 223.182ZM1095.87 214.273L1097.96 217.841L1100.05 214.273H1101.6L1098.78 218.636L1101.6 223H1100.05L1097.96 219.614L1095.87 223H1094.32L1097.1 218.636L1094.32 214.273H1095.87ZM1108.55 218.023V219.273H1103.73V218.023H1108.55ZM1104.05 214.273V223H1102.71V214.273H1104.05ZM1109.57 214.273V223H1108.23V214.273H1109.57ZM1112.56 221.023L1116.77 214.273H1118.31V223H1116.97V216.25L1112.79 223H1111.22V214.273H1112.56V221.023ZM1119.97 223V214.273H1121.31V218.068H1122.2L1125.33 214.273H1127.06L1123.54 218.477L1127.1 223H1125.38L1122.51 219.318H1121.31V223H1119.97ZM1129.1 221.023L1133.31 214.273H1134.85V223H1133.51V216.25L1129.33 223H1127.76V214.273H1129.1V221.023Z" fill="#D9D9D9"/>
<path d="M1273.41 127V115.364H1277.34C1278.25 115.364 1279 115.528 1279.58 115.858C1280.16 116.184 1280.59 116.625 1280.88 117.182C1281.16 117.739 1281.3 118.36 1281.3 119.045C1281.3 119.731 1281.16 120.354 1280.88 120.915C1280.6 121.475 1280.17 121.922 1279.59 122.256C1279.01 122.585 1278.27 122.75 1277.36 122.75H1274.55V121.5H1277.32C1277.94 121.5 1278.45 121.392 1278.82 121.176C1279.2 120.96 1279.48 120.669 1279.65 120.301C1279.82 119.93 1279.91 119.511 1279.91 119.045C1279.91 118.58 1279.82 118.163 1279.65 117.795C1279.48 117.428 1279.2 117.14 1278.82 116.932C1278.44 116.72 1277.93 116.614 1277.3 116.614H1274.82V127H1273.41ZM1286.15 127.182C1285.31 127.182 1284.58 126.996 1283.97 126.625C1283.37 126.25 1282.9 125.727 1282.57 125.057C1282.24 124.383 1282.08 123.598 1282.08 122.705C1282.08 121.811 1282.24 121.023 1282.57 120.341C1282.9 119.655 1283.36 119.121 1283.94 118.739C1284.54 118.352 1285.22 118.159 1286.01 118.159C1286.47 118.159 1286.92 118.235 1287.36 118.386C1287.8 118.538 1288.21 118.784 1288.57 119.125C1288.93 119.462 1289.22 119.909 1289.44 120.466C1289.65 121.023 1289.76 121.708 1289.76 122.523V123.091H1283.04V121.932H1288.4C1288.4 121.439 1288.3 121 1288.1 120.614C1287.91 120.227 1287.63 119.922 1287.27 119.699C1286.92 119.475 1286.5 119.364 1286.01 119.364C1285.48 119.364 1285.02 119.496 1284.63 119.761C1284.24 120.023 1283.94 120.364 1283.73 120.784C1283.53 121.205 1283.42 121.655 1283.42 122.136V122.909C1283.42 123.568 1283.54 124.127 1283.76 124.585C1283.99 125.04 1284.31 125.386 1284.72 125.625C1285.13 125.86 1285.61 125.977 1286.15 125.977C1286.5 125.977 1286.82 125.928 1287.1 125.83C1287.39 125.727 1287.64 125.576 1287.85 125.375C1288.06 125.17 1288.22 124.917 1288.33 124.614L1289.63 124.977C1289.49 125.417 1289.26 125.803 1288.94 126.136C1288.62 126.466 1288.22 126.723 1287.75 126.909C1287.27 127.091 1286.74 127.182 1286.15 127.182ZM1295.77 125.182L1298.82 118.273H1300.09L1296.32 127H1295.23L1291.52 118.273H1292.77L1295.77 125.182ZM1292.34 118.273V127H1291V118.273H1292.34ZM1299.21 127V118.273H1300.55V127H1299.21ZM1305.75 127.182C1304.96 127.182 1304.27 126.994 1303.67 126.619C1303.08 126.244 1302.62 125.72 1302.29 125.045C1301.96 124.371 1301.79 123.583 1301.79 122.682C1301.79 121.773 1301.96 120.979 1302.29 120.301C1302.62 119.623 1303.08 119.097 1303.67 118.722C1304.27 118.347 1304.96 118.159 1305.75 118.159C1306.54 118.159 1307.23 118.347 1307.82 118.722C1308.41 119.097 1308.87 119.623 1309.2 120.301C1309.54 120.979 1309.7 121.773 1309.7 122.682C1309.7 123.583 1309.54 124.371 1309.2 125.045C1308.87 125.72 1308.41 126.244 1307.82 126.619C1307.23 126.994 1306.54 127.182 1305.75 127.182ZM1305.75 125.977C1306.35 125.977 1306.84 125.824 1307.23 125.517C1307.61 125.21 1307.9 124.807 1308.08 124.307C1308.27 123.807 1308.36 123.265 1308.36 122.682C1308.36 122.098 1308.27 121.555 1308.08 121.051C1307.9 120.547 1307.61 120.14 1307.23 119.83C1306.84 119.519 1306.35 119.364 1305.75 119.364C1305.15 119.364 1304.66 119.519 1304.27 119.83C1303.88 120.14 1303.6 120.547 1303.41 121.051C1303.23 121.555 1303.13 122.098 1303.13 122.682C1303.13 123.265 1303.23 123.807 1303.41 124.307C1303.6 124.807 1303.88 125.21 1304.27 125.517C1304.66 125.824 1305.15 125.977 1305.75 125.977ZM1316.79 122.023V123.273H1311.97V122.023H1316.79ZM1312.29 118.273V127H1310.95V118.273H1312.29ZM1317.81 118.273V127H1316.47V118.273H1317.81ZM1318.27 119.523V118.273H1325.37V119.523H1322.5V127H1321.16V119.523H1318.27ZM1329.72 119.523V118.273H1336.81V119.523H1333.95V127H1332.61V119.523H1329.72ZM1341.17 127.182C1340.33 127.182 1339.61 126.996 1339 126.625C1338.39 126.25 1337.92 125.727 1337.59 125.057C1337.27 124.383 1337.11 123.598 1337.11 122.705C1337.11 121.811 1337.27 121.023 1337.59 120.341C1337.92 119.655 1338.38 119.121 1338.97 118.739C1339.56 118.352 1340.25 118.159 1341.04 118.159C1341.49 118.159 1341.94 118.235 1342.38 118.386C1342.83 118.538 1343.23 118.784 1343.59 119.125C1343.96 119.462 1344.25 119.909 1344.46 120.466C1344.68 121.023 1344.79 121.708 1344.79 122.523V123.091H1338.06V121.932H1343.42C1343.42 121.439 1343.33 121 1343.13 120.614C1342.94 120.227 1342.66 119.922 1342.3 119.699C1341.94 119.475 1341.52 119.364 1341.04 119.364C1340.5 119.364 1340.04 119.496 1339.65 119.761C1339.26 120.023 1338.97 120.364 1338.76 120.784C1338.55 121.205 1338.45 121.655 1338.45 122.136V122.909C1338.45 123.568 1338.56 124.127 1338.79 124.585C1339.02 125.04 1339.34 125.386 1339.75 125.625C1340.16 125.86 1340.63 125.977 1341.17 125.977C1341.53 125.977 1341.84 125.928 1342.13 125.83C1342.42 125.727 1342.66 125.576 1342.87 125.375C1343.08 125.17 1343.24 124.917 1343.36 124.614L1344.65 124.977C1344.51 125.417 1344.29 125.803 1343.96 126.136C1343.64 126.466 1343.24 126.723 1342.77 126.909C1342.3 127.091 1341.76 127.182 1341.17 127.182ZM1345.25 127V125.75H1345.57C1345.83 125.75 1346.05 125.699 1346.23 125.597C1346.4 125.491 1346.54 125.307 1346.65 125.045C1346.76 124.78 1346.84 124.413 1346.9 123.943C1346.96 123.47 1347 122.867 1347.03 122.136L1347.19 118.273H1353V127H1351.66V119.523H1348.46L1348.32 122.636C1348.29 123.352 1348.23 123.983 1348.13 124.528C1348.03 125.07 1347.89 125.525 1347.69 125.892C1347.5 126.259 1347.24 126.536 1346.92 126.722C1346.6 126.907 1346.19 127 1345.71 127H1345.25ZM1358.32 127.182C1357.48 127.182 1356.76 126.996 1356.15 126.625C1355.54 126.25 1355.07 125.727 1354.74 125.057C1354.42 124.383 1354.26 123.598 1354.26 122.705C1354.26 121.811 1354.42 121.023 1354.74 120.341C1355.07 119.655 1355.53 119.121 1356.12 118.739C1356.71 118.352 1357.4 118.159 1358.19 118.159C1358.64 118.159 1359.09 118.235 1359.53 118.386C1359.98 118.538 1360.38 118.784 1360.74 119.125C1361.11 119.462 1361.4 119.909 1361.61 120.466C1361.83 121.023 1361.94 121.708 1361.94 122.523V123.091H1355.21V121.932H1360.57C1360.57 121.439 1360.48 121 1360.28 120.614C1360.09 120.227 1359.81 119.922 1359.45 119.699C1359.09 119.475 1358.67 119.364 1358.19 119.364C1357.65 119.364 1357.19 119.496 1356.8 119.761C1356.41 120.023 1356.12 120.364 1355.91 120.784C1355.7 121.205 1355.6 121.655 1355.6 122.136V122.909C1355.6 123.568 1355.71 124.127 1355.94 124.585C1356.17 125.04 1356.49 125.386 1356.9 125.625C1357.31 125.86 1357.78 125.977 1358.32 125.977C1358.68 125.977 1358.99 125.928 1359.28 125.83C1359.57 125.727 1359.81 125.576 1360.02 125.375C1360.23 125.17 1360.39 124.917 1360.51 124.614L1361.8 124.977C1361.66 125.417 1361.44 125.803 1361.11 126.136C1360.79 126.466 1360.39 126.723 1359.92 126.909C1359.45 127.091 1358.91 127.182 1358.32 127.182ZM1366.72 129.977V115.364H1368.06V129.977H1366.72ZM1366.72 127.182C1366.13 127.182 1365.59 127.076 1365.11 126.864C1364.62 126.648 1364.21 126.343 1363.86 125.949C1363.51 125.551 1363.24 125.076 1363.05 124.523C1362.86 123.97 1362.77 123.356 1362.77 122.682C1362.77 122 1362.86 121.383 1363.05 120.83C1363.24 120.273 1363.51 119.795 1363.86 119.398C1364.21 119 1364.62 118.695 1365.11 118.483C1365.59 118.267 1366.13 118.159 1366.72 118.159H1367.13V127.182H1366.72ZM1366.72 125.977H1366.95V119.364H1366.72C1366.28 119.364 1365.89 119.455 1365.56 119.636C1365.23 119.814 1364.96 120.059 1364.74 120.369C1364.53 120.676 1364.37 121.028 1364.26 121.426C1364.16 121.824 1364.11 122.242 1364.11 122.682C1364.11 123.265 1364.2 123.807 1364.39 124.307C1364.57 124.807 1364.86 125.21 1365.25 125.517C1365.63 125.824 1366.12 125.977 1366.72 125.977ZM1368.06 127.182H1367.65V118.159H1368.06C1368.65 118.159 1369.19 118.267 1369.68 118.483C1370.16 118.695 1370.58 119 1370.93 119.398C1371.28 119.795 1371.54 120.273 1371.73 120.83C1371.92 121.383 1372.02 122 1372.02 122.682C1372.02 123.356 1371.92 123.97 1371.73 124.523C1371.54 125.076 1371.28 125.551 1370.93 125.949C1370.58 126.343 1370.16 126.648 1369.68 126.864C1369.19 127.076 1368.65 127.182 1368.06 127.182ZM1368.06 125.977C1368.51 125.977 1368.9 125.89 1369.23 125.716C1369.56 125.538 1369.83 125.295 1370.04 124.989C1370.26 124.678 1370.42 124.326 1370.52 123.932C1370.62 123.534 1370.68 123.117 1370.68 122.682C1370.68 122.098 1370.58 121.555 1370.4 121.051C1370.21 120.547 1369.93 120.14 1369.54 119.83C1369.15 119.519 1368.66 119.364 1368.06 119.364H1367.84V125.977H1368.06ZM1376.81 127.182C1376.03 127.182 1375.33 126.994 1374.74 126.619C1374.15 126.244 1373.69 125.72 1373.35 125.045C1373.02 124.371 1372.86 123.583 1372.86 122.682C1372.86 121.773 1373.02 120.979 1373.35 120.301C1373.69 119.623 1374.15 119.097 1374.74 118.722C1375.33 118.347 1376.03 118.159 1376.81 118.159C1377.6 118.159 1378.29 118.347 1378.88 118.722C1379.48 119.097 1379.94 119.623 1380.27 120.301C1380.6 120.979 1380.77 121.773 1380.77 122.682C1380.77 123.583 1380.6 124.371 1380.27 125.045C1379.94 125.72 1379.48 126.244 1378.88 126.619C1378.29 126.994 1377.6 127.182 1376.81 127.182ZM1376.81 125.977C1377.41 125.977 1377.9 125.824 1378.29 125.517C1378.68 125.21 1378.96 124.807 1379.15 124.307C1379.33 123.807 1379.43 123.265 1379.43 122.682C1379.43 122.098 1379.33 121.555 1379.15 121.051C1378.96 120.547 1378.68 120.14 1378.29 119.83C1377.9 119.519 1377.41 119.364 1376.81 119.364C1376.21 119.364 1375.72 119.519 1375.34 119.83C1374.95 120.14 1374.66 120.547 1374.48 121.051C1374.29 121.555 1374.2 122.098 1374.2 122.682C1374.2 123.265 1374.29 123.807 1374.48 124.307C1374.66 124.807 1374.95 125.21 1375.34 125.517C1375.72 125.824 1376.21 125.977 1376.81 125.977ZM1387.86 122.023V123.273H1383.04V122.023H1387.86ZM1383.36 118.273V127H1382.01V118.273H1383.36ZM1388.88 118.273V127H1387.54V118.273H1388.88ZM1394.07 127.182C1393.28 127.182 1392.59 126.994 1392 126.619C1391.41 126.244 1390.95 125.72 1390.61 125.045C1390.28 124.371 1390.12 123.583 1390.12 122.682C1390.12 121.773 1390.28 120.979 1390.61 120.301C1390.95 119.623 1391.41 119.097 1392 118.722C1392.59 118.347 1393.28 118.159 1394.07 118.159C1394.86 118.159 1395.55 118.347 1396.14 118.722C1396.74 119.097 1397.2 119.623 1397.53 120.301C1397.86 120.979 1398.03 121.773 1398.03 122.682C1398.03 123.583 1397.86 124.371 1397.53 125.045C1397.2 125.72 1396.74 126.244 1396.14 126.619C1395.55 126.994 1394.86 127.182 1394.07 127.182ZM1394.07 125.977C1394.67 125.977 1395.16 125.824 1395.55 125.517C1395.94 125.21 1396.22 124.807 1396.41 124.307C1396.59 123.807 1396.69 123.265 1396.69 122.682C1396.69 122.098 1396.59 121.555 1396.41 121.051C1396.22 120.547 1395.94 120.14 1395.55 119.83C1395.16 119.519 1394.67 119.364 1394.07 119.364C1393.47 119.364 1392.98 119.519 1392.6 119.83C1392.21 120.14 1391.92 120.547 1391.74 121.051C1391.55 121.555 1391.46 122.098 1391.46 122.682C1391.46 123.265 1391.55 123.807 1391.74 124.307C1391.92 124.807 1392.21 125.21 1392.6 125.517C1392.98 125.824 1393.47 125.977 1394.07 125.977ZM1399.27 127V118.273H1402.84C1403.78 118.273 1404.53 118.485 1405.08 118.909C1405.63 119.333 1405.91 119.894 1405.91 120.591C1405.91 121.121 1405.75 121.532 1405.44 121.824C1405.12 122.112 1404.72 122.307 1404.23 122.409C1404.55 122.455 1404.86 122.568 1405.17 122.75C1405.47 122.932 1405.73 123.182 1405.93 123.5C1406.13 123.814 1406.23 124.201 1406.23 124.659C1406.23 125.106 1406.12 125.506 1405.89 125.858C1405.66 126.21 1405.33 126.489 1404.91 126.693C1404.49 126.898 1403.98 127 1403.39 127H1399.27ZM1400.55 125.773H1403.39C1403.85 125.773 1404.21 125.663 1404.47 125.443C1404.73 125.223 1404.87 124.924 1404.87 124.545C1404.87 124.095 1404.73 123.741 1404.47 123.483C1404.21 123.222 1403.85 123.091 1403.39 123.091H1400.55V125.773ZM1400.55 121.932H1402.84C1403.2 121.932 1403.51 121.883 1403.77 121.784C1404.03 121.682 1404.22 121.538 1404.36 121.352C1404.5 121.163 1404.57 120.939 1404.57 120.682C1404.57 120.314 1404.42 120.027 1404.11 119.818C1403.8 119.606 1403.38 119.5 1402.84 119.5H1400.55V121.932Z" fill="#D9D9D9"/>
<path d="M1273.41 175V163.364H1277.34C1278.25 163.364 1279 163.528 1279.58 163.858C1280.16 164.184 1280.59 164.625 1280.88 165.182C1281.16 165.739 1281.3 166.36 1281.3 167.045C1281.3 167.731 1281.16 168.354 1280.88 168.915C1280.6 169.475 1280.17 169.922 1279.59 170.256C1279.01 170.585 1278.27 170.75 1277.36 170.75H1274.55V169.5H1277.32C1277.94 169.5 1278.45 169.392 1278.82 169.176C1279.2 168.96 1279.48 168.669 1279.65 168.301C1279.82 167.93 1279.91 167.511 1279.91 167.045C1279.91 166.58 1279.82 166.163 1279.65 165.795C1279.48 165.428 1279.2 165.14 1278.82 164.932C1278.44 164.72 1277.93 164.614 1277.3 164.614H1274.82V175H1273.41ZM1286.15 175.182C1285.31 175.182 1284.58 174.996 1283.97 174.625C1283.37 174.25 1282.9 173.727 1282.57 173.057C1282.24 172.383 1282.08 171.598 1282.08 170.705C1282.08 169.811 1282.24 169.023 1282.57 168.341C1282.9 167.655 1283.36 167.121 1283.94 166.739C1284.54 166.352 1285.22 166.159 1286.01 166.159C1286.47 166.159 1286.92 166.235 1287.36 166.386C1287.8 166.538 1288.21 166.784 1288.57 167.125C1288.93 167.462 1289.22 167.909 1289.44 168.466C1289.65 169.023 1289.76 169.708 1289.76 170.523V171.091H1283.04V169.932H1288.4C1288.4 169.439 1288.3 169 1288.1 168.614C1287.91 168.227 1287.63 167.922 1287.27 167.699C1286.92 167.475 1286.5 167.364 1286.01 167.364C1285.48 167.364 1285.02 167.496 1284.63 167.761C1284.24 168.023 1283.94 168.364 1283.73 168.784C1283.53 169.205 1283.42 169.655 1283.42 170.136V170.909C1283.42 171.568 1283.54 172.127 1283.76 172.585C1283.99 173.04 1284.31 173.386 1284.72 173.625C1285.13 173.86 1285.61 173.977 1286.15 173.977C1286.5 173.977 1286.82 173.928 1287.1 173.83C1287.39 173.727 1287.64 173.576 1287.85 173.375C1288.06 173.17 1288.22 172.917 1288.33 172.614L1289.63 172.977C1289.49 173.417 1289.26 173.803 1288.94 174.136C1288.62 174.466 1288.22 174.723 1287.75 174.909C1287.27 175.091 1286.74 175.182 1286.15 175.182ZM1295.77 173.182L1298.82 166.273H1300.09L1296.32 175H1295.23L1291.52 166.273H1292.77L1295.77 173.182ZM1292.34 166.273V175H1291V166.273H1292.34ZM1299.21 175V166.273H1300.55V175H1299.21ZM1305.75 175.182C1304.96 175.182 1304.27 174.994 1303.67 174.619C1303.08 174.244 1302.62 173.72 1302.29 173.045C1301.96 172.371 1301.79 171.583 1301.79 170.682C1301.79 169.773 1301.96 168.979 1302.29 168.301C1302.62 167.623 1303.08 167.097 1303.67 166.722C1304.27 166.347 1304.96 166.159 1305.75 166.159C1306.54 166.159 1307.23 166.347 1307.82 166.722C1308.41 167.097 1308.87 167.623 1309.2 168.301C1309.54 168.979 1309.7 169.773 1309.7 170.682C1309.7 171.583 1309.54 172.371 1309.2 173.045C1308.87 173.72 1308.41 174.244 1307.82 174.619C1307.23 174.994 1306.54 175.182 1305.75 175.182ZM1305.75 173.977C1306.35 173.977 1306.84 173.824 1307.23 173.517C1307.61 173.21 1307.9 172.807 1308.08 172.307C1308.27 171.807 1308.36 171.265 1308.36 170.682C1308.36 170.098 1308.27 169.555 1308.08 169.051C1307.9 168.547 1307.61 168.14 1307.23 167.83C1306.84 167.519 1306.35 167.364 1305.75 167.364C1305.15 167.364 1304.66 167.519 1304.27 167.83C1303.88 168.14 1303.6 168.547 1303.41 169.051C1303.23 169.555 1303.13 170.098 1303.13 170.682C1303.13 171.265 1303.23 171.807 1303.41 172.307C1303.6 172.807 1303.88 173.21 1304.27 173.517C1304.66 173.824 1305.15 173.977 1305.75 173.977ZM1316.79 170.023V171.273H1311.97V170.023H1316.79ZM1312.29 166.273V175H1310.95V166.273H1312.29ZM1317.81 166.273V175H1316.47V166.273H1317.81ZM1318.27 167.523V166.273H1325.37V167.523H1322.5V175H1321.16V167.523H1318.27ZM1333.11 167.409C1332.8 167.413 1332.5 167.491 1332.19 167.642C1331.89 167.794 1331.64 167.994 1331.43 168.244C1331.23 168.491 1331.13 168.765 1331.13 169.068H1329.81C1329.81 168.689 1329.9 168.326 1330.08 167.977C1330.27 167.629 1330.51 167.318 1330.82 167.045C1331.13 166.773 1331.48 166.557 1331.87 166.398C1332.27 166.239 1332.68 166.159 1333.11 166.159C1333.9 166.159 1334.58 166.36 1335.13 166.761C1335.69 167.163 1336.11 167.693 1336.4 168.352C1336.69 169.011 1336.83 169.727 1336.83 170.5V170.818C1336.83 171.587 1336.69 172.303 1336.4 172.966C1336.11 173.625 1335.69 174.155 1335.13 174.557C1334.58 174.958 1333.9 175.159 1333.11 175.159C1332.47 175.159 1331.9 175.019 1331.41 174.739C1330.91 174.455 1330.52 174.076 1330.24 173.602C1329.95 173.129 1329.81 172.602 1329.81 172.023H1331.13C1331.13 172.352 1331.22 172.661 1331.41 172.949C1331.6 173.233 1331.84 173.464 1332.14 173.642C1332.44 173.816 1332.77 173.905 1333.11 173.909C1333.61 173.905 1334.05 173.746 1334.4 173.432C1334.76 173.117 1335.03 172.723 1335.22 172.25C1335.4 171.777 1335.49 171.299 1335.49 170.818V170.5C1335.49 170.008 1335.4 169.527 1335.22 169.057C1335.03 168.583 1334.76 168.191 1334.41 167.881C1334.06 167.57 1333.62 167.413 1333.11 167.409ZM1336.04 169.977V171.227H1332.22V169.977H1336.04ZM1337.3 175V173.75H1337.62C1337.88 173.75 1338.1 173.699 1338.28 173.597C1338.45 173.491 1338.59 173.307 1338.7 173.045C1338.81 172.78 1338.89 172.413 1338.95 171.943C1339.01 171.47 1339.05 170.867 1339.08 170.136L1339.24 166.273H1345.05V175H1343.71V167.523H1340.51L1340.37 170.636C1340.34 171.352 1340.28 171.983 1340.18 172.528C1340.08 173.07 1339.94 173.525 1339.74 173.892C1339.55 174.259 1339.29 174.536 1338.97 174.722C1338.65 174.907 1338.24 175 1337.76 175H1337.3ZM1350.37 175.182C1349.53 175.182 1348.81 174.996 1348.2 174.625C1347.59 174.25 1347.12 173.727 1346.79 173.057C1346.47 172.383 1346.31 171.598 1346.31 170.705C1346.31 169.811 1346.47 169.023 1346.79 168.341C1347.12 167.655 1347.58 167.121 1348.17 166.739C1348.76 166.352 1349.45 166.159 1350.24 166.159C1350.69 166.159 1351.14 166.235 1351.58 166.386C1352.03 166.538 1352.43 166.784 1352.79 167.125C1353.16 167.462 1353.45 167.909 1353.66 168.466C1353.88 169.023 1353.99 169.708 1353.99 170.523V171.091H1347.26V169.932H1352.62C1352.62 169.439 1352.53 169 1352.33 168.614C1352.14 168.227 1351.86 167.922 1351.5 167.699C1351.14 167.475 1350.72 167.364 1350.24 167.364C1349.7 167.364 1349.24 167.496 1348.85 167.761C1348.46 168.023 1348.17 168.364 1347.96 168.784C1347.75 169.205 1347.65 169.655 1347.65 170.136V170.909C1347.65 171.568 1347.76 172.127 1347.99 172.585C1348.22 173.04 1348.54 173.386 1348.95 173.625C1349.36 173.86 1349.83 173.977 1350.37 173.977C1350.73 173.977 1351.04 173.928 1351.33 173.83C1351.62 173.727 1351.86 173.576 1352.07 173.375C1352.28 173.17 1352.44 172.917 1352.56 172.614L1353.85 172.977C1353.71 173.417 1353.49 173.803 1353.16 174.136C1352.84 174.466 1352.44 174.723 1351.97 174.909C1351.5 175.091 1350.96 175.182 1350.37 175.182ZM1355.23 175V166.273H1356.57V170.068H1357.45L1360.59 166.273H1362.32L1358.8 170.477L1362.36 175H1360.64L1357.77 171.318H1356.57V175H1355.23ZM1362.52 167.523V166.273H1369.61V167.523H1366.75V175H1365.41V167.523H1362.52ZM1370.77 178.273V166.273H1372.06V167.659H1372.22C1372.32 167.508 1372.46 167.314 1372.63 167.08C1372.81 166.841 1373.06 166.629 1373.39 166.443C1373.73 166.254 1374.18 166.159 1374.75 166.159C1375.48 166.159 1376.13 166.343 1376.69 166.71C1377.25 167.078 1377.69 167.598 1378 168.273C1378.32 168.947 1378.47 169.742 1378.47 170.659C1378.47 171.583 1378.32 172.384 1378 173.062C1377.69 173.737 1377.25 174.259 1376.69 174.631C1376.14 174.998 1375.5 175.182 1374.77 175.182C1374.21 175.182 1373.76 175.089 1373.42 174.903C1373.08 174.714 1372.82 174.5 1372.64 174.261C1372.46 174.019 1372.32 173.818 1372.22 173.659H1372.11V178.273H1370.77ZM1372.09 170.636C1372.09 171.295 1372.18 171.877 1372.38 172.381C1372.57 172.881 1372.85 173.273 1373.22 173.557C1373.59 173.837 1374.05 173.977 1374.59 173.977C1375.15 173.977 1375.61 173.83 1375.99 173.534C1376.37 173.235 1376.65 172.833 1376.84 172.33C1377.03 171.822 1377.13 171.258 1377.13 170.636C1377.13 170.023 1377.04 169.47 1376.85 168.977C1376.66 168.481 1376.38 168.089 1376 167.801C1375.63 167.509 1375.15 167.364 1374.59 167.364C1374.04 167.364 1373.58 167.502 1373.21 167.778C1372.84 168.051 1372.56 168.434 1372.37 168.926C1372.18 169.415 1372.09 169.985 1372.09 170.636ZM1383.26 175.182C1382.48 175.182 1381.78 174.994 1381.19 174.619C1380.6 174.244 1380.14 173.72 1379.8 173.045C1379.47 172.371 1379.31 171.583 1379.31 170.682C1379.31 169.773 1379.47 168.979 1379.8 168.301C1380.14 167.623 1380.6 167.097 1381.19 166.722C1381.78 166.347 1382.48 166.159 1383.26 166.159C1384.05 166.159 1384.74 166.347 1385.33 166.722C1385.93 167.097 1386.39 167.623 1386.72 168.301C1387.05 168.979 1387.22 169.773 1387.22 170.682C1387.22 171.583 1387.05 172.371 1386.72 173.045C1386.39 173.72 1385.93 174.244 1385.33 174.619C1384.74 174.994 1384.05 175.182 1383.26 175.182ZM1383.26 173.977C1383.86 173.977 1384.35 173.824 1384.74 173.517C1385.13 173.21 1385.41 172.807 1385.6 172.307C1385.78 171.807 1385.88 171.265 1385.88 170.682C1385.88 170.098 1385.78 169.555 1385.6 169.051C1385.41 168.547 1385.13 168.14 1384.74 167.83C1384.35 167.519 1383.86 167.364 1383.26 167.364C1382.66 167.364 1382.17 167.519 1381.79 167.83C1381.4 168.14 1381.11 168.547 1380.93 169.051C1380.74 169.555 1380.65 170.098 1380.65 170.682C1380.65 171.265 1380.74 171.807 1380.93 172.307C1381.11 172.807 1381.4 173.21 1381.79 173.517C1382.17 173.824 1382.66 173.977 1383.26 173.977ZM1387.32 167.523V166.273H1394.42V167.523H1391.55V175H1390.21V167.523H1387.32ZM1395.57 178.273V166.273H1396.87V167.659H1397.03C1397.12 167.508 1397.26 167.314 1397.43 167.08C1397.61 166.841 1397.87 166.629 1398.2 166.443C1398.53 166.254 1398.98 166.159 1399.55 166.159C1400.28 166.159 1400.93 166.343 1401.49 166.71C1402.05 167.078 1402.49 167.598 1402.8 168.273C1403.12 168.947 1403.28 169.742 1403.28 170.659C1403.28 171.583 1403.12 172.384 1402.8 173.062C1402.49 173.737 1402.05 174.259 1401.5 174.631C1400.94 174.998 1400.3 175.182 1399.57 175.182C1399.01 175.182 1398.56 175.089 1398.22 174.903C1397.89 174.714 1397.63 174.5 1397.45 174.261C1397.26 174.019 1397.12 173.818 1397.03 173.659H1396.91V178.273H1395.57ZM1396.89 170.636C1396.89 171.295 1396.99 171.877 1397.18 172.381C1397.37 172.881 1397.65 173.273 1398.03 173.557C1398.4 173.837 1398.85 173.977 1399.39 173.977C1399.95 173.977 1400.42 173.83 1400.79 173.534C1401.17 173.235 1401.46 172.833 1401.64 172.33C1401.84 171.822 1401.93 171.258 1401.93 170.636C1401.93 170.023 1401.84 169.47 1401.65 168.977C1401.46 168.481 1401.18 168.089 1400.8 167.801C1400.43 167.509 1399.96 167.364 1399.39 167.364C1398.84 167.364 1398.39 167.502 1398.01 167.778C1397.64 168.051 1397.36 168.434 1397.17 168.926C1396.98 169.415 1396.89 169.985 1396.89 170.636ZM1407.09 175.205C1406.54 175.205 1406.03 175.1 1405.58 174.892C1405.13 174.68 1404.77 174.375 1404.51 173.977C1404.24 173.576 1404.11 173.091 1404.11 172.523C1404.11 172.023 1404.21 171.617 1404.41 171.307C1404.6 170.992 1404.87 170.746 1405.2 170.568C1405.53 170.39 1405.89 170.258 1406.29 170.17C1406.69 170.08 1407.09 170.008 1407.5 169.955C1408.03 169.886 1408.46 169.835 1408.79 169.801C1409.12 169.763 1409.36 169.701 1409.52 169.614C1409.67 169.527 1409.75 169.375 1409.75 169.159V169.114C1409.75 168.553 1409.59 168.117 1409.29 167.807C1408.99 167.496 1408.52 167.341 1407.91 167.341C1407.27 167.341 1406.77 167.481 1406.4 167.761C1406.04 168.042 1405.78 168.341 1405.63 168.659L1404.36 168.205C1404.59 167.674 1404.89 167.261 1405.27 166.966C1405.65 166.667 1406.07 166.458 1406.52 166.341C1406.98 166.22 1407.42 166.159 1407.86 166.159C1408.14 166.159 1408.46 166.193 1408.83 166.261C1409.2 166.326 1409.55 166.46 1409.89 166.665C1410.24 166.869 1410.52 167.178 1410.75 167.591C1410.98 168.004 1411.09 168.557 1411.09 169.25V175H1409.75V173.818H1409.68C1409.59 174.008 1409.44 174.21 1409.23 174.426C1409.01 174.642 1408.73 174.826 1408.38 174.977C1408.03 175.129 1407.6 175.205 1407.09 175.205ZM1407.29 174C1407.82 174 1408.27 173.896 1408.63 173.688C1409 173.479 1409.28 173.21 1409.46 172.881C1409.65 172.551 1409.75 172.205 1409.75 171.841V170.614C1409.69 170.682 1409.57 170.744 1409.37 170.801C1409.18 170.854 1408.96 170.902 1408.71 170.943C1408.47 170.981 1408.23 171.015 1407.99 171.045C1407.76 171.072 1407.57 171.095 1407.43 171.114C1407.08 171.159 1406.76 171.233 1406.45 171.335C1406.15 171.434 1405.91 171.583 1405.73 171.784C1405.54 171.981 1405.45 172.25 1405.45 172.591C1405.45 173.057 1405.63 173.409 1405.97 173.648C1406.32 173.883 1406.76 174 1407.29 174ZM1418.58 170.023V171.273H1413.76V170.023H1418.58ZM1414.08 166.273V175H1412.74V166.273H1414.08ZM1419.6 166.273V175H1418.26V166.273H1419.6ZM1424.79 175.182C1423.98 175.182 1423.27 174.989 1422.68 174.602C1422.09 174.216 1421.64 173.684 1421.32 173.006C1421 172.328 1420.84 171.553 1420.84 170.682C1420.84 169.795 1421 169.013 1421.33 168.335C1421.66 167.653 1422.12 167.121 1422.7 166.739C1423.29 166.352 1423.98 166.159 1424.77 166.159C1425.39 166.159 1425.94 166.273 1426.43 166.5C1426.92 166.727 1427.33 167.045 1427.64 167.455C1427.96 167.864 1428.15 168.341 1428.23 168.886H1426.89C1426.78 168.489 1426.56 168.136 1426.2 167.83C1425.86 167.519 1425.39 167.364 1424.79 167.364C1424.27 167.364 1423.81 167.5 1423.42 167.773C1423.03 168.042 1422.72 168.422 1422.5 168.915C1422.29 169.403 1422.18 169.977 1422.18 170.636C1422.18 171.311 1422.29 171.898 1422.5 172.398C1422.72 172.898 1423.02 173.286 1423.41 173.562C1423.8 173.839 1424.26 173.977 1424.79 173.977C1425.14 173.977 1425.46 173.917 1425.74 173.795C1426.03 173.674 1426.27 173.5 1426.47 173.273C1426.66 173.045 1426.8 172.773 1426.89 172.455H1428.23C1428.15 172.97 1427.96 173.434 1427.66 173.847C1427.37 174.256 1426.98 174.581 1426.49 174.824C1426 175.062 1425.44 175.182 1424.79 175.182ZM1429.39 175V166.273H1436.25V175H1434.91V167.523H1430.73V175H1429.39ZM1441.44 175.182C1440.66 175.182 1439.97 174.994 1439.37 174.619C1438.78 174.244 1438.32 173.72 1437.98 173.045C1437.65 172.371 1437.49 171.583 1437.49 170.682C1437.49 169.773 1437.65 168.979 1437.98 168.301C1438.32 167.623 1438.78 167.097 1439.37 166.722C1439.97 166.347 1440.66 166.159 1441.44 166.159C1442.23 166.159 1442.92 166.347 1443.51 166.722C1444.11 167.097 1444.57 167.623 1444.9 168.301C1445.23 168.979 1445.4 169.773 1445.4 170.682C1445.4 171.583 1445.23 172.371 1444.9 173.045C1444.57 173.72 1444.11 174.244 1443.51 174.619C1442.92 174.994 1442.23 175.182 1441.44 175.182ZM1441.44 173.977C1442.04 173.977 1442.54 173.824 1442.92 173.517C1443.31 173.21 1443.59 172.807 1443.78 172.307C1443.97 171.807 1444.06 171.265 1444.06 170.682C1444.06 170.098 1443.97 169.555 1443.78 169.051C1443.59 168.547 1443.31 168.14 1442.92 167.83C1442.54 167.519 1442.04 167.364 1441.44 167.364C1440.85 167.364 1440.35 167.519 1439.97 167.83C1439.58 168.14 1439.29 168.547 1439.11 169.051C1438.92 169.555 1438.83 170.098 1438.83 170.682C1438.83 171.265 1438.92 171.807 1439.11 172.307C1439.29 172.807 1439.58 173.21 1439.97 173.517C1440.35 173.824 1440.85 173.977 1441.44 173.977ZM1446.65 178.273V166.273H1447.94V167.659H1448.1C1448.2 167.508 1448.34 167.314 1448.51 167.08C1448.69 166.841 1448.94 166.629 1449.27 166.443C1449.6 166.254 1450.06 166.159 1450.62 166.159C1451.36 166.159 1452.01 166.343 1452.57 166.71C1453.13 167.078 1453.56 167.598 1453.88 168.273C1454.19 168.947 1454.35 169.742 1454.35 170.659C1454.35 171.583 1454.19 172.384 1453.88 173.062C1453.56 173.737 1453.13 174.259 1452.57 174.631C1452.02 174.998 1451.37 175.182 1450.65 175.182C1450.09 175.182 1449.64 175.089 1449.3 174.903C1448.96 174.714 1448.7 174.5 1448.52 174.261C1448.34 174.019 1448.2 173.818 1448.1 173.659H1447.99V178.273H1446.65ZM1447.96 170.636C1447.96 171.295 1448.06 171.877 1448.25 172.381C1448.45 172.881 1448.73 173.273 1449.1 173.557C1449.47 173.837 1449.93 173.977 1450.46 173.977C1451.02 173.977 1451.49 173.83 1451.87 173.534C1452.25 173.235 1452.53 172.833 1452.72 172.33C1452.91 171.822 1453.01 171.258 1453.01 170.636C1453.01 170.023 1452.91 169.47 1452.73 168.977C1452.54 168.481 1452.26 168.089 1451.88 167.801C1451.5 167.509 1451.03 167.364 1450.46 167.364C1449.92 167.364 1449.46 167.502 1449.09 167.778C1448.72 168.051 1448.44 168.434 1448.25 168.926C1448.06 169.415 1447.96 169.985 1447.96 170.636ZM1454.46 167.523V166.273H1461.55V167.523H1458.68V175H1457.34V167.523H1454.46ZM1464.82 175.205C1464.26 175.205 1463.76 175.1 1463.31 174.892C1462.86 174.68 1462.5 174.375 1462.24 173.977C1461.97 173.576 1461.84 173.091 1461.84 172.523C1461.84 172.023 1461.94 171.617 1462.14 171.307C1462.33 170.992 1462.6 170.746 1462.93 170.568C1463.25 170.39 1463.62 170.258 1464.02 170.17C1464.42 170.08 1464.82 170.008 1465.23 169.955C1465.76 169.886 1466.19 169.835 1466.52 169.801C1466.85 169.763 1467.09 169.701 1467.24 169.614C1467.4 169.527 1467.48 169.375 1467.48 169.159V169.114C1467.48 168.553 1467.32 168.117 1467.02 167.807C1466.71 167.496 1466.25 167.341 1465.64 167.341C1465 167.341 1464.49 167.481 1464.13 167.761C1463.77 168.042 1463.51 168.341 1463.36 168.659L1462.09 168.205C1462.32 167.674 1462.62 167.261 1463 166.966C1463.38 166.667 1463.8 166.458 1464.25 166.341C1464.7 166.22 1465.15 166.159 1465.59 166.159C1465.87 166.159 1466.19 166.193 1466.56 166.261C1466.92 166.326 1467.28 166.46 1467.62 166.665C1467.96 166.869 1468.25 167.178 1468.48 167.591C1468.7 168.004 1468.82 168.557 1468.82 169.25V175H1467.48V173.818H1467.41C1467.32 174.008 1467.17 174.21 1466.95 174.426C1466.74 174.642 1466.46 174.826 1466.11 174.977C1465.75 175.129 1465.32 175.205 1464.82 175.205ZM1465.02 174C1465.55 174 1466 173.896 1466.36 173.688C1466.73 173.479 1467.01 173.21 1467.19 172.881C1467.38 172.551 1467.48 172.205 1467.48 171.841V170.614C1467.42 170.682 1467.29 170.744 1467.1 170.801C1466.91 170.854 1466.69 170.902 1466.44 170.943C1466.2 170.981 1465.96 171.015 1465.72 171.045C1465.49 171.072 1465.3 171.095 1465.16 171.114C1464.81 171.159 1464.48 171.233 1464.18 171.335C1463.88 171.434 1463.64 171.583 1463.45 171.784C1463.27 171.981 1463.18 172.25 1463.18 172.591C1463.18 173.057 1463.35 173.409 1463.7 173.648C1464.05 173.883 1464.49 174 1465.02 174Z" fill="#D9D9D9"/>
<path d="M1282.11 211.364V223H1280.7V212.614H1274.84V223H1273.43V211.364H1282.11ZM1287.52 223.182C1286.73 223.182 1286.04 222.994 1285.45 222.619C1284.85 222.244 1284.39 221.72 1284.06 221.045C1283.73 220.371 1283.57 219.583 1283.57 218.682C1283.57 217.773 1283.73 216.979 1284.06 216.301C1284.39 215.623 1284.85 215.097 1285.45 214.722C1286.04 214.347 1286.73 214.159 1287.52 214.159C1288.31 214.159 1289 214.347 1289.59 214.722C1290.18 215.097 1290.64 215.623 1290.97 216.301C1291.31 216.979 1291.47 217.773 1291.47 218.682C1291.47 219.583 1291.31 220.371 1290.97 221.045C1290.64 221.72 1290.18 222.244 1289.59 222.619C1289 222.994 1288.31 223.182 1287.52 223.182ZM1287.52 221.977C1288.12 221.977 1288.61 221.824 1289 221.517C1289.38 221.21 1289.67 220.807 1289.85 220.307C1290.04 219.807 1290.13 219.265 1290.13 218.682C1290.13 218.098 1290.04 217.555 1289.85 217.051C1289.67 216.547 1289.38 216.14 1289 215.83C1288.61 215.519 1288.12 215.364 1287.52 215.364C1286.92 215.364 1286.43 215.519 1286.04 215.83C1285.66 216.14 1285.37 216.547 1285.18 217.051C1285 217.555 1284.91 218.098 1284.91 218.682C1284.91 219.265 1285 219.807 1285.18 220.307C1285.37 220.807 1285.66 221.21 1286.04 221.517C1286.43 221.824 1286.92 221.977 1287.52 221.977ZM1291.95 223V221.75H1292.27C1292.53 221.75 1292.75 221.699 1292.92 221.597C1293.09 221.491 1293.23 221.307 1293.34 221.045C1293.45 220.78 1293.53 220.413 1293.59 219.943C1293.65 219.47 1293.69 218.867 1293.72 218.136L1293.88 214.273H1299.7V223H1298.36V215.523H1295.15L1295.02 218.636C1294.99 219.352 1294.92 219.983 1294.82 220.528C1294.73 221.07 1294.58 221.525 1294.39 221.892C1294.19 222.259 1293.94 222.536 1293.61 222.722C1293.29 222.907 1292.89 223 1292.4 223H1291.95ZM1302.7 221.023L1306.9 214.273H1308.45V223H1307.11V216.25L1302.93 223H1301.36V214.273H1302.7V221.023ZM1308.92 215.523V214.273H1316.01V215.523H1313.15V223H1311.8V215.523H1308.92ZM1318.51 221.023L1322.71 214.273H1324.26V223H1322.91V216.25L1318.73 223H1317.16V214.273H1318.51V221.023ZM1325.91 223V214.273H1327.25V218.068H1328.14L1331.28 214.273H1333L1329.48 218.477L1333.05 223H1331.32L1328.46 219.318H1327.25V223H1325.91ZM1336.27 223.205C1335.72 223.205 1335.22 223.1 1334.77 222.892C1334.32 222.68 1333.96 222.375 1333.69 221.977C1333.43 221.576 1333.3 221.091 1333.3 220.523C1333.3 220.023 1333.39 219.617 1333.59 219.307C1333.79 218.992 1334.05 218.746 1334.38 218.568C1334.71 218.39 1335.07 218.258 1335.47 218.17C1335.87 218.08 1336.28 218.008 1336.68 217.955C1337.21 217.886 1337.64 217.835 1337.97 217.801C1338.31 217.763 1338.55 217.701 1338.7 217.614C1338.86 217.527 1338.93 217.375 1338.93 217.159V217.114C1338.93 216.553 1338.78 216.117 1338.47 215.807C1338.17 215.496 1337.71 215.341 1337.09 215.341C1336.45 215.341 1335.95 215.481 1335.59 215.761C1335.22 216.042 1334.97 216.341 1334.82 216.659L1333.55 216.205C1333.77 215.674 1334.08 215.261 1334.46 214.966C1334.84 214.667 1335.25 214.458 1335.71 214.341C1336.16 214.22 1336.61 214.159 1337.05 214.159C1337.33 214.159 1337.65 214.193 1338.01 214.261C1338.38 214.326 1338.73 214.46 1339.07 214.665C1339.42 214.869 1339.71 215.178 1339.93 215.591C1340.16 216.004 1340.27 216.557 1340.27 217.25V223H1338.93V221.818H1338.86C1338.77 222.008 1338.62 222.21 1338.41 222.426C1338.2 222.642 1337.92 222.826 1337.56 222.977C1337.21 223.129 1336.78 223.205 1336.27 223.205ZM1336.48 222C1337.01 222 1337.46 221.896 1337.82 221.688C1338.19 221.479 1338.46 221.21 1338.65 220.881C1338.84 220.551 1338.93 220.205 1338.93 219.841V218.614C1338.88 218.682 1338.75 218.744 1338.56 218.801C1338.37 218.854 1338.15 218.902 1337.9 218.943C1337.65 218.981 1337.41 219.015 1337.18 219.045C1336.95 219.072 1336.76 219.095 1336.61 219.114C1336.27 219.159 1335.94 219.233 1335.64 219.335C1335.34 219.434 1335.1 219.583 1334.91 219.784C1334.73 219.981 1334.64 220.25 1334.64 220.591C1334.64 221.057 1334.81 221.409 1335.15 221.648C1335.5 221.883 1335.94 222 1336.48 222ZM1345.62 223V214.273H1346.96V218.068H1347.85L1350.98 214.273H1352.71L1349.19 218.477L1352.76 223H1351.03L1348.17 219.318H1346.96V223H1345.62ZM1356.6 223.182C1355.81 223.182 1355.12 222.994 1354.53 222.619C1353.94 222.244 1353.47 221.72 1353.14 221.045C1352.81 220.371 1352.65 219.583 1352.65 218.682C1352.65 217.773 1352.81 216.979 1353.14 216.301C1353.47 215.623 1353.94 215.097 1354.53 214.722C1355.12 214.347 1355.81 214.159 1356.6 214.159C1357.39 214.159 1358.08 214.347 1358.67 214.722C1359.26 215.097 1359.73 215.623 1360.06 216.301C1360.39 216.979 1360.56 217.773 1360.56 218.682C1360.56 219.583 1360.39 220.371 1360.06 221.045C1359.73 221.72 1359.26 222.244 1358.67 222.619C1358.08 222.994 1357.39 223.182 1356.6 223.182ZM1356.6 221.977C1357.2 221.977 1357.69 221.824 1358.08 221.517C1358.46 221.21 1358.75 220.807 1358.94 220.307C1359.12 219.807 1359.21 219.265 1359.21 218.682C1359.21 218.098 1359.12 217.555 1358.94 217.051C1358.75 216.547 1358.46 216.14 1358.08 215.83C1357.69 215.519 1357.2 215.364 1356.6 215.364C1356 215.364 1355.51 215.519 1355.12 215.83C1354.74 216.14 1354.45 216.547 1354.27 217.051C1354.08 217.555 1353.99 218.098 1353.99 218.682C1353.99 219.265 1354.08 219.807 1354.27 220.307C1354.45 220.807 1354.74 221.21 1355.12 221.517C1355.51 221.824 1356 221.977 1356.6 221.977ZM1367.64 218.023V219.273H1362.82V218.023H1367.64ZM1363.14 214.273V223H1361.8V214.273H1363.14ZM1368.67 214.273V223H1367.32V214.273H1368.67ZM1373.86 225.977V211.364H1375.2V225.977H1373.86ZM1373.86 223.182C1373.27 223.182 1372.73 223.076 1372.25 222.864C1371.76 222.648 1371.35 222.343 1371 221.949C1370.65 221.551 1370.38 221.076 1370.19 220.523C1370 219.97 1369.91 219.356 1369.91 218.682C1369.91 218 1370 217.383 1370.19 216.83C1370.38 216.273 1370.65 215.795 1371 215.398C1371.35 215 1371.76 214.695 1372.25 214.483C1372.73 214.267 1373.27 214.159 1373.86 214.159H1374.27V223.182H1373.86ZM1373.86 221.977H1374.09V215.364H1373.86C1373.41 215.364 1373.03 215.455 1372.7 215.636C1372.37 215.814 1372.09 216.059 1371.88 216.369C1371.67 216.676 1371.51 217.028 1371.4 217.426C1371.3 217.824 1371.25 218.242 1371.25 218.682C1371.25 219.265 1371.34 219.807 1371.53 220.307C1371.71 220.807 1372 221.21 1372.38 221.517C1372.77 221.824 1373.26 221.977 1373.86 221.977ZM1375.2 223.182H1374.79V214.159H1375.2C1375.79 214.159 1376.33 214.267 1376.81 214.483C1377.3 214.695 1377.72 215 1378.06 215.398C1378.41 215.795 1378.68 216.273 1378.87 216.83C1379.06 217.383 1379.16 218 1379.16 218.682C1379.16 219.356 1379.06 219.97 1378.87 220.523C1378.68 221.076 1378.41 221.551 1378.06 221.949C1377.72 222.343 1377.3 222.648 1376.81 222.864C1376.33 223.076 1375.79 223.182 1375.2 223.182ZM1375.2 221.977C1375.65 221.977 1376.04 221.89 1376.37 221.716C1376.7 221.538 1376.97 221.295 1377.18 220.989C1377.39 220.678 1377.55 220.326 1377.66 219.932C1377.76 219.534 1377.81 219.117 1377.81 218.682C1377.81 218.098 1377.72 217.555 1377.54 217.051C1377.35 216.547 1377.06 216.14 1376.68 215.83C1376.29 215.519 1375.8 215.364 1375.2 215.364H1374.97V221.977H1375.2ZM1381.75 221.023L1385.95 214.273H1387.5V223H1386.16V216.25L1381.97 223H1380.41V214.273H1381.75V221.023ZM1388.22 225.5V221.75H1388.95C1389.13 221.564 1389.28 221.364 1389.41 221.148C1389.54 220.932 1389.65 220.676 1389.74 220.381C1389.84 220.081 1389.93 219.718 1389.99 219.29C1390.06 218.858 1390.12 218.337 1390.18 217.727L1390.47 214.273H1396.02V221.75H1397.36V225.5H1396.02V223H1389.56V225.5H1388.22ZM1390.47 221.75H1394.68V215.523H1391.72L1391.49 217.727C1391.4 218.64 1391.28 219.437 1391.14 220.119C1391 220.801 1390.78 221.345 1390.47 221.75ZM1402 223.182C1401.15 223.182 1400.43 222.996 1399.82 222.625C1399.21 222.25 1398.75 221.727 1398.42 221.057C1398.09 220.383 1397.93 219.598 1397.93 218.705C1397.93 217.811 1398.09 217.023 1398.42 216.341C1398.75 215.655 1399.2 215.121 1399.79 214.739C1400.38 214.352 1401.07 214.159 1401.86 214.159C1402.31 214.159 1402.76 214.235 1403.21 214.386C1403.65 214.538 1404.05 214.784 1404.42 215.125C1404.78 215.462 1405.07 215.909 1405.29 216.466C1405.5 217.023 1405.61 217.708 1405.61 218.523V219.091H1398.88V217.932H1404.25C1404.25 217.439 1404.15 217 1403.95 216.614C1403.76 216.227 1403.48 215.922 1403.12 215.699C1402.76 215.475 1402.34 215.364 1401.86 215.364C1401.33 215.364 1400.86 215.496 1400.47 215.761C1400.09 216.023 1399.79 216.364 1399.58 216.784C1399.37 217.205 1399.27 217.655 1399.27 218.136V218.909C1399.27 219.568 1399.38 220.127 1399.61 220.585C1399.84 221.04 1400.16 221.386 1400.57 221.625C1400.98 221.86 1401.45 221.977 1402 221.977C1402.35 221.977 1402.67 221.928 1402.95 221.83C1403.24 221.727 1403.49 221.576 1403.69 221.375C1403.9 221.17 1404.06 220.917 1404.18 220.614L1405.47 220.977C1405.34 221.417 1405.11 221.803 1404.79 222.136C1404.46 222.466 1404.07 222.723 1403.59 222.909C1403.12 223.091 1402.59 223.182 1402 223.182ZM1412.69 218.023V219.273H1407.87V218.023H1412.69ZM1408.19 214.273V223H1406.85V214.273H1408.19ZM1413.71 214.273V223H1412.37V214.273H1413.71ZM1422.23 214.273V221.75H1423.45V225.818H1422.11V223H1415.36V214.273H1416.7V221.75H1420.88V214.273H1422.23ZM1426.06 221.023L1430.26 214.273H1431.81V223H1430.47V216.25L1426.29 223H1424.72V214.273H1426.06V221.023ZM1436.03 223.205C1435.48 223.205 1434.98 223.1 1434.53 222.892C1434.08 222.68 1433.72 222.375 1433.45 221.977C1433.19 221.576 1433.06 221.091 1433.06 220.523C1433.06 220.023 1433.15 219.617 1433.35 219.307C1433.55 218.992 1433.81 218.746 1434.14 218.568C1434.47 218.39 1434.83 218.258 1435.23 218.17C1435.63 218.08 1436.04 218.008 1436.44 217.955C1436.97 217.886 1437.4 217.835 1437.73 217.801C1438.07 217.763 1438.31 217.701 1438.46 217.614C1438.61 217.527 1438.69 217.375 1438.69 217.159V217.114C1438.69 216.553 1438.54 216.117 1438.23 215.807C1437.93 215.496 1437.47 215.341 1436.85 215.341C1436.21 215.341 1435.71 215.481 1435.35 215.761C1434.98 216.042 1434.73 216.341 1434.58 216.659L1433.31 216.205C1433.53 215.674 1433.84 215.261 1434.21 214.966C1434.6 214.667 1435.01 214.458 1435.46 214.341C1435.92 214.22 1436.37 214.159 1436.81 214.159C1437.09 214.159 1437.41 214.193 1437.77 214.261C1438.14 214.326 1438.49 214.46 1438.83 214.665C1439.18 214.869 1439.46 215.178 1439.69 215.591C1439.92 216.004 1440.03 216.557 1440.03 217.25V223H1438.69V221.818H1438.62C1438.53 222.008 1438.38 222.21 1438.17 222.426C1437.96 222.642 1437.68 222.826 1437.32 222.977C1436.97 223.129 1436.54 223.205 1436.03 223.205ZM1436.24 222C1436.77 222 1437.21 221.896 1437.58 221.688C1437.95 221.479 1438.22 221.21 1438.41 220.881C1438.6 220.551 1438.69 220.205 1438.69 219.841V218.614C1438.64 218.682 1438.51 218.744 1438.32 218.801C1438.13 218.854 1437.91 218.902 1437.66 218.943C1437.41 218.981 1437.17 219.015 1436.94 219.045C1436.71 219.072 1436.52 219.095 1436.37 219.114C1436.03 219.159 1435.7 219.233 1435.4 219.335C1435.1 219.434 1434.85 219.583 1434.67 219.784C1434.49 219.981 1434.4 220.25 1434.4 220.591C1434.4 221.057 1434.57 221.409 1434.91 221.648C1435.26 221.883 1435.7 222 1436.24 222ZM1440.91 223V221.75H1441.23C1441.49 221.75 1441.71 221.699 1441.88 221.597C1442.05 221.491 1442.19 221.307 1442.3 221.045C1442.41 220.78 1442.49 220.413 1442.55 219.943C1442.61 219.47 1442.65 218.867 1442.68 218.136L1442.84 214.273H1448.66V223H1447.32V215.523H1444.11L1443.98 218.636C1443.95 219.352 1443.88 219.983 1443.78 220.528C1443.69 221.07 1443.54 221.525 1443.35 221.892C1443.15 222.259 1442.89 222.536 1442.57 222.722C1442.25 222.907 1441.85 223 1441.36 223H1440.91ZM1451.48 217.432H1453.98C1455 217.432 1455.78 217.691 1456.32 218.21C1456.87 218.729 1457.14 219.386 1457.14 220.182C1457.14 220.705 1457.01 221.18 1456.77 221.608C1456.53 222.032 1456.17 222.371 1455.7 222.625C1455.23 222.875 1454.66 223 1453.98 223H1450.32V214.273H1451.66V221.75H1453.98C1454.51 221.75 1454.94 221.61 1455.28 221.33C1455.62 221.049 1455.8 220.689 1455.8 220.25C1455.8 219.788 1455.62 219.411 1455.28 219.119C1454.94 218.828 1454.51 218.682 1453.98 218.682H1451.48V217.432ZM1464.22 218.023V219.273H1459.4V218.023H1464.22ZM1459.72 214.273V223H1458.38V214.273H1459.72ZM1465.24 214.273V223H1463.9V214.273H1465.24ZM1470.44 223.182C1469.65 223.182 1468.96 222.994 1468.36 222.619C1467.77 222.244 1467.31 221.72 1466.98 221.045C1466.65 220.371 1466.48 219.583 1466.48 218.682C1466.48 217.773 1466.65 216.979 1466.98 216.301C1467.31 215.623 1467.77 215.097 1468.36 214.722C1468.96 214.347 1469.65 214.159 1470.44 214.159C1471.22 214.159 1471.91 214.347 1472.5 214.722C1473.1 215.097 1473.56 215.623 1473.89 216.301C1474.22 216.979 1474.39 217.773 1474.39 218.682C1474.39 219.583 1474.22 220.371 1473.89 221.045C1473.56 221.72 1473.1 222.244 1472.5 222.619C1471.91 222.994 1471.22 223.182 1470.44 223.182ZM1470.44 221.977C1471.03 221.977 1471.53 221.824 1471.91 221.517C1472.3 221.21 1472.58 220.807 1472.77 220.307C1472.96 219.807 1473.05 219.265 1473.05 218.682C1473.05 218.098 1472.96 217.555 1472.77 217.051C1472.58 216.547 1472.3 216.14 1471.91 215.83C1471.53 215.519 1471.03 215.364 1470.44 215.364C1469.84 215.364 1469.34 215.519 1468.96 215.83C1468.57 216.14 1468.29 216.547 1468.1 217.051C1467.91 217.555 1467.82 218.098 1467.82 218.682C1467.82 219.265 1467.91 219.807 1468.1 220.307C1468.29 220.807 1468.57 221.21 1468.96 221.517C1469.34 221.824 1469.84 221.977 1470.44 221.977ZM1479.18 223.182C1478.36 223.182 1477.66 222.989 1477.07 222.602C1476.48 222.216 1476.02 221.684 1475.7 221.006C1475.39 220.328 1475.23 219.553 1475.23 218.682C1475.23 217.795 1475.39 217.013 1475.72 216.335C1476.05 215.653 1476.5 215.121 1477.09 214.739C1477.68 214.352 1478.37 214.159 1479.16 214.159C1479.77 214.159 1480.33 214.273 1480.82 214.5C1481.31 214.727 1481.71 215.045 1482.03 215.455C1482.34 215.864 1482.54 216.341 1482.61 216.886H1481.27C1481.17 216.489 1480.94 216.136 1480.59 215.83C1480.24 215.519 1479.77 215.364 1479.18 215.364C1478.66 215.364 1478.2 215.5 1477.81 215.773C1477.42 216.042 1477.11 216.422 1476.89 216.915C1476.68 217.403 1476.57 217.977 1476.57 218.636C1476.57 219.311 1476.67 219.898 1476.89 220.398C1477.1 220.898 1477.41 221.286 1477.8 221.562C1478.19 221.839 1478.65 221.977 1479.18 221.977C1479.53 221.977 1479.85 221.917 1480.13 221.795C1480.42 221.674 1480.66 221.5 1480.85 221.273C1481.05 221.045 1481.19 220.773 1481.27 220.455H1482.61C1482.54 220.97 1482.35 221.434 1482.05 221.847C1481.76 222.256 1481.36 222.581 1480.88 222.824C1480.39 223.062 1479.83 223.182 1479.18 223.182ZM1483.09 215.523V214.273H1490.18V215.523H1487.31V223H1485.97V215.523H1483.09ZM1492.67 221.023L1496.88 214.273H1498.42V223H1497.08V216.25L1492.9 223H1491.33V214.273H1492.67V221.023Z" fill="#D9D9D9"/>
<path d="M687.114 115.364V127H685.705V116.614H679.841V127H678.432V115.364H687.114ZM688.974 130.273V118.273H690.27V119.659H690.429C690.527 119.508 690.664 119.314 690.838 119.08C691.016 118.841 691.27 118.629 691.599 118.443C691.932 118.254 692.383 118.159 692.951 118.159C693.686 118.159 694.334 118.343 694.895 118.71C695.455 119.078 695.893 119.598 696.207 120.273C696.521 120.947 696.679 121.742 696.679 122.659C696.679 123.583 696.521 124.384 696.207 125.062C695.893 125.737 695.457 126.259 694.9 126.631C694.343 126.998 693.701 127.182 692.974 127.182C692.414 127.182 691.965 127.089 691.628 126.903C691.29 126.714 691.031 126.5 690.849 126.261C690.667 126.019 690.527 125.818 690.429 125.659H690.315V130.273H688.974ZM690.292 122.636C690.292 123.295 690.389 123.877 690.582 124.381C690.775 124.881 691.057 125.273 691.429 125.557C691.8 125.837 692.254 125.977 692.792 125.977C693.353 125.977 693.821 125.83 694.196 125.534C694.575 125.235 694.859 124.833 695.048 124.33C695.241 123.822 695.338 123.258 695.338 122.636C695.338 122.023 695.243 121.47 695.054 120.977C694.868 120.481 694.586 120.089 694.207 119.801C693.832 119.509 693.361 119.364 692.792 119.364C692.247 119.364 691.789 119.502 691.417 119.778C691.046 120.051 690.766 120.434 690.576 120.926C690.387 121.415 690.292 121.985 690.292 122.636ZM700.492 127.205C699.939 127.205 699.437 127.1 698.987 126.892C698.536 126.68 698.178 126.375 697.913 125.977C697.648 125.576 697.515 125.091 697.515 124.523C697.515 124.023 697.614 123.617 697.811 123.307C698.007 122.992 698.271 122.746 698.6 122.568C698.93 122.39 699.293 122.258 699.691 122.17C700.093 122.08 700.496 122.008 700.901 121.955C701.432 121.886 701.862 121.835 702.191 121.801C702.525 121.763 702.767 121.701 702.918 121.614C703.074 121.527 703.151 121.375 703.151 121.159V121.114C703.151 120.553 702.998 120.117 702.691 119.807C702.388 119.496 701.928 119.341 701.311 119.341C700.67 119.341 700.168 119.481 699.805 119.761C699.441 120.042 699.186 120.341 699.038 120.659L697.765 120.205C697.992 119.674 698.295 119.261 698.674 118.966C699.057 118.667 699.473 118.458 699.924 118.341C700.379 118.22 700.826 118.159 701.265 118.159C701.545 118.159 701.867 118.193 702.231 118.261C702.598 118.326 702.953 118.46 703.293 118.665C703.638 118.869 703.924 119.178 704.151 119.591C704.379 120.004 704.492 120.557 704.492 121.25V127H703.151V125.818H703.083C702.992 126.008 702.841 126.21 702.629 126.426C702.417 126.642 702.134 126.826 701.782 126.977C701.43 127.129 701 127.205 700.492 127.205ZM700.697 126C701.227 126 701.674 125.896 702.038 125.688C702.405 125.479 702.682 125.21 702.867 124.881C703.057 124.551 703.151 124.205 703.151 123.841V122.614C703.095 122.682 702.97 122.744 702.776 122.801C702.587 122.854 702.367 122.902 702.117 122.943C701.871 122.981 701.631 123.015 701.396 123.045C701.165 123.072 700.977 123.095 700.833 123.114C700.485 123.159 700.159 123.233 699.856 123.335C699.557 123.434 699.314 123.583 699.129 123.784C698.947 123.981 698.856 124.25 698.856 124.591C698.856 125.057 699.028 125.409 699.373 125.648C699.721 125.883 700.163 126 700.697 126ZM707.481 125.023L711.685 118.273H713.231V127H711.89V120.25L707.708 127H706.14V118.273H707.481V125.023ZM710.799 115.364H712.049C712.049 115.977 711.837 116.479 711.413 116.869C710.988 117.259 710.413 117.455 709.685 117.455C708.969 117.455 708.399 117.259 707.975 116.869C707.555 116.479 707.344 115.977 707.344 115.364H708.594C708.594 115.659 708.676 115.919 708.839 116.142C709.005 116.366 709.288 116.477 709.685 116.477C710.083 116.477 710.367 116.366 710.538 116.142C710.712 115.919 710.799 115.659 710.799 115.364ZM718.432 127.182C717.614 127.182 716.909 126.989 716.318 126.602C715.728 126.216 715.273 125.684 714.955 125.006C714.637 124.328 714.478 123.553 714.478 122.682C714.478 121.795 714.64 121.013 714.966 120.335C715.296 119.653 715.754 119.121 716.341 118.739C716.932 118.352 717.621 118.159 718.409 118.159C719.023 118.159 719.576 118.273 720.068 118.5C720.561 118.727 720.964 119.045 721.279 119.455C721.593 119.864 721.788 120.341 721.864 120.886H720.523C720.421 120.489 720.193 120.136 719.841 119.83C719.493 119.519 719.023 119.364 718.432 119.364C717.909 119.364 717.451 119.5 717.057 119.773C716.667 120.042 716.362 120.422 716.142 120.915C715.926 121.403 715.818 121.977 715.818 122.636C715.818 123.311 715.925 123.898 716.137 124.398C716.353 124.898 716.656 125.286 717.046 125.562C717.44 125.839 717.902 125.977 718.432 125.977C718.781 125.977 719.097 125.917 719.381 125.795C719.665 125.674 719.906 125.5 720.103 125.273C720.3 125.045 720.44 124.773 720.523 124.455H721.864C721.788 124.97 721.601 125.434 721.301 125.847C721.006 126.256 720.614 126.581 720.125 126.824C719.64 127.062 719.076 127.182 718.432 127.182ZM728.024 121.386V122.636H722.933V121.386H728.024ZM728.811 127V125.75H729.129C729.39 125.75 729.608 125.699 729.782 125.597C729.957 125.491 730.097 125.307 730.203 125.045C730.313 124.78 730.396 124.413 730.453 123.943C730.513 123.47 730.557 122.867 730.584 122.136L730.743 118.273H736.561V127H735.22V119.523H732.015L731.879 122.636C731.849 123.352 731.784 123.983 731.686 124.528C731.591 125.07 731.445 125.525 731.248 125.892C731.055 126.259 730.798 126.536 730.476 126.722C730.154 126.907 729.75 127 729.265 127H728.811ZM739.562 125.023L743.766 118.273H745.312V127H743.971V120.25L739.789 127H738.221V118.273H739.562V125.023ZM750.513 127.182C749.695 127.182 748.991 126.989 748.4 126.602C747.809 126.216 747.354 125.684 747.036 125.006C746.718 124.328 746.559 123.553 746.559 122.682C746.559 121.795 746.722 121.013 747.047 120.335C747.377 119.653 747.835 119.121 748.422 118.739C749.013 118.352 749.703 118.159 750.491 118.159C751.104 118.159 751.657 118.273 752.15 118.5C752.642 118.727 753.046 119.045 753.36 119.455C753.674 119.864 753.869 120.341 753.945 120.886H752.604C752.502 120.489 752.275 120.136 751.922 119.83C751.574 119.519 751.104 119.364 750.513 119.364C749.991 119.364 749.532 119.5 749.138 119.773C748.748 120.042 748.443 120.422 748.224 120.915C748.008 121.403 747.9 121.977 747.9 122.636C747.9 123.311 748.006 123.898 748.218 124.398C748.434 124.898 748.737 125.286 749.127 125.562C749.521 125.839 749.983 125.977 750.513 125.977C750.862 125.977 751.178 125.917 751.462 125.795C751.746 125.674 751.987 125.5 752.184 125.273C752.381 125.045 752.521 124.773 752.604 124.455H753.945C753.869 124.97 753.682 125.434 753.383 125.847C753.087 126.256 752.695 126.581 752.207 126.824C751.722 127.062 751.157 127.182 750.513 127.182ZM754.418 119.523V118.273H761.509V119.523H758.645V127H757.304V119.523H754.418Z" fill="#D9D9D9"/>
<path d="M688.227 169.182C688.227 170.409 688.006 171.47 687.562 172.364C687.119 173.258 686.511 173.947 685.739 174.432C684.966 174.917 684.083 175.159 683.091 175.159C682.098 175.159 681.216 174.917 680.443 174.432C679.67 173.947 679.063 173.258 678.619 172.364C678.176 171.47 677.955 170.409 677.955 169.182C677.955 167.955 678.176 166.894 678.619 166C679.063 165.106 679.67 164.417 680.443 163.932C681.216 163.447 682.098 163.205 683.091 163.205C684.083 163.205 684.966 163.447 685.739 163.932C686.511 164.417 687.119 165.106 687.562 166C688.006 166.894 688.227 167.955 688.227 169.182ZM686.864 169.182C686.864 168.174 686.695 167.324 686.358 166.631C686.025 165.938 685.572 165.413 685 165.057C684.432 164.701 683.795 164.523 683.091 164.523C682.386 164.523 681.748 164.701 681.176 165.057C680.608 165.413 680.155 165.938 679.818 166.631C679.485 167.324 679.318 168.174 679.318 169.182C679.318 170.189 679.485 171.04 679.818 171.733C680.155 172.426 680.608 172.951 681.176 173.307C681.748 173.663 682.386 173.841 683.091 173.841C683.795 173.841 684.432 173.663 685 173.307C685.572 172.951 686.025 172.426 686.358 171.733C686.695 171.04 686.864 170.189 686.864 169.182ZM693.315 175V166.273H694.656V170.068H695.542L698.678 166.273H700.406L696.883 170.477L700.451 175H698.724L695.86 171.318H694.656V175H693.315ZM704.295 175.182C703.507 175.182 702.815 174.994 702.221 174.619C701.63 174.244 701.168 173.72 700.834 173.045C700.505 172.371 700.34 171.583 700.34 170.682C700.34 169.773 700.505 168.979 700.834 168.301C701.168 167.623 701.63 167.097 702.221 166.722C702.815 166.347 703.507 166.159 704.295 166.159C705.082 166.159 705.772 166.347 706.363 166.722C706.957 167.097 707.42 167.623 707.749 168.301C708.082 168.979 708.249 169.773 708.249 170.682C708.249 171.583 708.082 172.371 707.749 173.045C707.42 173.72 706.957 174.244 706.363 174.619C705.772 174.994 705.082 175.182 704.295 175.182ZM704.295 173.977C704.893 173.977 705.386 173.824 705.772 173.517C706.158 173.21 706.444 172.807 706.63 172.307C706.815 171.807 706.908 171.265 706.908 170.682C706.908 170.098 706.815 169.555 706.63 169.051C706.444 168.547 706.158 168.14 705.772 167.83C705.386 167.519 704.893 167.364 704.295 167.364C703.696 167.364 703.204 167.519 702.817 167.83C702.431 168.14 702.145 168.547 701.959 169.051C701.774 169.555 701.681 170.098 701.681 170.682C701.681 171.265 701.774 171.807 701.959 172.307C702.145 172.807 702.431 173.21 702.817 173.517C703.204 173.824 703.696 173.977 704.295 173.977ZM714.269 173.182L717.314 166.273H718.587L714.814 175H713.723L710.019 166.273H711.269L714.269 173.182ZM710.837 166.273V175H709.496V166.273H710.837ZM717.701 175V166.273H719.041V175H717.701ZM720.696 175V166.273H727.56V175H726.219V167.523H722.037V175H720.696ZM731.777 175.205C731.224 175.205 730.722 175.1 730.271 174.892C729.82 174.68 729.462 174.375 729.197 173.977C728.932 173.576 728.799 173.091 728.799 172.523C728.799 172.023 728.898 171.617 729.095 171.307C729.292 170.992 729.555 170.746 729.885 170.568C730.214 170.39 730.578 170.258 730.976 170.17C731.377 170.08 731.78 170.008 732.186 169.955C732.716 169.886 733.146 169.835 733.476 169.801C733.809 169.763 734.051 169.701 734.203 169.614C734.358 169.527 734.436 169.375 734.436 169.159V169.114C734.436 168.553 734.282 168.117 733.976 167.807C733.673 167.496 733.212 167.341 732.595 167.341C731.955 167.341 731.453 167.481 731.089 167.761C730.726 168.042 730.47 168.341 730.322 168.659L729.049 168.205C729.277 167.674 729.58 167.261 729.959 166.966C730.341 166.667 730.758 166.458 731.209 166.341C731.663 166.22 732.11 166.159 732.549 166.159C732.83 166.159 733.152 166.193 733.515 166.261C733.883 166.326 734.237 166.46 734.578 166.665C734.923 166.869 735.209 167.178 735.436 167.591C735.663 168.004 735.777 168.557 735.777 169.25V175H734.436V173.818H734.368C734.277 174.008 734.125 174.21 733.913 174.426C733.701 174.642 733.419 174.826 733.066 174.977C732.714 175.129 732.284 175.205 731.777 175.205ZM731.981 174C732.512 174 732.959 173.896 733.322 173.688C733.69 173.479 733.966 173.21 734.152 172.881C734.341 172.551 734.436 172.205 734.436 171.841V170.614C734.379 170.682 734.254 170.744 734.061 170.801C733.871 170.854 733.652 170.902 733.402 170.943C733.155 170.981 732.915 171.015 732.68 171.045C732.449 171.072 732.262 171.095 732.118 171.114C731.769 171.159 731.443 171.233 731.14 171.335C730.841 171.434 730.599 171.583 730.413 171.784C730.231 171.981 730.14 172.25 730.14 172.591C730.14 173.057 730.313 173.409 730.657 173.648C731.006 173.883 731.447 174 731.981 174ZM743.265 170.023V171.273H738.447V170.023H743.265ZM738.765 166.273V175H737.424V166.273H738.765ZM744.288 166.273V175H742.947V166.273H744.288ZM747.278 173.023L751.482 166.273H753.028V175H751.687V168.25L747.505 175H745.937V166.273H747.278V173.023ZM756.024 173.023L760.229 166.273H761.774V175H760.434V168.25L756.252 175H754.684V166.273H756.024V173.023Z" fill="#D9D9D9"/>
<path d="M685.25 223L681.25 217.659H679.818V223H678.409V211.364H679.818V216.409H680.432L685.091 211.364H686.773L682.068 216.477L686.932 223H685.25ZM690.676 223.182C689.888 223.182 689.197 222.994 688.602 222.619C688.011 222.244 687.549 221.72 687.216 221.045C686.886 220.371 686.721 219.583 686.721 218.682C686.721 217.773 686.886 216.979 687.216 216.301C687.549 215.623 688.011 215.097 688.602 214.722C689.197 214.347 689.888 214.159 690.676 214.159C691.464 214.159 692.153 214.347 692.744 214.722C693.339 215.097 693.801 215.623 694.13 216.301C694.464 216.979 694.63 217.773 694.63 218.682C694.63 219.583 694.464 220.371 694.13 221.045C693.801 221.72 693.339 222.244 692.744 222.619C692.153 222.994 691.464 223.182 690.676 223.182ZM690.676 221.977C691.274 221.977 691.767 221.824 692.153 221.517C692.539 221.21 692.825 220.807 693.011 220.307C693.197 219.807 693.289 219.265 693.289 218.682C693.289 218.098 693.197 217.555 693.011 217.051C692.825 216.547 692.539 216.14 692.153 215.83C691.767 215.519 691.274 215.364 690.676 215.364C690.077 215.364 689.585 215.519 689.199 215.83C688.812 216.14 688.526 216.547 688.341 217.051C688.155 217.555 688.062 218.098 688.062 218.682C688.062 219.265 688.155 219.807 688.341 220.307C688.526 220.807 688.812 221.21 689.199 221.517C689.585 221.824 690.077 221.977 690.676 221.977ZM701.718 218.023V219.273H696.9V218.023H701.718ZM697.218 214.273V223H695.877V214.273H697.218ZM702.741 214.273V223H701.4V214.273H702.741ZM703.202 215.523V214.273H710.293V215.523H707.43V223H706.089V215.523H703.202ZM713.564 223.205C713.011 223.205 712.509 223.1 712.059 222.892C711.608 222.68 711.25 222.375 710.985 221.977C710.72 221.576 710.587 221.091 710.587 220.523C710.587 220.023 710.685 219.617 710.882 219.307C711.079 218.992 711.343 218.746 711.672 218.568C712.002 218.39 712.365 218.258 712.763 218.17C713.165 218.08 713.568 218.008 713.973 217.955C714.504 217.886 714.934 217.835 715.263 217.801C715.596 217.763 715.839 217.701 715.99 217.614C716.146 217.527 716.223 217.375 716.223 217.159V217.114C716.223 216.553 716.07 216.117 715.763 215.807C715.46 215.496 715 215.341 714.382 215.341C713.742 215.341 713.24 215.481 712.877 215.761C712.513 216.042 712.257 216.341 712.11 216.659L710.837 216.205C711.064 215.674 711.367 215.261 711.746 214.966C712.129 214.667 712.545 214.458 712.996 214.341C713.451 214.22 713.898 214.159 714.337 214.159C714.617 214.159 714.939 214.193 715.303 214.261C715.67 214.326 716.024 214.46 716.365 214.665C716.71 214.869 716.996 215.178 717.223 215.591C717.451 216.004 717.564 216.557 717.564 217.25V223H716.223V221.818H716.155C716.064 222.008 715.913 222.21 715.701 222.426C715.488 222.642 715.206 222.826 714.854 222.977C714.502 223.129 714.072 223.205 713.564 223.205ZM713.769 222C714.299 222 714.746 221.896 715.11 221.688C715.477 221.479 715.754 221.21 715.939 220.881C716.129 220.551 716.223 220.205 716.223 219.841V218.614C716.166 218.682 716.041 218.744 715.848 218.801C715.659 218.854 715.439 218.902 715.189 218.943C714.943 218.981 714.702 219.015 714.468 219.045C714.237 219.072 714.049 219.095 713.905 219.114C713.557 219.159 713.231 219.233 712.928 219.335C712.629 219.434 712.386 219.583 712.201 219.784C712.019 219.981 711.928 220.25 711.928 220.591C711.928 221.057 712.1 221.409 712.445 221.648C712.793 221.883 713.235 222 713.769 222ZM719.212 223V214.273H720.553V218.068H721.439L724.575 214.273H726.303L722.78 218.477L726.348 223H724.621L721.757 219.318H720.553V223H719.212ZM726.505 215.523V214.273H733.596V215.523H730.733V223H729.392V215.523H726.505ZM735.911 217.432H738.411C739.434 217.432 740.216 217.691 740.758 218.21C741.3 218.729 741.57 219.386 741.57 220.182C741.57 220.705 741.449 221.18 741.207 221.608C740.964 222.032 740.608 222.371 740.139 222.625C739.669 222.875 739.093 223 738.411 223H734.752V214.273H736.093V221.75H738.411C738.942 221.75 739.377 221.61 739.718 221.33C740.059 221.049 740.23 220.689 740.23 220.25C740.23 219.788 740.059 219.411 739.718 219.119C739.377 218.828 738.942 218.682 738.411 218.682H735.911V217.432ZM742.957 223V214.273H744.298V223H742.957Z" fill="#D9D9D9"/>
<path d="M421.189 122.507C421.142 121.071 420.691 119.923 419.834 119.061C418.977 118.2 417.796 117.769 416.291 117.769C414.786 117.769 413.57 118.2 412.644 119.061C411.717 119.923 411.162 121.071 410.977 122.507H421.189ZM423.516 129.363C422.544 130.656 421.478 131.559 420.321 132.073C419.162 132.588 417.82 132.845 416.291 132.845C415.017 132.845 413.871 132.612 412.852 132.145C411.833 131.679 410.97 131.05 410.264 130.261C409.558 129.471 409.014 128.538 408.632 127.461C408.25 126.384 408.059 125.235 408.059 124.015C408.059 122.723 408.267 121.532 408.684 120.443C409.101 119.354 409.679 118.421 410.421 117.643C411.162 116.866 412.041 116.261 413.061 115.831C414.079 115.4 415.191 115.184 416.395 115.184C417.53 115.184 418.572 115.382 419.522 115.777C420.471 116.172 421.287 116.746 421.971 117.5C422.653 118.254 423.18 119.175 423.551 120.264C423.921 121.353 424.107 122.591 424.107 123.979V124.876H410.977C411.023 125.594 411.19 126.283 411.48 126.94C411.77 127.599 412.146 128.173 412.609 128.663C413.072 129.154 413.617 129.543 414.242 129.83C414.867 130.117 415.55 130.261 416.291 130.261C417.472 130.261 418.468 130.045 419.279 129.615C420.089 129.184 420.818 128.55 421.467 127.712L423.516 129.363Z" fill="#F7F5F5"/>
<path d="M430.882 124.015C430.882 124.9 431.015 125.72 431.281 126.474C431.547 127.228 431.935 127.886 432.445 128.448C432.953 129.011 433.562 129.453 434.268 129.776C434.974 130.099 435.767 130.261 436.647 130.261C437.528 130.261 438.321 130.099 439.027 129.776C439.733 129.453 440.341 129.011 440.851 128.448C441.36 127.886 441.748 127.228 442.015 126.474C442.28 125.72 442.414 124.9 442.414 124.015C442.414 123.13 442.28 122.31 442.015 121.556C441.748 120.802 441.36 120.144 440.851 119.582C440.341 119.02 439.733 118.577 439.027 118.254C438.321 117.931 437.528 117.769 436.647 117.769C435.767 117.769 434.974 117.931 434.268 118.254C433.562 118.577 432.953 119.02 432.445 119.582C431.935 120.144 431.547 120.802 431.281 121.556C431.015 122.31 430.882 123.13 430.882 124.015ZM428.172 115.615H430.882V118.056H430.951C431.692 117.147 432.554 116.441 433.539 115.938C434.523 115.436 435.605 115.184 436.787 115.184C438.06 115.184 439.223 115.406 440.278 115.849C441.331 116.292 442.228 116.907 442.97 117.697C443.711 118.487 444.29 119.42 444.706 120.497C445.123 121.574 445.332 122.747 445.332 124.015C445.332 125.284 445.123 126.456 444.706 127.533C444.29 128.61 443.717 129.543 442.987 130.333C442.258 131.122 441.394 131.739 440.399 132.181C439.403 132.624 438.338 132.845 437.204 132.845C435.745 132.845 434.465 132.516 433.365 131.858C432.265 131.2 431.46 130.393 430.951 129.435H430.882V140.599H428.172V115.615Z" fill="#F7F5F5"/>
<path d="M457.176 124.338C455.439 124.338 454.061 124.589 453.042 125.092C452.023 125.594 451.513 126.42 451.513 127.569C451.513 128.622 451.855 129.37 452.538 129.812C453.221 130.255 454.072 130.476 455.091 130.476C455.878 130.476 456.568 130.339 457.159 130.063C457.749 129.789 458.241 129.423 458.634 128.969C459.028 128.514 459.33 127.981 459.538 127.371C459.746 126.761 459.862 126.109 459.886 125.415V124.338H457.176ZM449.325 117.769C450.159 116.884 451.149 116.232 452.295 115.813C453.442 115.394 454.605 115.184 455.786 115.184C458.195 115.184 459.931 115.771 460.997 116.943C462.062 118.116 462.595 119.899 462.595 122.292V129.507C462.595 129.986 462.617 130.482 462.664 130.997C462.71 131.511 462.768 131.984 462.838 132.415H460.233C460.14 132.032 460.088 131.607 460.076 131.14C460.064 130.674 460.059 130.261 460.059 129.902H459.99C459.457 130.763 458.744 131.469 457.853 132.02C456.961 132.57 455.891 132.845 454.64 132.845C453.806 132.845 453.025 132.738 452.295 132.522C451.566 132.307 450.929 131.99 450.385 131.571C449.84 131.153 449.406 130.632 449.082 130.01C448.757 129.387 448.596 128.67 448.596 127.856C448.596 126.468 448.943 125.379 449.638 124.589C450.332 123.799 451.195 123.213 452.225 122.83C453.256 122.448 454.368 122.208 455.56 122.112C456.753 122.017 457.847 121.969 458.843 121.969H459.886V121.466C459.886 120.246 459.532 119.325 458.826 118.702C458.119 118.08 457.129 117.769 455.856 117.769C454.976 117.769 454.113 117.919 453.268 118.218C452.423 118.517 451.675 118.978 451.028 119.6L449.325 117.769Z" fill="#F7F5F5"/>
<path d="M467.805 115.615H470.514V132.415H467.805V115.615ZM467.18 109.046C467.18 108.496 467.37 108.018 467.752 107.61C468.135 107.204 468.604 107 469.16 107C469.715 107 470.185 107.204 470.566 107.61C470.948 108.018 471.14 108.496 471.14 109.046C471.14 109.645 470.954 110.135 470.584 110.518C470.213 110.901 469.738 111.092 469.16 111.092C468.58 111.092 468.105 110.901 467.735 110.518C467.365 110.135 467.18 109.645 467.18 109.046Z" fill="#F7F5F5"/>
<path d="M397.443 122.025C397.443 121.727 397.523 120.662 397.602 120.304C398.116 117.961 400.297 115.006 404.538 115.172C404.879 115.186 405.117 115.207 405.39 115.278V117.877C405.027 117.839 404.242 117.83 403.825 117.857C402.606 117.937 400.825 118.822 400.246 121.171C400.062 121.919 400.118 123.554 400.118 124.082L400.117 132.399H397.443V122.025Z" fill="#F7F5F5"/>
<path d="M475.9 122.042C475.9 121.745 475.98 120.679 476.059 120.321C476.573 117.978 478.754 115.023 482.996 115.189C483.336 115.203 483.574 115.225 483.847 115.295V117.894C483.484 117.856 482.7 117.847 482.283 117.874C481.063 117.954 479.283 118.839 478.703 121.188C478.519 121.936 478.575 123.571 478.575 124.099L478.574 132.416H475.9V122.042Z" fill="#F7F5F5"/>
<path d="M386.141 123.261L393.992 115.615H390.136L382.737 123.01L382.735 107L380.025 109.704L380.027 132.415H382.737V123.584L390.796 132.415H394.79L386.141 123.261Z" fill="#F03957"/>
<path d="M383.569 137.803H382.913C382.855 137.593 382.736 137.424 382.556 137.295C382.377 137.166 382.148 137.102 381.87 137.102C381.511 137.102 381.221 137.238 381.001 137.511C380.781 137.784 380.671 138.145 380.671 138.594C380.671 139.054 380.782 139.418 381.003 139.685C381.224 139.953 381.516 140.087 381.877 140.087C382.148 140.087 382.373 140.028 382.553 139.909C382.732 139.79 382.855 139.62 382.92 139.397H383.577C383.508 139.779 383.32 140.087 383.011 140.322C382.703 140.557 382.324 140.674 381.874 140.674C381.307 140.674 380.853 140.487 380.512 140.112C380.171 139.736 380 139.231 380 138.594C380 137.968 380.171 137.465 380.512 137.085C380.853 136.705 381.305 136.515 381.866 136.515C382.331 136.515 382.716 136.638 383.019 136.886C383.323 137.133 383.506 137.439 383.569 137.803Z" fill="#6F7375"/>
<path d="M386.596 137.094C386.274 137.094 386.008 137.2 385.797 137.412C385.586 137.625 385.469 137.904 385.446 138.25H387.696C387.688 137.904 387.584 137.625 387.383 137.412C387.182 137.2 386.919 137.094 386.596 137.094ZM387.68 139.469H388.333C388.277 139.82 388.09 140.109 387.771 140.335C387.453 140.561 387.075 140.674 386.637 140.674C386.063 140.674 385.608 140.488 385.27 140.117C384.932 139.746 384.764 139.243 384.764 138.61C384.764 137.976 384.932 137.468 385.268 137.087C385.604 136.705 386.051 136.515 386.607 136.515C387.153 136.515 387.586 136.694 387.904 137.054C388.223 137.414 388.382 137.902 388.382 138.519V138.776H385.446V138.814C385.446 139.203 385.556 139.514 385.776 139.746C385.996 139.978 386.288 140.095 386.653 140.095C386.908 140.095 387.129 140.038 387.314 139.926C387.5 139.814 387.622 139.661 387.68 139.469Z" fill="#6F7375"/>
<path d="M391.671 140.087C392.033 140.087 392.323 139.951 392.542 139.68C392.761 139.408 392.87 139.046 392.87 138.594C392.87 138.145 392.761 137.783 392.542 137.511C392.323 137.238 392.033 137.102 391.671 137.102C391.32 137.102 391.034 137.239 390.814 137.515C390.594 137.79 390.484 138.15 390.484 138.594C390.484 139.039 390.594 139.399 390.812 139.674C391.031 139.949 391.317 140.087 391.671 140.087ZM391.793 136.515C392.316 136.515 392.739 136.706 393.062 137.088C393.384 137.471 393.545 137.973 393.545 138.594C393.545 139.216 393.384 139.717 393.063 140.1C392.742 140.483 392.324 140.674 391.808 140.674C391.52 140.674 391.262 140.613 391.036 140.492C390.81 140.371 390.632 140.198 390.503 139.973H390.488V142H389.828V136.552H390.454V137.215H390.469C390.588 137.003 390.767 136.833 391.008 136.706C391.248 136.578 391.51 136.515 391.793 136.515Z" fill="#6F7375"/>
<path d="M396.612 138.795H395.645V140.091H396.737C396.985 140.091 397.174 140.036 397.306 139.926C397.437 139.816 397.503 139.657 397.503 139.45C397.503 139.228 397.43 139.063 397.283 138.956C397.136 138.849 396.913 138.795 396.612 138.795ZM396.661 137.098H395.645V138.25H396.555C397.068 138.25 397.325 138.055 397.325 137.666C397.325 137.482 397.268 137.341 397.154 137.244C397.04 137.147 396.876 137.098 396.661 137.098ZM394.992 140.636V136.552H396.744C397.124 136.552 397.423 136.646 397.641 136.833C397.86 137.02 397.97 137.275 397.97 137.598C397.97 137.805 397.905 137.993 397.776 138.162C397.647 138.332 397.489 138.436 397.302 138.477V138.507C397.557 138.542 397.763 138.647 397.918 138.822C398.074 138.996 398.152 139.209 398.152 139.462C398.152 139.823 398.026 140.109 397.776 140.32C397.526 140.531 397.184 140.636 396.752 140.636H394.992Z" fill="#6F7375"/>
<path d="M400.268 140.636H399.615V136.552H400.268V139.617H400.298L402.403 136.552H403.055V140.636H402.403V137.571H402.373L400.268 140.636Z" fill="#6F7375"/>
<path d="M408.071 137.803H407.415C407.357 137.593 407.238 137.424 407.058 137.295C406.879 137.166 406.65 137.102 406.372 137.102C406.013 137.102 405.723 137.238 405.503 137.511C405.283 137.784 405.173 138.145 405.173 138.594C405.173 139.054 405.284 139.418 405.505 139.685C405.726 139.953 406.018 140.087 406.379 140.087C406.65 140.087 406.875 140.028 407.054 139.909C407.234 139.79 407.357 139.62 407.422 139.397H408.079C408.01 139.779 407.822 140.087 407.513 140.322C407.205 140.557 406.826 140.674 406.376 140.674C405.809 140.674 405.355 140.487 405.014 140.112C404.673 139.736 404.502 139.231 404.502 138.594C404.502 137.968 404.673 137.465 405.014 137.085C405.355 136.705 405.807 136.515 406.368 136.515C406.833 136.515 407.218 136.638 407.521 136.886C407.824 137.133 408.008 137.439 408.071 137.803Z" fill="#6F7375"/>
<path d="M412.198 140.636V138.787H410.119V140.636H409.467V136.552H410.119V138.242H412.198V136.552H412.85V140.636H412.198Z" fill="#6F7375"/>
<path d="M417.97 140.636V136.552H418.623V140.636H417.97ZM415.918 138.409H415.148V140.091H415.918C416.186 140.091 416.401 140.014 416.561 139.861C416.722 139.709 416.802 139.505 416.802 139.25C416.802 138.995 416.722 138.791 416.561 138.638C416.401 138.485 416.186 138.409 415.918 138.409ZM414.496 140.636V136.552H415.148V137.863H415.918C416.386 137.863 416.759 137.988 417.037 138.238C417.315 138.488 417.455 138.825 417.455 139.25C417.455 139.674 417.315 140.011 417.037 140.261C416.759 140.511 416.386 140.636 415.918 140.636H414.496Z" fill="#6F7375"/>
<path d="M420.782 134.764H421.267C421.267 134.989 421.335 135.176 421.47 135.325C421.605 135.474 421.783 135.548 422.003 135.548C422.223 135.548 422.4 135.474 422.536 135.325C422.671 135.176 422.739 134.989 422.739 134.764H423.224C423.224 135.113 423.111 135.396 422.885 135.613C422.658 135.83 422.364 135.939 422.003 135.939C421.641 135.939 421.347 135.83 421.121 135.613C420.895 135.396 420.782 135.113 420.782 134.764ZM420.922 140.636H420.27V136.552H420.922V139.617H420.952L423.057 136.552H423.71V140.636H423.057V137.571H423.027L420.922 140.636Z" fill="#6F7375"/>
<path d="M439.263 141.716H438.648V140.636H435.303V136.552H435.955V140.091H437.957V136.552H438.61V140.091H439.263V141.716Z" fill="#6F7375"/>
<path d="M442.187 137.094C441.867 137.094 441.6 137.2 441.389 137.412C441.178 137.625 441.061 137.904 441.038 138.25H443.287C443.28 137.904 443.175 137.625 442.974 137.412C442.774 137.2 442.511 137.094 442.187 137.094ZM443.272 139.469H443.925C443.869 139.82 443.682 140.109 443.363 140.335C443.045 140.561 442.667 140.674 442.229 140.674C441.655 140.674 441.199 140.488 440.862 140.117C440.524 139.746 440.355 139.243 440.355 138.61C440.355 137.976 440.524 137.468 440.86 137.087C441.196 136.705 441.643 136.515 442.199 136.515C442.745 136.515 443.177 136.694 443.496 137.054C443.815 137.414 443.974 137.902 443.974 138.519V138.776H441.038V138.814C441.038 139.203 441.148 139.514 441.368 139.746C441.588 139.978 441.88 140.095 442.244 140.095C442.5 140.095 442.72 140.038 442.906 139.926C443.092 139.814 443.214 139.661 443.272 139.469Z" fill="#6F7375"/>
<path d="M448.151 140.636V138.787H446.073V140.636H445.42V136.552H446.073V138.242H448.151V136.552H448.803V140.636H448.151Z" fill="#6F7375"/>
<path d="M453.423 136.552V137.098H452.095V140.636H451.443V137.098H450.115V136.552H453.423Z" fill="#6F7375"/>
<path d="M456.58 140.087C456.941 140.087 457.231 139.951 457.45 139.68C457.669 139.408 457.778 139.046 457.778 138.594C457.778 138.145 457.669 137.783 457.45 137.511C457.231 137.238 456.941 137.102 456.58 137.102C456.228 137.102 455.942 137.239 455.723 137.515C455.503 137.79 455.392 138.15 455.392 138.594C455.392 139.039 455.502 139.399 455.721 139.674C455.939 139.949 456.225 140.087 456.58 140.087ZM456.701 136.514C457.224 136.514 457.647 136.706 457.97 137.088C458.292 137.471 458.453 137.973 458.453 138.594C458.453 139.215 458.293 139.717 457.972 140.1C457.651 140.483 457.232 140.674 456.716 140.674C456.428 140.674 456.171 140.613 455.944 140.492C455.718 140.371 455.541 140.198 455.411 139.973H455.397V142H454.736V136.552H455.362V137.215H455.377C455.496 137.003 455.676 136.833 455.916 136.706C456.156 136.578 456.418 136.514 456.701 136.514Z" fill="#6F7375"/>
</g>
</svg>
