<svg width="1156" height="530" viewBox="0 0 1156 530" fill="none" xmlns="http://www.w3.org/2000/svg">
<rect width="1156" height="530" rx="20" fill="#F7F5F5"/>
<rect x="466" y="331" width="228" height="66" rx="10" fill="#F03957"/>
<path d="M523.989 363.455C523.989 364.865 523.724 366.073 523.196 367.079C522.672 368.08 521.956 368.847 521.048 369.38C520.145 369.913 519.12 370.179 517.974 370.179C516.827 370.179 515.8 369.913 514.893 369.38C513.989 368.843 513.273 368.074 512.745 367.072C512.221 366.067 511.959 364.861 511.959 363.455C511.959 362.044 512.221 360.838 512.745 359.837C513.273 358.831 513.989 358.062 514.893 357.529C515.8 356.996 516.827 356.73 517.974 356.73C519.12 356.73 520.145 356.996 521.048 357.529C521.956 358.062 522.672 358.831 523.196 359.837C523.724 360.838 523.989 362.044 523.989 363.455ZM521.604 363.455C521.604 362.462 521.449 361.624 521.138 360.942C520.831 360.256 520.405 359.739 519.859 359.389C519.314 359.036 518.685 358.859 517.974 358.859C517.262 358.859 516.634 359.036 516.088 359.389C515.543 359.739 515.114 360.256 514.803 360.942C514.496 361.624 514.343 362.462 514.343 363.455C514.343 364.447 514.496 365.287 514.803 365.973C515.114 366.655 515.543 367.173 516.088 367.526C516.634 367.876 517.262 368.05 517.974 368.05C518.685 368.05 519.314 367.876 519.859 367.526C520.405 367.173 520.831 366.655 521.138 365.973C521.449 365.287 521.604 364.447 521.604 363.455ZM529.511 370.192C528.531 370.192 527.689 369.977 526.986 369.546C526.287 369.116 525.748 368.521 525.369 367.763C524.994 367 524.806 366.122 524.806 365.129C524.806 364.132 524.998 363.252 525.382 362.489C525.765 361.722 526.306 361.126 527.005 360.7C527.708 360.269 528.539 360.054 529.498 360.054C530.295 360.054 531 360.201 531.614 360.495C532.232 360.785 532.724 361.196 533.091 361.729C533.457 362.257 533.666 362.875 533.717 363.582H531.505C531.416 363.109 531.203 362.715 530.866 362.4C530.534 362.08 530.088 361.92 529.53 361.92C529.057 361.92 528.642 362.048 528.284 362.304C527.926 362.555 527.647 362.918 527.446 363.391C527.25 363.864 527.152 364.43 527.152 365.091C527.152 365.76 527.25 366.335 527.446 366.817C527.642 367.294 527.917 367.663 528.271 367.923C528.629 368.178 529.049 368.306 529.53 368.306C529.871 368.306 530.176 368.242 530.444 368.114C530.717 367.982 530.945 367.793 531.128 367.545C531.311 367.298 531.437 366.998 531.505 366.644H533.717C533.662 367.339 533.457 367.955 533.103 368.491C532.75 369.024 532.268 369.442 531.659 369.744C531.049 370.043 530.333 370.192 529.511 370.192ZM534.004 362.08V360.182H542.595V362.08H539.418V370H537.181V362.08H534.004ZM545.959 370.198C545.337 370.198 544.776 370.087 544.278 369.866C543.783 369.64 543.391 369.308 543.101 368.869C542.816 368.43 542.673 367.888 542.673 367.245C542.673 366.691 542.775 366.233 542.98 365.871C543.185 365.509 543.464 365.219 543.817 365.001C544.171 364.784 544.57 364.62 545.013 364.509C545.46 364.394 545.923 364.311 546.4 364.26C546.975 364.2 547.442 364.147 547.8 364.1C548.158 364.049 548.418 363.972 548.579 363.87C548.746 363.763 548.829 363.599 548.829 363.378V363.339C548.829 362.858 548.686 362.485 548.4 362.221C548.115 361.957 547.704 361.825 547.167 361.825C546.6 361.825 546.15 361.948 545.818 362.195C545.49 362.442 545.268 362.734 545.153 363.071L542.993 362.764C543.163 362.168 543.445 361.669 543.837 361.268C544.229 360.864 544.708 360.561 545.275 360.361C545.842 360.156 546.468 360.054 547.154 360.054C547.627 360.054 548.098 360.109 548.567 360.22C549.035 360.331 549.464 360.514 549.851 360.77C550.239 361.021 550.55 361.364 550.785 361.799C551.023 362.234 551.143 362.777 551.143 363.429V370H548.918V368.651H548.842C548.701 368.924 548.503 369.18 548.247 369.418C547.996 369.653 547.678 369.842 547.295 369.987C546.915 370.128 546.47 370.198 545.959 370.198ZM546.56 368.498C547.024 368.498 547.427 368.406 547.768 368.223C548.109 368.036 548.371 367.788 548.554 367.482C548.741 367.175 548.835 366.84 548.835 366.478V365.321C548.763 365.381 548.639 365.436 548.464 365.487C548.294 365.538 548.102 365.583 547.889 365.621C547.676 365.66 547.465 365.694 547.256 365.724C547.048 365.754 546.866 365.779 546.713 365.8C546.368 365.847 546.059 365.924 545.786 366.031C545.513 366.137 545.298 366.286 545.141 366.478C544.983 366.665 544.904 366.908 544.904 367.207C544.904 367.633 545.06 367.955 545.371 368.172C545.682 368.389 546.078 368.498 546.56 368.498ZM552.569 370V360.182H556.692C557.856 360.182 558.774 360.414 559.447 360.879C560.125 361.343 560.464 361.991 560.464 362.822C560.464 363.371 560.272 363.821 559.888 364.17C559.509 364.516 558.991 364.748 558.335 364.867C558.851 364.91 559.302 365.04 559.69 365.257C560.082 365.474 560.389 365.76 560.611 366.114C560.832 366.467 560.943 366.874 560.943 367.335C560.943 367.876 560.8 368.347 560.515 368.747C560.233 369.143 559.822 369.452 559.281 369.674C558.744 369.891 558.092 370 557.325 370H552.569ZM554.736 368.178H557.325C557.751 368.178 558.086 368.078 558.329 367.878C558.572 367.673 558.693 367.396 558.693 367.047C558.693 366.642 558.572 366.325 558.329 366.094C558.086 365.86 557.751 365.743 557.325 365.743H554.736V368.178ZM554.736 364.247H556.737C557.052 364.247 557.323 364.202 557.549 364.113C557.775 364.019 557.947 363.889 558.067 363.723C558.186 363.553 558.246 363.35 558.246 363.116C558.246 362.779 558.107 362.515 557.83 362.323C557.557 362.131 557.178 362.036 556.692 362.036H554.736V364.247ZM564.183 366.868L568.115 360.182H570.492V370H568.255V363.308L564.337 370H561.953V360.182H564.183V366.868ZM570.869 362.08V360.182H579.46V362.08H576.283V370H574.046V362.08H570.869ZM581.969 363.378H584.864C586.117 363.378 587.087 363.683 587.773 364.292C588.459 364.901 588.804 365.7 588.808 366.689C588.804 367.332 588.646 367.903 588.335 368.402C588.028 368.901 587.581 369.293 586.993 369.578C586.409 369.859 585.699 370 584.864 370H580.403V360.182H582.633V368.102H584.864C585.367 368.102 585.78 367.974 586.104 367.718C586.428 367.458 586.59 367.126 586.59 366.721C586.59 366.295 586.428 365.947 586.104 365.679C585.78 365.411 585.367 365.276 584.864 365.276H581.969V363.378ZM592.913 367.309H595.208C595.229 367.675 595.393 367.959 595.7 368.159C596.007 368.359 596.405 368.46 596.895 368.46C597.394 368.46 597.813 368.351 598.154 368.134C598.499 367.912 598.672 367.577 598.672 367.13C598.672 366.866 598.606 366.634 598.474 366.433C598.342 366.229 598.156 366.071 597.918 365.96C597.679 365.849 597.398 365.794 597.074 365.794H595.572V364.151H597.074C597.556 364.151 597.92 364.04 598.167 363.819C598.418 363.597 598.544 363.318 598.544 362.982C598.544 362.619 598.412 362.325 598.148 362.099C597.888 361.874 597.528 361.761 597.068 361.761C596.607 361.761 596.224 361.865 595.917 362.074C595.614 362.283 595.457 362.551 595.444 362.879H593.162C593.171 362.308 593.341 361.812 593.673 361.39C594.01 360.968 594.462 360.64 595.029 360.406C595.6 360.171 596.243 360.054 596.959 360.054C597.726 360.054 598.389 360.169 598.947 360.399C599.505 360.629 599.936 360.951 600.238 361.364C600.541 361.773 600.692 362.255 600.692 362.809C600.692 363.342 600.526 363.783 600.193 364.132C599.861 364.477 599.413 364.724 598.851 364.874V364.976C599.239 364.997 599.588 365.108 599.899 365.308C600.21 365.504 600.458 365.771 600.641 366.107C600.824 366.444 600.916 366.834 600.916 367.277C600.916 367.878 600.743 368.398 600.398 368.837C600.053 369.271 599.578 369.606 598.972 369.84C598.372 370.075 597.683 370.192 596.908 370.192C596.154 370.192 595.478 370.079 594.882 369.853C594.289 369.623 593.818 369.293 593.469 368.862C593.119 368.432 592.934 367.914 592.913 367.309ZM604.663 370.198C604.04 370.198 603.48 370.087 602.982 369.866C602.487 369.64 602.095 369.308 601.805 368.869C601.52 368.43 601.377 367.888 601.377 367.245C601.377 366.691 601.479 366.233 601.684 365.871C601.888 365.509 602.168 365.219 602.521 365.001C602.875 364.784 603.273 364.62 603.717 364.509C604.164 364.394 604.626 364.311 605.104 364.26C605.679 364.2 606.146 364.147 606.504 364.1C606.862 364.049 607.121 363.972 607.283 363.87C607.45 363.763 607.533 363.599 607.533 363.378V363.339C607.533 362.858 607.39 362.485 607.104 362.221C606.819 361.957 606.408 361.825 605.871 361.825C605.304 361.825 604.854 361.948 604.522 362.195C604.194 362.442 603.972 362.734 603.857 363.071L601.697 362.764C601.867 362.168 602.148 361.669 602.54 361.268C602.933 360.864 603.412 360.561 603.979 360.361C604.545 360.156 605.172 360.054 605.858 360.054C606.331 360.054 606.802 360.109 607.271 360.22C607.739 360.331 608.168 360.514 608.555 360.77C608.943 361.021 609.254 361.364 609.489 361.799C609.727 362.234 609.847 362.777 609.847 363.429V370H607.622V368.651H607.545C607.405 368.924 607.207 369.18 606.951 369.418C606.7 369.653 606.382 369.842 605.999 369.987C605.619 370.128 605.174 370.198 604.663 370.198ZM605.263 368.498C605.728 368.498 606.131 368.406 606.472 368.223C606.813 368.036 607.075 367.788 607.258 367.482C607.445 367.175 607.539 366.84 607.539 366.478V365.321C607.467 365.381 607.343 365.436 607.168 365.487C606.998 365.538 606.806 365.583 606.593 365.621C606.38 365.66 606.169 365.694 605.96 365.724C605.751 365.754 605.57 365.779 605.417 365.8C605.072 365.847 604.763 365.924 604.49 366.031C604.217 366.137 604.002 366.286 603.844 366.478C603.687 366.665 603.608 366.908 603.608 367.207C603.608 367.633 603.763 367.955 604.075 368.172C604.386 368.389 604.782 368.498 605.263 368.498ZM617.077 370V362.061H614.981C614.448 362.061 614.039 362.185 613.753 362.432C613.468 362.679 613.327 362.986 613.332 363.352C613.327 363.719 613.462 364.021 613.734 364.26C614.007 364.499 614.397 364.618 614.904 364.618H617.806V366.305H614.904C614.12 366.305 613.442 366.182 612.871 365.935C612.3 365.687 611.861 365.338 611.555 364.886C611.248 364.435 611.094 363.906 611.094 363.301C611.094 362.67 611.25 362.123 611.561 361.658C611.876 361.19 612.324 360.827 612.903 360.572C613.487 360.312 614.18 360.182 614.981 360.182H619.244V370H617.077ZM610.736 370L613.479 364.963H615.761L613.012 370H610.736ZM620.674 370V360.182H624.797C625.96 360.182 626.879 360.414 627.552 360.879C628.229 361.343 628.568 361.991 628.568 362.822C628.568 363.371 628.376 363.821 627.993 364.17C627.614 364.516 627.096 364.748 626.44 364.867C626.955 364.91 627.407 365.04 627.795 365.257C628.187 365.474 628.494 365.76 628.715 366.114C628.937 366.467 629.048 366.874 629.048 367.335C629.048 367.876 628.905 368.347 628.619 368.747C628.338 369.143 627.927 369.452 627.386 369.674C626.849 369.891 626.197 370 625.43 370H620.674ZM622.841 368.178H625.43C625.856 368.178 626.19 368.078 626.433 367.878C626.676 367.673 626.798 367.396 626.798 367.047C626.798 366.642 626.676 366.325 626.433 366.094C626.19 365.86 625.856 365.743 625.43 365.743H622.841V368.178ZM622.841 364.247H624.842C625.157 364.247 625.428 364.202 625.653 364.113C625.879 364.019 626.052 363.889 626.171 363.723C626.291 363.553 626.35 363.35 626.35 363.116C626.35 362.779 626.212 362.515 625.935 362.323C625.662 362.131 625.283 362.036 624.797 362.036H622.841V364.247ZM630.057 370V360.182H632.371V364.145H633.215L636.168 360.182H638.955L635.318 365.001L638.993 370H636.194L633.503 366.299H632.371V370H630.057ZM640.949 373.682C640.634 373.682 640.342 373.656 640.073 373.605C639.809 373.558 639.598 373.503 639.44 373.439L639.977 371.636C640.314 371.734 640.614 371.781 640.879 371.777C641.143 371.773 641.375 371.69 641.575 371.528C641.78 371.37 641.953 371.106 642.093 370.735L642.291 370.205L638.731 360.182H641.186L643.448 367.597H643.551L645.82 360.182H648.281L644.35 371.189C644.166 371.709 643.923 372.154 643.621 372.525C643.318 372.9 642.948 373.185 642.509 373.381C642.074 373.582 641.554 373.682 640.949 373.682Z" fill="white"/>
<path d="M466.717 427V419.727H468.035V422.806H471.405V419.727H472.726V427H471.405V423.911H468.035V427H466.717ZM475.172 427.11C474.826 427.11 474.515 427.049 474.238 426.925C473.963 426.8 473.745 426.615 473.584 426.371C473.426 426.128 473.346 425.827 473.346 425.469C473.346 425.162 473.403 424.907 473.517 424.706C473.63 424.505 473.785 424.344 473.982 424.223C474.178 424.102 474.4 424.011 474.646 423.95C474.895 423.886 475.151 423.839 475.417 423.811C475.736 423.778 475.995 423.748 476.194 423.722C476.393 423.694 476.538 423.651 476.627 423.594C476.72 423.535 476.766 423.444 476.766 423.321V423.3C476.766 423.032 476.687 422.825 476.528 422.678C476.369 422.531 476.141 422.458 475.843 422.458C475.528 422.458 475.278 422.527 475.093 422.664C474.911 422.801 474.788 422.964 474.724 423.151L473.524 422.98C473.618 422.649 473.775 422.372 473.993 422.149C474.21 421.924 474.477 421.756 474.792 421.645C475.106 421.531 475.454 421.474 475.836 421.474C476.098 421.474 476.36 421.505 476.62 421.567C476.881 421.628 477.119 421.73 477.334 421.872C477.55 422.012 477.722 422.202 477.853 422.444C477.985 422.685 478.051 422.987 478.051 423.349V427H476.816V426.251H476.773C476.695 426.402 476.585 426.544 476.443 426.677C476.303 426.807 476.127 426.912 475.914 426.993C475.703 427.071 475.456 427.11 475.172 427.11ZM475.505 426.165C475.763 426.165 475.987 426.115 476.176 426.013C476.366 425.909 476.511 425.771 476.613 425.601C476.717 425.43 476.77 425.245 476.77 425.043V424.401C476.729 424.434 476.661 424.464 476.564 424.493C476.469 424.521 476.362 424.546 476.244 424.567C476.126 424.589 476.008 424.608 475.892 424.624C475.776 424.641 475.676 424.655 475.591 424.667C475.399 424.693 475.227 424.736 475.076 424.795C474.924 424.854 474.805 424.937 474.717 425.043C474.629 425.147 474.586 425.282 474.586 425.448C474.586 425.685 474.672 425.864 474.845 425.984C475.018 426.105 475.238 426.165 475.505 426.165ZM478.489 427L480.502 424.184L478.507 421.545H479.991L481.543 423.744H481.848V421.545H483.134V423.744H483.432L484.984 421.545H486.468L484.483 424.184L486.486 427H484.97L483.418 424.798H483.134V427H481.848V424.798H481.564L480.005 427H478.489ZM488.187 425.26L490.371 421.545H491.692V427H490.449V423.282L488.272 427H486.948V421.545H488.187V425.26ZM495.651 425.505L497.271 421.545H498.308L496.102 427H495.204L493.048 421.545H494.075L495.651 425.505ZM493.751 421.545V427H492.512V421.545H493.751ZM497.604 427V421.545H498.833V427H497.604ZM501.199 427.11C500.853 427.11 500.542 427.049 500.265 426.925C499.99 426.8 499.772 426.615 499.612 426.371C499.453 426.128 499.374 425.827 499.374 425.469C499.374 425.162 499.43 424.907 499.544 424.706C499.658 424.505 499.813 424.344 500.009 424.223C500.206 424.102 500.427 424.011 500.673 423.95C500.922 423.886 501.179 423.839 501.444 423.811C501.763 423.778 502.023 423.748 502.222 423.722C502.42 423.694 502.565 423.651 502.655 423.594C502.747 423.535 502.793 423.444 502.793 423.321V423.3C502.793 423.032 502.714 422.825 502.555 422.678C502.397 422.531 502.168 422.458 501.87 422.458C501.555 422.458 501.305 422.527 501.121 422.664C500.938 422.801 500.815 422.964 500.751 423.151L499.551 422.98C499.646 422.649 499.802 422.372 500.02 422.149C500.238 421.924 500.504 421.756 500.819 421.645C501.134 421.531 501.482 421.474 501.863 421.474C502.126 421.474 502.387 421.505 502.648 421.567C502.908 421.628 503.146 421.73 503.362 421.872C503.577 422.012 503.75 422.202 503.88 422.444C504.013 422.685 504.079 422.987 504.079 423.349V427H502.843V426.251H502.8C502.722 426.402 502.612 426.544 502.47 426.677C502.33 426.807 502.154 426.912 501.941 426.993C501.73 427.071 501.483 427.11 501.199 427.11ZM501.533 426.165C501.791 426.165 502.014 426.115 502.204 426.013C502.393 425.909 502.539 425.771 502.641 425.601C502.745 425.43 502.797 425.245 502.797 425.043V424.401C502.757 424.434 502.688 424.464 502.591 424.493C502.496 424.521 502.39 424.546 502.271 424.567C502.153 424.589 502.036 424.608 501.92 424.624C501.804 424.641 501.703 424.655 501.618 424.667C501.426 424.693 501.254 424.736 501.103 424.795C500.951 424.854 500.832 424.937 500.744 425.043C500.657 425.147 500.613 425.282 500.613 425.448C500.613 425.685 500.699 425.864 500.872 425.984C501.045 426.105 501.265 426.165 501.533 426.165ZM508.096 427V422.589H506.931C506.635 422.589 506.408 422.658 506.249 422.795C506.091 422.933 506.013 423.103 506.015 423.307C506.013 423.51 506.087 423.679 506.239 423.811C506.39 423.944 506.607 424.01 506.888 424.01H508.501V424.947H506.888C506.453 424.947 506.076 424.879 505.759 424.741C505.442 424.604 505.198 424.41 505.028 424.159C504.857 423.908 504.772 423.615 504.772 423.278C504.772 422.928 504.858 422.624 505.031 422.366C505.206 422.105 505.455 421.904 505.777 421.762C506.101 421.618 506.486 421.545 506.931 421.545H509.3V427H508.096ZM504.573 427L506.097 424.202H507.364L505.837 427H504.573ZM515.821 423.74V424.795H512.916V423.74H515.821ZM513.314 421.545V427H512.075V421.545H513.314ZM516.663 421.545V427H515.427V421.545H516.663ZM519.033 427.11C518.687 427.11 518.376 427.049 518.099 426.925C517.824 426.8 517.606 426.615 517.445 426.371C517.287 426.128 517.208 425.827 517.208 425.469C517.208 425.162 517.264 424.907 517.378 424.706C517.492 424.505 517.647 424.344 517.843 424.223C518.04 424.102 518.261 424.011 518.507 423.95C518.756 423.886 519.013 423.839 519.278 423.811C519.597 423.778 519.857 423.748 520.056 423.722C520.254 423.694 520.399 423.651 520.489 423.594C520.581 423.535 520.627 423.444 520.627 423.321V423.3C520.627 423.032 520.548 422.825 520.389 422.678C520.231 422.531 520.002 422.458 519.704 422.458C519.389 422.458 519.139 422.527 518.955 422.664C518.772 422.801 518.649 422.964 518.585 423.151L517.385 422.98C517.48 422.649 517.636 422.372 517.854 422.149C518.072 421.924 518.338 421.756 518.653 421.645C518.968 421.531 519.316 421.474 519.697 421.474C519.96 421.474 520.221 421.505 520.482 421.567C520.742 421.628 520.98 421.73 521.195 421.872C521.411 422.012 521.584 422.202 521.714 422.444C521.847 422.685 521.913 422.987 521.913 423.349V427H520.677V426.251H520.634C520.556 426.402 520.446 426.544 520.304 426.677C520.164 426.807 519.988 426.912 519.775 426.993C519.564 427.071 519.317 427.11 519.033 427.11ZM519.367 426.165C519.625 426.165 519.848 426.115 520.038 426.013C520.227 425.909 520.373 425.771 520.475 425.601C520.579 425.43 520.631 425.245 520.631 425.043V424.401C520.591 424.434 520.522 424.464 520.425 424.493C520.33 424.521 520.224 424.546 520.105 424.567C519.987 424.589 519.87 424.608 519.754 424.624C519.638 424.641 519.537 424.655 519.452 424.667C519.26 424.693 519.088 424.736 518.937 424.795C518.785 424.854 518.666 424.937 518.578 425.043C518.491 425.147 518.447 425.282 518.447 425.448C518.447 425.685 518.533 425.864 518.706 425.984C518.879 426.105 519.099 426.165 519.367 426.165ZM524.203 428.584V425.942H524.636C524.752 425.852 524.849 425.73 524.927 425.576C525.006 425.42 525.069 425.236 525.119 425.026C525.171 424.812 525.214 424.575 525.247 424.312C525.28 424.047 525.31 423.761 525.336 423.456L525.492 421.545H529.434V425.942H530.279V428.584H529.036V427H525.467V428.584H524.203ZM525.957 425.942H528.205V422.582H526.607L526.522 423.456C526.474 424.034 526.412 424.528 526.334 424.94C526.256 425.352 526.13 425.686 525.957 425.942ZM532.308 427.11C531.963 427.11 531.651 427.049 531.374 426.925C531.1 426.8 530.882 426.615 530.721 426.371C530.562 426.128 530.483 425.827 530.483 425.469C530.483 425.162 530.54 424.907 530.653 424.706C530.767 424.505 530.922 424.344 531.119 424.223C531.315 424.102 531.536 424.011 531.783 423.95C532.031 423.886 532.288 423.839 532.553 423.811C532.873 423.778 533.132 423.748 533.331 423.722C533.53 423.694 533.674 423.651 533.764 423.594C533.857 423.535 533.903 423.444 533.903 423.321V423.3C533.903 423.032 533.823 422.825 533.665 422.678C533.506 422.531 533.278 422.458 532.979 422.458C532.665 422.458 532.415 422.527 532.23 422.664C532.048 422.801 531.925 422.964 531.861 423.151L530.661 422.98C530.755 422.649 530.911 422.372 531.129 422.149C531.347 421.924 531.613 421.756 531.928 421.645C532.243 421.531 532.591 421.474 532.972 421.474C533.235 421.474 533.497 421.505 533.757 421.567C534.018 421.628 534.255 421.73 534.471 421.872C534.686 422.012 534.859 422.202 534.989 422.444C535.122 422.685 535.188 422.987 535.188 423.349V427H533.952V426.251H533.91C533.832 426.402 533.722 426.544 533.58 426.677C533.44 426.807 533.263 426.912 533.05 426.993C532.84 427.071 532.592 427.11 532.308 427.11ZM532.642 426.165C532.9 426.165 533.124 426.115 533.313 426.013C533.503 425.909 533.648 425.771 533.75 425.601C533.854 425.43 533.906 425.245 533.906 425.043V424.401C533.866 424.434 533.797 424.464 533.7 424.493C533.606 424.521 533.499 424.546 533.381 424.567C533.262 424.589 533.145 424.608 533.029 424.624C532.913 424.641 532.813 424.655 532.727 424.667C532.536 424.693 532.364 424.736 532.212 424.795C532.061 424.854 531.941 424.937 531.854 425.043C531.766 425.147 531.722 425.282 531.722 425.448C531.722 425.685 531.809 425.864 531.982 425.984C532.154 426.105 532.375 426.165 532.642 426.165ZM539.727 423.74V424.795H536.822V423.74H539.727ZM537.22 421.545V427H535.981V421.545H537.22ZM540.569 421.545V427H539.333V421.545H540.569ZM545.116 423.74V424.795H542.211V423.74H545.116ZM542.609 421.545V427H541.369V421.545H542.609ZM545.958 421.545V427H544.722V421.545H545.958ZM547.362 429.045C547.187 429.045 547.025 429.031 546.875 429.003C546.729 428.977 546.611 428.946 546.524 428.911L546.822 427.909C547.009 427.964 547.176 427.99 547.323 427.987C547.47 427.985 547.599 427.939 547.71 427.849C547.824 427.761 547.919 427.614 547.998 427.408L548.108 427.114L546.13 421.545H547.493L548.75 425.665H548.807L550.068 421.545H551.435L549.251 427.661C549.149 427.949 549.014 428.197 548.846 428.403C548.678 428.611 548.472 428.77 548.228 428.879C547.987 428.99 547.698 429.045 547.362 429.045ZM554.705 423.779V424.837H551.768V423.779H554.705ZM552.787 421.545V427H551.498V421.545H552.787ZM556.352 427.107C555.827 427.107 555.371 426.987 554.985 426.748C554.602 426.509 554.304 426.177 554.094 425.754C553.883 425.33 553.778 424.84 553.778 424.283C553.778 423.727 553.883 423.238 554.094 422.817C554.304 422.395 554.602 422.066 554.985 421.83C555.371 421.593 555.827 421.474 556.352 421.474C556.875 421.474 557.329 421.593 557.712 421.83C558.098 422.066 558.397 422.395 558.607 422.817C558.82 423.238 558.927 423.727 558.927 424.283C558.927 424.84 558.82 425.33 558.607 425.754C558.397 426.177 558.098 426.509 557.712 426.748C557.329 426.987 556.875 427.107 556.352 427.107ZM556.352 426.041C556.662 426.041 556.916 425.963 557.112 425.807C557.309 425.651 557.453 425.44 557.545 425.175C557.638 424.91 557.684 424.612 557.684 424.283C557.684 423.954 557.638 423.657 557.545 423.392C557.453 423.127 557.309 422.917 557.112 422.763C556.916 422.607 556.662 422.529 556.352 422.529C556.04 422.529 555.784 422.607 555.585 422.763C555.389 422.917 555.244 423.127 555.152 423.392C555.06 423.657 555.013 423.954 555.013 424.283C555.013 424.615 555.06 424.913 555.152 425.178C555.244 425.443 555.389 425.654 555.585 425.81C555.784 425.964 556.04 426.041 556.352 426.041ZM561.547 427V421.545H562.833V423.747H563.301L564.942 421.545H566.49L564.47 424.223L566.512 427H564.956L563.461 424.944H562.833V427H561.547ZM570.487 423.74V424.795H567.582V423.74H570.487ZM567.98 421.545V427H566.741V421.545H567.98ZM571.329 421.545V427H570.093V421.545H571.329ZM574.509 427.107C573.976 427.107 573.514 426.989 573.124 426.755C572.733 426.521 572.43 426.193 572.214 425.771C572.001 425.35 571.895 424.857 571.895 424.294C571.895 423.731 572.001 423.237 572.214 422.813C572.43 422.389 572.733 422.06 573.124 421.826C573.514 421.592 573.976 421.474 574.509 421.474C575.041 421.474 575.503 421.592 575.893 421.826C576.284 422.06 576.586 422.389 576.799 422.813C577.014 423.237 577.122 423.731 577.122 424.294C577.122 424.857 577.014 425.35 576.799 425.771C576.586 426.193 576.284 426.521 575.893 426.755C575.503 426.989 575.041 427.107 574.509 427.107ZM574.516 426.077C574.804 426.077 575.046 425.997 575.24 425.839C575.434 425.678 575.579 425.462 575.673 425.192C575.77 424.923 575.819 424.622 575.819 424.29C575.819 423.957 575.77 423.655 575.673 423.385C575.579 423.113 575.434 422.896 575.24 422.735C575.046 422.574 574.804 422.494 574.516 422.494C574.22 422.494 573.973 422.574 573.777 422.735C573.583 422.896 573.437 423.113 573.34 423.385C573.246 423.655 573.198 423.957 573.198 424.29C573.198 424.622 573.246 424.923 573.34 425.192C573.437 425.462 573.583 425.678 573.777 425.839C573.973 425.997 574.22 426.077 574.516 426.077ZM577.713 427V421.545H582.319V427H581.08V422.6H578.942V427H577.713ZM583.141 427V421.545H584.426V423.747H584.895L586.536 421.545H588.084L586.064 424.223L588.105 427H586.55L585.055 424.944H584.426V427H583.141ZM589.192 429.045C589.017 429.045 588.855 429.031 588.705 429.003C588.559 428.977 588.441 428.946 588.354 428.911L588.652 427.909C588.839 427.964 589.006 427.99 589.153 427.987C589.3 427.985 589.429 427.939 589.54 427.849C589.654 427.761 589.749 427.614 589.828 427.408L589.938 427.114L587.96 421.545H589.323L590.58 425.665H590.637L591.898 421.545H593.265L591.081 427.661C590.979 427.949 590.844 428.197 590.676 428.403C590.508 428.611 590.302 428.77 590.058 428.879C589.817 428.99 589.528 429.045 589.192 429.045ZM595.635 427V421.545H597.926C598.572 421.545 599.082 421.674 599.456 421.933C599.833 422.191 600.021 422.55 600.021 423.012C600.021 423.317 599.914 423.567 599.701 423.761C599.49 423.953 599.203 424.082 598.838 424.148C599.125 424.172 599.376 424.244 599.591 424.365C599.809 424.486 599.979 424.644 600.102 424.841C600.226 425.037 600.287 425.263 600.287 425.519C600.287 425.82 600.208 426.081 600.049 426.304C599.893 426.524 599.664 426.696 599.364 426.819C599.066 426.94 598.703 427 598.277 427H595.635ZM596.839 425.988H598.277C598.514 425.988 598.7 425.932 598.835 425.821C598.97 425.707 599.037 425.554 599.037 425.359C599.037 425.134 598.97 424.958 598.835 424.83C598.7 424.7 598.514 424.635 598.277 424.635H596.839V425.988ZM596.839 423.804H597.95C598.126 423.804 598.276 423.779 598.401 423.729C598.527 423.677 598.623 423.605 598.689 423.513C598.755 423.418 598.789 423.306 598.789 423.175C598.789 422.988 598.712 422.842 598.558 422.735C598.406 422.629 598.195 422.575 597.926 422.575H596.839V423.804ZM601.718 423.321H603.327C604.023 423.321 604.561 423.49 604.942 423.829C605.324 424.167 605.515 424.611 605.518 425.161C605.515 425.518 605.428 425.835 605.255 426.112C605.085 426.389 604.836 426.607 604.509 426.766C604.185 426.922 603.791 427 603.327 427H600.848V421.545H602.087V425.945H603.327C603.606 425.945 603.836 425.874 604.016 425.732C604.196 425.588 604.286 425.403 604.286 425.178C604.286 424.942 604.196 424.749 604.016 424.599C603.836 424.45 603.606 424.376 603.327 424.376H601.718V423.321ZM606.196 427V421.545H607.482V427H606.196ZM612.667 427.107C612.122 427.107 611.655 426.987 611.264 426.748C610.876 426.509 610.576 426.179 610.366 425.757C610.157 425.333 610.053 424.846 610.053 424.294C610.053 423.74 610.16 423.251 610.373 422.827C610.586 422.401 610.886 422.07 611.275 421.833C611.665 421.594 612.127 421.474 612.66 421.474C613.102 421.474 613.494 421.556 613.835 421.719C614.178 421.88 614.452 422.109 614.655 422.405C614.859 422.698 614.975 423.042 615.003 423.435H613.775C613.725 423.172 613.607 422.953 613.42 422.778C613.235 422.6 612.988 422.511 612.677 422.511C612.415 422.511 612.184 422.582 611.985 422.724C611.786 422.864 611.631 423.065 611.52 423.328C611.411 423.591 611.356 423.906 611.356 424.273C611.356 424.644 611.411 424.964 611.52 425.232C611.629 425.497 611.781 425.701 611.978 425.846C612.177 425.988 612.41 426.059 612.677 426.059C612.867 426.059 613.036 426.023 613.185 425.952C613.337 425.879 613.463 425.774 613.565 425.636C613.667 425.499 613.737 425.332 613.775 425.136H615.003C614.973 425.522 614.859 425.864 614.662 426.162C614.466 426.458 614.198 426.69 613.86 426.858C613.521 427.024 613.124 427.107 612.667 427.107ZM617.938 427.107C617.406 427.107 616.944 426.989 616.553 426.755C616.163 426.521 615.86 426.193 615.644 425.771C615.431 425.35 615.325 424.857 615.325 424.294C615.325 423.731 615.431 423.237 615.644 422.813C615.86 422.389 616.163 422.06 616.553 421.826C616.944 421.592 617.406 421.474 617.938 421.474C618.471 421.474 618.933 421.592 619.323 421.826C619.714 422.06 620.016 422.389 620.229 422.813C620.444 423.237 620.552 423.731 620.552 424.294C620.552 424.857 620.444 425.35 620.229 425.771C620.016 426.193 619.714 426.521 619.323 426.755C618.933 426.989 618.471 427.107 617.938 427.107ZM617.945 426.077C618.234 426.077 618.476 425.997 618.67 425.839C618.864 425.678 619.008 425.462 619.103 425.192C619.2 424.923 619.249 424.622 619.249 424.29C619.249 423.957 619.2 423.655 619.103 423.385C619.008 423.113 618.864 422.896 618.67 422.735C618.476 422.574 618.234 422.494 617.945 422.494C617.649 422.494 617.403 422.574 617.207 422.735C617.013 422.896 616.867 423.113 616.77 423.385C616.675 423.655 616.628 423.957 616.628 424.29C616.628 424.622 616.675 424.923 616.77 425.192C616.867 425.462 617.013 425.678 617.207 425.839C617.403 425.997 617.649 426.077 617.945 426.077ZM624.751 421.545V422.6H622.4V427H621.143V421.545H624.751ZM624.456 427L624.449 425.942H624.637C624.779 425.942 624.899 425.91 624.996 425.846C625.093 425.782 625.173 425.675 625.237 425.526C625.301 425.375 625.351 425.171 625.386 424.915C625.422 424.66 625.447 424.341 625.461 423.96L625.557 421.545H629.534V427H628.291V422.6H626.725L626.64 424.358C626.619 424.812 626.568 425.207 626.487 425.54C626.409 425.872 626.298 426.145 626.153 426.361C626.011 426.576 625.833 426.737 625.617 426.844C625.402 426.948 625.147 427 624.854 427H624.456ZM631.898 427.11C631.552 427.11 631.241 427.049 630.964 426.925C630.69 426.8 630.472 426.615 630.311 426.371C630.152 426.128 630.073 425.827 630.073 425.469C630.073 425.162 630.13 424.907 630.243 424.706C630.357 424.505 630.512 424.344 630.708 424.223C630.905 424.102 631.126 424.011 631.373 423.95C631.621 423.886 631.878 423.839 632.143 423.811C632.463 423.778 632.722 423.748 632.921 423.722C633.12 423.694 633.264 423.651 633.354 423.594C633.446 423.535 633.493 423.444 633.493 423.321V423.3C633.493 423.032 633.413 422.825 633.255 422.678C633.096 422.531 632.868 422.458 632.569 422.458C632.254 422.458 632.005 422.527 631.82 422.664C631.638 422.801 631.515 422.964 631.451 423.151L630.25 422.98C630.345 422.649 630.501 422.372 630.719 422.149C630.937 421.924 631.203 421.756 631.518 421.645C631.833 421.531 632.181 421.474 632.562 421.474C632.825 421.474 633.087 421.505 633.347 421.567C633.607 421.628 633.845 421.73 634.061 421.872C634.276 422.012 634.449 422.202 634.579 422.444C634.712 422.685 634.778 422.987 634.778 423.349V427H633.542V426.251H633.5C633.422 426.402 633.311 426.544 633.169 426.677C633.03 426.807 632.853 426.912 632.64 426.993C632.43 427.071 632.182 427.11 631.898 427.11ZM632.232 426.165C632.49 426.165 632.714 426.115 632.903 426.013C633.092 425.909 633.238 425.771 633.34 425.601C633.444 425.43 633.496 425.245 633.496 425.043V424.401C633.456 424.434 633.387 424.464 633.29 424.493C633.195 424.521 633.089 424.546 632.971 424.567C632.852 424.589 632.735 424.608 632.619 424.624C632.503 424.641 632.402 424.655 632.317 424.667C632.125 424.693 631.954 424.736 631.802 424.795C631.651 424.854 631.531 424.937 631.444 425.043C631.356 425.147 631.312 425.282 631.312 425.448C631.312 425.685 631.399 425.864 631.571 425.984C631.744 426.105 631.964 426.165 632.232 426.165ZM635.571 421.545H636.81V425.942H638.525V421.545H639.765V425.942H641.48V421.545H642.719V427H635.571V421.545ZM645.088 427.11C644.742 427.11 644.431 427.049 644.154 426.925C643.879 426.8 643.661 426.615 643.5 426.371C643.342 426.128 643.262 425.827 643.262 425.469C643.262 425.162 643.319 424.907 643.433 424.706C643.546 424.505 643.701 424.344 643.898 424.223C644.094 424.102 644.316 424.011 644.562 423.95C644.811 423.886 645.067 423.839 645.333 423.811C645.652 423.778 645.911 423.748 646.11 423.722C646.309 423.694 646.454 423.651 646.544 423.594C646.636 423.535 646.682 423.444 646.682 423.321V423.3C646.682 423.032 646.603 422.825 646.444 422.678C646.285 422.531 646.057 422.458 645.759 422.458C645.444 422.458 645.194 422.527 645.009 422.664C644.827 422.801 644.704 422.964 644.64 423.151L643.44 422.98C643.535 422.649 643.691 422.372 643.909 422.149C644.126 421.924 644.393 421.756 644.708 421.645C645.022 421.531 645.37 421.474 645.752 421.474C646.014 421.474 646.276 421.505 646.536 421.567C646.797 421.628 647.035 421.73 647.25 421.872C647.466 422.012 647.638 422.202 647.769 422.444C647.901 422.685 647.968 422.987 647.968 423.349V427H646.732V426.251H646.689C646.611 426.402 646.501 426.544 646.359 426.677C646.219 426.807 646.043 426.912 645.83 426.993C645.619 427.071 645.372 427.11 645.088 427.11ZM645.421 426.165C645.679 426.165 645.903 426.115 646.093 426.013C646.282 425.909 646.427 425.771 646.529 425.601C646.633 425.43 646.686 425.245 646.686 425.043V424.401C646.645 424.434 646.577 424.464 646.48 424.493C646.385 424.521 646.278 424.546 646.16 424.567C646.042 424.589 645.924 424.608 645.808 424.624C645.692 424.641 645.592 424.655 645.507 424.667C645.315 424.693 645.143 424.736 644.992 424.795C644.84 424.854 644.721 424.937 644.633 425.043C644.545 425.147 644.502 425.282 644.502 425.448C644.502 425.685 644.588 425.864 644.761 425.984C644.934 426.105 645.154 426.165 645.421 426.165ZM651.175 427.107C650.628 427.107 650.156 426.993 649.758 426.766C649.363 426.536 649.058 426.212 648.845 425.793C648.632 425.371 648.526 424.875 648.526 424.305C648.526 423.744 648.632 423.251 648.845 422.827C649.061 422.401 649.361 422.07 649.747 421.833C650.133 421.594 650.587 421.474 651.107 421.474C651.444 421.474 651.761 421.529 652.059 421.638C652.36 421.744 652.625 421.91 652.855 422.135C653.087 422.36 653.269 422.646 653.401 422.994C653.534 423.34 653.6 423.752 653.6 424.23V424.624H649.129V423.758H652.368C652.366 423.512 652.312 423.293 652.208 423.101C652.104 422.907 651.959 422.754 651.771 422.643C651.587 422.531 651.371 422.476 651.125 422.476C650.862 422.476 650.632 422.54 650.433 422.668C650.234 422.793 650.079 422.959 649.968 423.165C649.859 423.368 649.803 423.592 649.801 423.836V424.592C649.801 424.91 649.859 425.182 649.975 425.409C650.091 425.634 650.253 425.807 650.461 425.928C650.669 426.046 650.913 426.105 651.193 426.105C651.38 426.105 651.549 426.079 651.7 426.027C651.852 425.973 651.983 425.893 652.095 425.789C652.206 425.685 652.29 425.556 652.347 425.402L653.547 425.537C653.471 425.854 653.327 426.131 653.114 426.368C652.903 426.602 652.633 426.785 652.304 426.915C651.975 427.043 651.599 427.107 651.175 427.107ZM653.733 422.6V421.545H658.506V422.6H656.741V427H655.498V422.6H653.733ZM661.22 427.107C660.673 427.107 660.201 426.993 659.803 426.766C659.408 426.536 659.103 426.212 658.89 425.793C658.677 425.371 658.571 424.875 658.571 424.305C658.571 423.744 658.677 423.251 658.89 422.827C659.106 422.401 659.406 422.07 659.792 421.833C660.178 421.594 660.632 421.474 661.152 421.474C661.489 421.474 661.806 421.529 662.104 421.638C662.405 421.744 662.67 421.91 662.9 422.135C663.132 422.36 663.314 422.646 663.446 422.994C663.579 423.34 663.645 423.752 663.645 424.23V424.624H659.174V423.758H662.413C662.411 423.512 662.357 423.293 662.253 423.101C662.149 422.907 662.003 422.754 661.816 422.643C661.632 422.531 661.416 422.476 661.17 422.476C660.907 422.476 660.676 422.54 660.478 422.668C660.279 422.793 660.124 422.959 660.012 423.165C659.904 423.368 659.848 423.592 659.846 423.836V424.592C659.846 424.91 659.904 425.182 660.02 425.409C660.136 425.634 660.298 425.807 660.506 425.928C660.714 426.046 660.958 426.105 661.238 426.105C661.425 426.105 661.594 426.079 661.745 426.027C661.897 425.973 662.028 425.893 662.14 425.789C662.251 425.685 662.335 425.556 662.392 425.402L663.592 425.537C663.516 425.854 663.372 426.131 663.159 426.368C662.948 426.602 662.678 426.785 662.349 426.915C662.02 427.043 661.644 427.107 661.22 427.107ZM666.612 427.107C666.068 427.107 665.6 426.987 665.209 426.748C664.821 426.509 664.522 426.179 664.311 425.757C664.103 425.333 663.998 424.846 663.998 424.294C663.998 423.74 664.105 423.251 664.318 422.827C664.531 422.401 664.832 422.07 665.22 421.833C665.611 421.594 666.072 421.474 666.605 421.474C667.048 421.474 667.439 421.556 667.78 421.719C668.124 421.88 668.397 422.109 668.601 422.405C668.804 422.698 668.92 423.042 668.949 423.435H667.72C667.67 423.172 667.552 422.953 667.365 422.778C667.18 422.6 666.933 422.511 666.623 422.511C666.36 422.511 666.129 422.582 665.93 422.724C665.731 422.864 665.576 423.065 665.465 423.328C665.356 423.591 665.302 423.906 665.302 424.273C665.302 424.644 665.356 424.964 665.465 425.232C665.574 425.497 665.727 425.701 665.923 425.846C666.122 425.988 666.355 426.059 666.623 426.059C666.812 426.059 666.981 426.023 667.131 425.952C667.282 425.879 667.409 425.774 667.51 425.636C667.612 425.499 667.682 425.332 667.72 425.136H668.949C668.918 425.522 668.804 425.864 668.608 426.162C668.411 426.458 668.144 426.69 667.805 426.858C667.467 427.024 667.069 427.107 666.612 427.107ZM670.374 423.321H671.983C672.679 423.321 673.218 423.49 673.599 423.829C673.98 424.167 674.172 424.611 674.174 425.161C674.172 425.518 674.084 425.835 673.911 426.112C673.741 426.389 673.492 426.607 673.165 426.766C672.841 426.922 672.447 427 671.983 427H669.504V421.545H670.744V425.945H671.983C672.262 425.945 672.492 425.874 672.672 425.732C672.852 425.588 672.942 425.403 672.942 425.178C672.942 424.942 672.852 424.749 672.672 424.599C672.492 424.45 672.262 424.376 671.983 424.376H670.374V423.321ZM469.04 445.107C468.495 445.107 468.028 444.987 467.637 444.748C467.249 444.509 466.949 444.179 466.739 443.757C466.53 443.333 466.426 442.846 466.426 442.294C466.426 441.74 466.533 441.251 466.746 440.827C466.959 440.401 467.259 440.07 467.648 439.833C468.038 439.594 468.5 439.474 469.033 439.474C469.475 439.474 469.867 439.556 470.208 439.719C470.551 439.88 470.825 440.109 471.028 440.405C471.232 440.698 471.348 441.042 471.376 441.435H470.148C470.098 441.172 469.98 440.953 469.793 440.778C469.608 440.6 469.361 440.511 469.05 440.511C468.788 440.511 468.557 440.582 468.358 440.724C468.159 440.864 468.004 441.065 467.893 441.328C467.784 441.591 467.729 441.906 467.729 442.273C467.729 442.644 467.784 442.964 467.893 443.232C468.002 443.497 468.154 443.701 468.351 443.846C468.55 443.988 468.783 444.059 469.05 444.059C469.24 444.059 469.409 444.023 469.558 443.952C469.71 443.879 469.836 443.774 469.938 443.636C470.04 443.499 470.11 443.332 470.148 443.136H471.376C471.346 443.522 471.232 443.864 471.036 444.162C470.839 444.458 470.571 444.69 470.233 444.858C469.894 445.024 469.497 445.107 469.04 445.107ZM473.912 445V439.545H478.518V445H477.279V440.6H475.141V445H473.912ZM481.719 445.107C481.187 445.107 480.725 444.989 480.335 444.755C479.944 444.521 479.641 444.193 479.425 443.771C479.212 443.35 479.106 442.857 479.106 442.294C479.106 441.731 479.212 441.237 479.425 440.813C479.641 440.389 479.944 440.06 480.335 439.826C480.725 439.592 481.187 439.474 481.719 439.474C482.252 439.474 482.714 439.592 483.104 439.826C483.495 440.06 483.797 440.389 484.01 440.813C484.225 441.237 484.333 441.731 484.333 442.294C484.333 442.857 484.225 443.35 484.01 443.771C483.797 444.193 483.495 444.521 483.104 444.755C482.714 444.989 482.252 445.107 481.719 445.107ZM481.727 444.077C482.015 444.077 482.257 443.997 482.451 443.839C482.645 443.678 482.79 443.462 482.884 443.192C482.981 442.923 483.03 442.622 483.03 442.29C483.03 441.957 482.981 441.655 482.884 441.385C482.79 441.113 482.645 440.896 482.451 440.735C482.257 440.574 482.015 440.494 481.727 440.494C481.431 440.494 481.184 440.574 480.988 440.735C480.794 440.896 480.648 441.113 480.551 441.385C480.456 441.655 480.409 441.957 480.409 442.29C480.409 442.622 480.456 442.923 480.551 443.192C480.648 443.462 480.794 443.678 480.988 443.839C481.184 443.997 481.431 444.077 481.727 444.077ZM484.548 445L484.541 443.942H484.729C484.871 443.942 484.99 443.91 485.088 443.846C485.185 443.782 485.265 443.675 485.329 443.526C485.393 443.375 485.443 443.171 485.478 442.915C485.514 442.66 485.539 442.341 485.553 441.96L485.649 439.545H489.626V445H488.383V440.6H486.817L486.732 442.358C486.71 442.812 486.66 443.207 486.579 443.54C486.501 443.872 486.39 444.145 486.245 444.361C486.103 444.576 485.924 444.737 485.709 444.844C485.494 444.948 485.239 445 484.945 445H484.548ZM491.66 443.26L493.844 439.545H495.165V445H493.922V441.282L491.745 445H490.42V439.545H491.66V443.26ZM495.374 440.6V439.545H500.147V440.6H498.382V445H497.139V440.6H495.374ZM501.91 443.26L504.094 439.545H505.415V445H504.172V441.282L501.995 445H500.67V439.545H501.91V443.26ZM506.235 445V439.545H507.52V441.747H507.989L509.63 439.545H511.178L509.157 442.223L511.199 445H509.644L508.149 442.944H507.52V445H506.235ZM513.583 445.107C513.05 445.107 512.588 444.989 512.198 444.755C511.807 444.521 511.504 444.193 511.289 443.771C511.076 443.35 510.969 442.857 510.969 442.294C510.969 441.731 511.076 441.237 511.289 440.813C511.504 440.389 511.807 440.06 512.198 439.826C512.588 439.592 513.05 439.474 513.583 439.474C514.115 439.474 514.577 439.592 514.968 439.826C515.358 440.06 515.66 440.389 515.873 440.813C516.089 441.237 516.196 441.731 516.196 442.294C516.196 442.857 516.089 443.35 515.873 443.771C515.66 444.193 515.358 444.521 514.968 444.755C514.577 444.989 514.115 445.107 513.583 445.107ZM513.59 444.077C513.879 444.077 514.12 443.997 514.314 443.839C514.508 443.678 514.653 443.462 514.748 443.192C514.845 442.923 514.893 442.622 514.893 442.29C514.893 441.957 514.845 441.655 514.748 441.385C514.653 441.113 514.508 440.896 514.314 440.735C514.12 440.574 513.879 440.494 513.59 440.494C513.294 440.494 513.048 440.574 512.851 440.735C512.657 440.896 512.511 441.113 512.414 441.385C512.32 441.655 512.272 441.957 512.272 442.29C512.272 442.622 512.32 442.923 512.414 443.192C512.511 443.462 512.657 443.678 512.851 443.839C513.048 443.997 513.294 444.077 513.59 444.077ZM518.027 443.26L520.211 439.545H521.532V445H520.289V441.282L518.112 445H516.787V439.545H518.027V443.26ZM519.859 437.67H520.822C520.822 438.085 520.671 438.421 520.371 438.679C520.072 438.935 519.667 439.062 519.156 439.062C518.649 439.062 518.246 438.935 517.945 438.679C517.647 438.421 517.499 438.085 517.501 437.67H518.456C518.456 437.841 518.509 437.994 518.613 438.129C518.719 438.261 518.9 438.327 519.156 438.327C519.407 438.327 519.586 438.261 519.692 438.129C519.801 437.996 519.857 437.843 519.859 437.67ZM524.332 445V439.545H525.618V441.747H526.087L527.727 439.545H529.276L527.255 442.223L529.297 445H527.741L526.246 442.944H525.618V445H524.332ZM531.68 445.107C531.148 445.107 530.686 444.989 530.295 444.755C529.905 444.521 529.602 444.193 529.386 443.771C529.173 443.35 529.067 442.857 529.067 442.294C529.067 441.731 529.173 441.237 529.386 440.813C529.602 440.389 529.905 440.06 530.295 439.826C530.686 439.592 531.148 439.474 531.68 439.474C532.213 439.474 532.675 439.592 533.065 439.826C533.456 440.06 533.758 440.389 533.971 440.813C534.186 441.237 534.294 441.731 534.294 442.294C534.294 442.857 534.186 443.35 533.971 443.771C533.758 444.193 533.456 444.521 533.065 444.755C532.675 444.989 532.213 445.107 531.68 445.107ZM531.688 444.077C531.976 444.077 532.218 443.997 532.412 443.839C532.606 443.678 532.75 443.462 532.845 443.192C532.942 442.923 532.991 442.622 532.991 442.29C532.991 441.957 532.942 441.655 532.845 441.385C532.75 441.113 532.606 440.896 532.412 440.735C532.218 440.574 531.976 440.494 531.688 440.494C531.392 440.494 531.145 440.574 530.949 440.735C530.755 440.896 530.609 441.113 530.512 441.385C530.417 441.655 530.37 441.957 530.37 442.29C530.37 442.622 530.417 442.923 530.512 443.192C530.609 443.462 530.755 443.678 530.949 443.839C531.145 443.997 531.392 444.077 531.688 444.077ZM538.632 441.74V442.795H535.727V441.74H538.632ZM536.124 439.545V445H534.885V439.545H536.124ZM539.473 439.545V445H538.237V439.545H539.473ZM542.749 446.854V437.727H544.038V446.854H542.749ZM542.749 445.107C542.349 445.107 541.983 445.039 541.652 444.904C541.32 444.769 541.034 444.577 540.792 444.329C540.553 444.08 540.367 443.784 540.235 443.441C540.105 443.095 540.039 442.713 540.039 442.294C540.039 441.875 540.105 441.493 540.235 441.147C540.367 440.801 540.553 440.504 540.792 440.256C541.034 440.005 541.32 439.812 541.652 439.677C541.983 439.542 542.349 439.474 542.749 439.474H543.022V445.107H542.749ZM542.749 444.07H542.909V440.511H542.749C542.522 440.511 542.32 440.559 542.145 440.653C541.972 440.746 541.827 440.875 541.708 441.04C541.592 441.204 541.504 441.393 541.442 441.609C541.383 441.822 541.353 442.05 541.353 442.294C541.353 442.618 541.407 442.915 541.513 443.185C541.62 443.453 541.776 443.667 541.982 443.828C542.19 443.989 542.446 444.07 542.749 444.07ZM544.038 445.107H543.765V439.474H544.038C544.438 439.474 544.804 439.542 545.135 439.677C545.467 439.812 545.752 440.005 545.991 440.256C546.233 440.504 546.418 440.801 546.549 441.147C546.681 441.493 546.748 441.875 546.748 442.294C546.748 442.713 546.681 443.095 546.549 443.441C546.418 443.784 546.233 444.08 545.991 444.329C545.752 444.577 545.467 444.769 545.135 444.904C544.804 445.039 544.438 445.107 544.038 445.107ZM544.038 444.07C544.268 444.07 544.469 444.023 544.642 443.931C544.815 443.839 544.959 443.711 545.075 443.548C545.193 443.384 545.282 443.196 545.341 442.983C545.4 442.768 545.43 442.538 545.43 442.294C545.43 441.97 545.378 441.673 545.274 441.403C545.17 441.133 545.013 440.917 544.805 440.756C544.599 440.593 544.343 440.511 544.038 440.511H543.878V444.07H544.038ZM548.572 443.26L550.756 439.545H552.077V445H550.834V441.282L548.657 445H547.332V439.545H548.572V443.26ZM552.414 446.584V443.942H552.847C552.963 443.852 553.06 443.73 553.138 443.576C553.216 443.42 553.28 443.236 553.33 443.026C553.382 442.812 553.425 442.575 553.458 442.312C553.491 442.047 553.521 441.761 553.547 441.456L553.703 439.545H557.645V443.942H558.49V446.584H557.247V445H553.678V446.584H552.414ZM554.168 443.942H556.416V440.582H554.818L554.733 441.456C554.685 442.034 554.623 442.528 554.545 442.94C554.466 443.352 554.341 443.686 554.168 443.942ZM561.364 445.107C560.817 445.107 560.345 444.993 559.947 444.766C559.552 444.536 559.248 444.212 559.035 443.793C558.822 443.371 558.715 442.875 558.715 442.305C558.715 441.744 558.822 441.251 559.035 440.827C559.25 440.401 559.551 440.07 559.937 439.833C560.323 439.594 560.776 439.474 561.297 439.474C561.633 439.474 561.95 439.529 562.249 439.638C562.549 439.744 562.814 439.91 563.044 440.135C563.276 440.36 563.458 440.646 563.591 440.994C563.723 441.34 563.79 441.752 563.79 442.23V442.624H559.319V441.758H562.558C562.555 441.512 562.502 441.293 562.398 441.101C562.294 440.907 562.148 440.754 561.961 440.643C561.776 440.531 561.561 440.476 561.315 440.476C561.052 440.476 560.821 440.54 560.622 440.668C560.423 440.793 560.268 440.959 560.157 441.165C560.048 441.368 559.992 441.592 559.99 441.836V442.592C559.99 442.91 560.048 443.182 560.164 443.409C560.28 443.634 560.442 443.807 560.651 443.928C560.859 444.046 561.103 444.105 561.382 444.105C561.569 444.105 561.738 444.079 561.89 444.027C562.041 443.973 562.173 443.893 562.284 443.789C562.395 443.685 562.479 443.556 562.536 443.402L563.737 443.537C563.661 443.854 563.516 444.131 563.303 444.368C563.093 444.602 562.823 444.785 562.494 444.915C562.165 445.043 561.788 445.107 561.364 445.107ZM568.124 441.74V442.795H565.219V441.74H568.124ZM565.617 439.545V445H564.377V439.545H565.617ZM568.965 439.545V445H567.73V439.545H568.965ZM574.372 439.545V444.041H575.206V446.754H573.949V445H569.766V439.545H571.005V443.945H573.143V439.545H574.372ZM576.999 443.26L579.183 439.545H580.504V445H579.262V441.282L577.085 445H575.76V439.545H576.999V443.26ZM582.894 445.11C582.549 445.11 582.237 445.049 581.96 444.925C581.686 444.8 581.468 444.615 581.307 444.371C581.148 444.128 581.069 443.827 581.069 443.469C581.069 443.162 581.126 442.907 581.239 442.706C581.353 442.505 581.508 442.344 581.705 442.223C581.901 442.102 582.122 442.011 582.369 441.95C582.617 441.886 582.874 441.839 583.139 441.811C583.459 441.778 583.718 441.748 583.917 441.722C584.116 441.694 584.26 441.651 584.35 441.594C584.442 441.535 584.489 441.444 584.489 441.321V441.3C584.489 441.032 584.409 440.825 584.251 440.678C584.092 440.531 583.864 440.458 583.565 440.458C583.25 440.458 583.001 440.527 582.816 440.664C582.634 440.801 582.511 440.964 582.447 441.151L581.246 440.98C581.341 440.649 581.497 440.372 581.715 440.149C581.933 439.924 582.199 439.756 582.514 439.645C582.829 439.531 583.177 439.474 583.558 439.474C583.821 439.474 584.083 439.505 584.343 439.567C584.603 439.628 584.841 439.73 585.057 439.872C585.272 440.012 585.445 440.202 585.575 440.444C585.708 440.685 585.774 440.987 585.774 441.349V445H584.538V444.251H584.496C584.418 444.402 584.308 444.544 584.165 444.677C584.026 444.807 583.849 444.912 583.636 444.993C583.426 445.071 583.178 445.11 582.894 445.11ZM583.228 444.165C583.486 444.165 583.71 444.115 583.899 444.013C584.089 443.909 584.234 443.771 584.336 443.601C584.44 443.43 584.492 443.245 584.492 443.043V442.401C584.452 442.434 584.383 442.464 584.286 442.493C584.192 442.521 584.085 442.546 583.967 442.567C583.848 442.589 583.731 442.608 583.615 442.624C583.499 442.641 583.398 442.655 583.313 442.667C583.121 442.693 582.95 442.736 582.798 442.795C582.647 442.854 582.527 442.937 582.44 443.043C582.352 443.147 582.308 443.282 582.308 443.448C582.308 443.685 582.395 443.864 582.567 443.984C582.74 444.105 582.96 444.165 583.228 444.165ZM586.19 445L586.183 443.942H586.371C586.513 443.942 586.633 443.91 586.73 443.846C586.827 443.782 586.908 443.675 586.972 443.526C587.036 443.375 587.085 443.171 587.121 442.915C587.156 442.66 587.181 442.341 587.195 441.96L587.291 439.545H591.268V445H590.026V440.6H588.46L588.374 442.358C588.353 442.812 588.302 443.207 588.222 443.54C588.143 443.872 588.032 444.145 587.888 444.361C587.746 444.576 587.567 444.737 587.352 444.844C587.136 444.948 586.882 445 586.588 445H586.19ZM592.933 441.321H594.542C595.238 441.321 595.776 441.49 596.157 441.829C596.538 442.167 596.73 442.611 596.733 443.161C596.73 443.518 596.643 443.835 596.47 444.112C596.299 444.389 596.051 444.607 595.724 444.766C595.4 444.922 595.006 445 594.542 445H592.063V439.545H593.302V443.945H594.542C594.821 443.945 595.051 443.874 595.23 443.732C595.41 443.588 595.5 443.403 595.5 443.178C595.5 442.942 595.41 442.749 595.23 442.599C595.051 442.45 594.821 442.376 594.542 442.376H592.933V441.321ZM601.081 441.74V442.795H598.176V441.74H601.081ZM598.574 439.545V445H597.334V439.545H598.574ZM601.922 439.545V445H600.687V439.545H601.922ZM605.102 445.107C604.57 445.107 604.108 444.989 603.717 444.755C603.327 444.521 603.024 444.193 602.808 443.771C602.595 443.35 602.489 442.857 602.489 442.294C602.489 441.731 602.595 441.237 602.808 440.813C603.024 440.389 603.327 440.06 603.717 439.826C604.108 439.592 604.57 439.474 605.102 439.474C605.635 439.474 606.097 439.592 606.487 439.826C606.878 440.06 607.18 440.389 607.393 440.813C607.608 441.237 607.716 441.731 607.716 442.294C607.716 442.857 607.608 443.35 607.393 443.771C607.18 444.193 606.878 444.521 606.487 444.755C606.097 444.989 605.635 445.107 605.102 445.107ZM605.109 444.077C605.398 444.077 605.64 443.997 605.834 443.839C606.028 443.678 606.172 443.462 606.267 443.192C606.364 442.923 606.413 442.622 606.413 442.29C606.413 441.957 606.364 441.655 606.267 441.385C606.172 441.113 606.028 440.896 605.834 440.735C605.64 440.574 605.398 440.494 605.109 440.494C604.813 440.494 604.567 440.574 604.371 440.735C604.177 440.896 604.031 441.113 603.934 441.385C603.839 441.655 603.792 441.957 603.792 442.29C603.792 442.622 603.839 442.923 603.934 443.192C604.031 443.462 604.177 443.678 604.371 443.839C604.567 443.997 604.813 444.077 605.109 444.077ZM610.686 445.107C610.142 445.107 609.674 444.987 609.284 444.748C608.895 444.509 608.596 444.179 608.385 443.757C608.177 443.333 608.073 442.846 608.073 442.294C608.073 441.74 608.179 441.251 608.392 440.827C608.605 440.401 608.906 440.07 609.294 439.833C609.685 439.594 610.146 439.474 610.679 439.474C611.122 439.474 611.514 439.556 611.855 439.719C612.198 439.88 612.471 440.109 612.675 440.405C612.878 440.698 612.994 441.042 613.023 441.435H611.794C611.744 441.172 611.626 440.953 611.439 440.778C611.254 440.6 611.007 440.511 610.697 440.511C610.434 440.511 610.203 440.582 610.004 440.724C609.806 440.864 609.651 441.065 609.539 441.328C609.43 441.591 609.376 441.906 609.376 442.273C609.376 442.644 609.43 442.964 609.539 443.232C609.648 443.497 609.801 443.701 609.997 443.846C610.196 443.988 610.429 444.059 610.697 444.059C610.886 444.059 611.056 444.023 611.205 443.952C611.356 443.879 611.483 443.774 611.585 443.636C611.686 443.499 611.756 443.332 611.794 443.136H613.023C612.992 443.522 612.878 443.864 612.682 444.162C612.485 444.458 612.218 444.69 611.879 444.858C611.541 445.024 611.143 445.107 610.686 445.107ZM613.183 440.6V439.545H617.955V440.6H616.19V445H614.947V440.6H613.183ZM619.718 443.26L621.902 439.545H623.223V445H621.98V441.282L619.803 445H618.479V439.545H619.718V443.26Z" fill="black"/>
<rect x="596.516" y="81" width="463.484" height="209" rx="9" stroke="#D9D9D9" stroke-width="2"/>
<path d="M631.227 107.182C631.227 108.409 631.006 109.47 630.562 110.364C630.119 111.258 629.511 111.947 628.739 112.432C627.966 112.917 627.083 113.159 626.091 113.159C625.098 113.159 624.216 112.917 623.443 112.432C622.67 111.947 622.063 111.258 621.619 110.364C621.176 109.47 620.955 108.409 620.955 107.182C620.955 105.955 621.176 104.894 621.619 104C622.063 103.106 622.67 102.417 623.443 101.932C624.216 101.447 625.098 101.205 626.091 101.205C627.083 101.205 627.966 101.447 628.739 101.932C629.511 102.417 630.119 103.106 630.562 104C631.006 104.894 631.227 105.955 631.227 107.182ZM629.864 107.182C629.864 106.174 629.695 105.324 629.358 104.631C629.025 103.938 628.572 103.413 628 103.057C627.432 102.701 626.795 102.523 626.091 102.523C625.386 102.523 624.748 102.701 624.176 103.057C623.608 103.413 623.155 103.938 622.818 104.631C622.485 105.324 622.318 106.174 622.318 107.182C622.318 108.189 622.485 109.04 622.818 109.733C623.155 110.426 623.608 110.951 624.176 111.307C624.748 111.663 625.386 111.841 626.091 111.841C626.795 111.841 627.432 111.663 628 111.307C628.572 110.951 629.025 110.426 629.358 109.733C629.695 109.04 629.864 108.189 629.864 107.182ZM632.615 113V104.273H639.478V113H638.137V105.523H633.956V113H632.615ZM642.468 111.023L646.673 104.273H648.218V113H646.877V106.25L642.695 113H641.127V104.273H642.468V111.023ZM649.874 104.273H651.215V111.75H654.511V104.273H655.851V111.75H659.147V104.273H660.488V113H649.874V104.273ZM663.478 111.023L667.682 104.273H669.228V113H667.887V106.25L663.705 113H662.137V104.273H663.478V111.023ZM669.696 105.523V104.273H676.787V105.523H673.923V113H672.582V105.523H669.696ZM681.149 113.182C680.308 113.182 679.583 112.996 678.973 112.625C678.367 112.25 677.899 111.727 677.569 111.057C677.244 110.383 677.081 109.598 677.081 108.705C677.081 107.811 677.244 107.023 677.569 106.341C677.899 105.655 678.357 105.121 678.944 104.739C679.535 104.352 680.225 104.159 681.013 104.159C681.467 104.159 681.916 104.235 682.359 104.386C682.802 104.538 683.206 104.784 683.569 105.125C683.933 105.462 684.223 105.909 684.439 106.466C684.655 107.023 684.763 107.708 684.763 108.523V109.091H678.035V107.932H683.399C683.399 107.439 683.3 107 683.103 106.614C682.91 106.227 682.634 105.922 682.274 105.699C681.918 105.475 681.497 105.364 681.013 105.364C680.478 105.364 680.016 105.496 679.626 105.761C679.24 106.023 678.942 106.364 678.734 106.784C678.526 107.205 678.422 107.655 678.422 108.136V108.909C678.422 109.568 678.535 110.127 678.763 110.585C678.994 111.04 679.314 111.386 679.723 111.625C680.132 111.86 680.607 111.977 681.149 111.977C681.501 111.977 681.819 111.928 682.103 111.83C682.391 111.727 682.639 111.576 682.848 111.375C683.056 111.17 683.217 110.917 683.331 110.614L684.626 110.977C684.49 111.417 684.261 111.803 683.939 112.136C683.617 112.466 683.219 112.723 682.745 112.909C682.272 113.091 681.74 113.182 681.149 113.182ZM689.702 113V104.273H696.566V113H695.225V105.523H691.043V113H689.702ZM698.215 116.273V104.273H699.51V105.659H699.669C699.768 105.508 699.904 105.314 700.078 105.08C700.256 104.841 700.51 104.629 700.84 104.443C701.173 104.254 701.624 104.159 702.192 104.159C702.927 104.159 703.575 104.343 704.135 104.71C704.696 105.078 705.133 105.598 705.448 106.273C705.762 106.947 705.919 107.742 705.919 108.659C705.919 109.583 705.762 110.384 705.448 111.062C705.133 111.737 704.698 112.259 704.141 112.631C703.584 112.998 702.942 113.182 702.215 113.182C701.654 113.182 701.205 113.089 700.868 112.903C700.531 112.714 700.272 112.5 700.09 112.261C699.908 112.019 699.768 111.818 699.669 111.659H699.556V116.273H698.215ZM699.533 108.636C699.533 109.295 699.63 109.877 699.823 110.381C700.016 110.881 700.298 111.273 700.669 111.557C701.041 111.837 701.495 111.977 702.033 111.977C702.594 111.977 703.061 111.83 703.436 111.534C703.815 111.235 704.099 110.833 704.289 110.33C704.482 109.822 704.578 109.258 704.578 108.636C704.578 108.023 704.484 107.47 704.294 106.977C704.109 106.481 703.827 106.089 703.448 105.801C703.073 105.509 702.601 105.364 702.033 105.364C701.488 105.364 701.029 105.502 700.658 105.778C700.287 106.051 700.006 106.434 699.817 106.926C699.628 107.415 699.533 107.985 699.533 108.636ZM710.71 113.182C709.922 113.182 709.231 112.994 708.636 112.619C708.045 112.244 707.583 111.72 707.25 111.045C706.92 110.371 706.756 109.583 706.756 108.682C706.756 107.773 706.92 106.979 707.25 106.301C707.583 105.623 708.045 105.097 708.636 104.722C709.231 104.347 709.922 104.159 710.71 104.159C711.498 104.159 712.188 104.347 712.778 104.722C713.373 105.097 713.835 105.623 714.165 106.301C714.498 106.979 714.665 107.773 714.665 108.682C714.665 109.583 714.498 110.371 714.165 111.045C713.835 111.72 713.373 112.244 712.778 112.619C712.188 112.994 711.498 113.182 710.71 113.182ZM710.71 111.977C711.309 111.977 711.801 111.824 712.188 111.517C712.574 111.21 712.86 110.807 713.045 110.307C713.231 109.807 713.324 109.265 713.324 108.682C713.324 108.098 713.231 107.555 713.045 107.051C712.86 106.547 712.574 106.14 712.188 105.83C711.801 105.519 711.309 105.364 710.71 105.364C710.112 105.364 709.619 105.519 709.233 105.83C708.847 106.14 708.561 106.547 708.375 107.051C708.189 107.555 708.097 108.098 708.097 108.682C708.097 109.265 708.189 109.807 708.375 110.307C708.561 110.807 708.847 111.21 709.233 111.517C709.619 111.824 710.112 111.977 710.71 111.977ZM722.389 101L723.071 101.818C722.806 102.076 722.499 102.256 722.15 102.358C721.802 102.46 721.408 102.523 720.968 102.545C720.529 102.568 720.04 102.591 719.503 102.614C718.896 102.636 718.395 102.784 717.997 103.057C717.599 103.33 717.292 103.723 717.076 104.239C716.861 104.754 716.722 105.386 716.662 106.136H716.775C717.071 105.591 717.48 105.189 718.003 104.932C718.525 104.674 719.086 104.545 719.684 104.545C720.366 104.545 720.98 104.705 721.525 105.023C722.071 105.341 722.503 105.812 722.821 106.438C723.139 107.062 723.298 107.833 723.298 108.75C723.298 109.663 723.135 110.451 722.809 111.114C722.487 111.777 722.035 112.288 721.451 112.648C720.872 113.004 720.192 113.182 719.412 113.182C718.631 113.182 717.948 112.998 717.361 112.631C716.773 112.259 716.317 111.71 715.991 110.983C715.665 110.252 715.503 109.348 715.503 108.273V107.341C715.503 105.398 715.832 103.924 716.491 102.92C717.154 101.917 718.15 101.398 719.48 101.364C719.95 101.348 720.368 101.345 720.736 101.352C721.103 101.36 721.423 101.343 721.696 101.301C721.968 101.259 722.2 101.159 722.389 101ZM719.412 111.977C719.938 111.977 720.391 111.845 720.77 111.58C721.152 111.314 721.446 110.941 721.65 110.46C721.855 109.975 721.957 109.405 721.957 108.75C721.957 108.114 721.853 107.572 721.645 107.125C721.44 106.678 721.146 106.337 720.764 106.102C720.381 105.867 719.923 105.75 719.389 105.75C718.999 105.75 718.648 105.816 718.338 105.949C718.027 106.081 717.762 106.277 717.542 106.534C717.323 106.792 717.152 107.106 717.031 107.477C716.914 107.848 716.851 108.273 716.843 108.75C716.843 109.727 717.073 110.509 717.531 111.097C717.989 111.684 718.616 111.977 719.412 111.977ZM723.776 113V111.75H724.095C724.356 111.75 724.574 111.699 724.748 111.597C724.922 111.491 725.062 111.307 725.168 111.045C725.278 110.78 725.362 110.413 725.418 109.943C725.479 109.47 725.523 108.867 725.549 108.136L725.708 104.273H731.526V113H730.186V105.523H726.981L726.845 108.636C726.814 109.352 726.75 109.983 726.651 110.528C726.557 111.07 726.411 111.525 726.214 111.892C726.021 112.259 725.763 112.536 725.441 112.722C725.119 112.907 724.716 113 724.231 113H723.776ZM736.846 113.182C736.005 113.182 735.279 112.996 734.67 112.625C734.064 112.25 733.596 111.727 733.266 111.057C732.94 110.383 732.778 109.598 732.778 108.705C732.778 107.811 732.94 107.023 733.266 106.341C733.596 105.655 734.054 105.121 734.641 104.739C735.232 104.352 735.921 104.159 736.709 104.159C737.164 104.159 737.613 104.235 738.056 104.386C738.499 104.538 738.903 104.784 739.266 105.125C739.63 105.462 739.92 105.909 740.136 106.466C740.351 107.023 740.459 107.708 740.459 108.523V109.091H733.732V107.932H739.096C739.096 107.439 738.997 107 738.8 106.614C738.607 106.227 738.331 105.922 737.971 105.699C737.615 105.475 737.194 105.364 736.709 105.364C736.175 105.364 735.713 105.496 735.323 105.761C734.937 106.023 734.639 106.364 734.431 106.784C734.223 107.205 734.118 107.655 734.118 108.136V108.909C734.118 109.568 734.232 110.127 734.459 110.585C734.69 111.04 735.011 111.386 735.42 111.625C735.829 111.86 736.304 111.977 736.846 111.977C737.198 111.977 737.516 111.928 737.8 111.83C738.088 111.727 738.336 111.576 738.545 111.375C738.753 111.17 738.914 110.917 739.028 110.614L740.323 110.977C740.187 111.417 739.957 111.803 739.636 112.136C739.314 112.466 738.916 112.723 738.442 112.909C737.969 113.091 737.437 113.182 736.846 113.182ZM746.472 111.182L749.517 104.273H750.79L747.017 113H745.926L742.222 104.273H743.472L746.472 111.182ZM743.04 104.273V113H741.699V104.273H743.04ZM749.904 113V104.273H751.245V113H749.904ZM753.45 116.273C753.223 116.273 753.02 116.254 752.842 116.216C752.664 116.182 752.541 116.148 752.473 116.114L752.814 114.932C753.14 115.015 753.428 115.045 753.678 115.023C753.928 115 754.149 114.888 754.342 114.688C754.539 114.491 754.719 114.17 754.882 113.727L755.132 113.045L751.905 104.273H753.359L755.768 111.227H755.859L758.268 104.273H759.723L756.018 114.273C755.852 114.723 755.645 115.097 755.399 115.392C755.153 115.691 754.867 115.913 754.541 116.057C754.219 116.201 753.856 116.273 753.45 116.273ZM765.734 111.023L769.938 104.273H771.484V113H770.143V106.25L765.961 113H764.393V104.273H765.734V111.023ZM775.908 115.5V111.75H776.635C776.813 111.564 776.967 111.364 777.095 111.148C777.224 110.932 777.336 110.676 777.431 110.381C777.529 110.081 777.613 109.718 777.681 109.29C777.749 108.858 777.809 108.337 777.863 107.727L778.158 104.273H783.703V111.75H785.044V115.5H783.703V113H777.249V115.5H775.908ZM778.158 111.75H782.363V105.523H779.408L779.181 107.727C779.086 108.64 778.969 109.437 778.828 110.119C778.688 110.801 778.465 111.345 778.158 111.75ZM789.57 113.182C788.782 113.182 788.09 112.994 787.496 112.619C786.905 112.244 786.443 111.72 786.109 111.045C785.78 110.371 785.615 109.583 785.615 108.682C785.615 107.773 785.78 106.979 786.109 106.301C786.443 105.623 786.905 105.097 787.496 104.722C788.09 104.347 788.782 104.159 789.57 104.159C790.357 104.159 791.047 104.347 791.638 104.722C792.232 105.097 792.695 105.623 793.024 106.301C793.357 106.979 793.524 107.773 793.524 108.682C793.524 109.583 793.357 110.371 793.024 111.045C792.695 111.72 792.232 112.244 791.638 112.619C791.047 112.994 790.357 113.182 789.57 113.182ZM789.57 111.977C790.168 111.977 790.661 111.824 791.047 111.517C791.433 111.21 791.719 110.807 791.905 110.307C792.09 109.807 792.183 109.265 792.183 108.682C792.183 108.098 792.09 107.555 791.905 107.051C791.719 106.547 791.433 106.14 791.047 105.83C790.661 105.519 790.168 105.364 789.57 105.364C788.971 105.364 788.479 105.519 788.092 105.83C787.706 106.14 787.42 106.547 787.234 107.051C787.049 107.555 786.956 108.098 786.956 108.682C786.956 109.265 787.049 109.807 787.234 110.307C787.42 110.807 787.706 111.21 788.092 111.517C788.479 111.824 788.971 111.977 789.57 111.977ZM801.248 101L801.93 101.818C801.665 102.076 801.358 102.256 801.01 102.358C800.661 102.46 800.267 102.523 799.828 102.545C799.388 102.568 798.9 102.591 798.362 102.614C797.756 102.636 797.254 102.784 796.856 103.057C796.459 103.33 796.152 103.723 795.936 104.239C795.72 104.754 795.582 105.386 795.521 106.136H795.635C795.93 105.591 796.339 105.189 796.862 104.932C797.385 104.674 797.945 104.545 798.544 104.545C799.226 104.545 799.839 104.705 800.385 105.023C800.93 105.341 801.362 105.812 801.68 106.438C801.998 107.062 802.157 107.833 802.157 108.75C802.157 109.663 801.995 110.451 801.669 111.114C801.347 111.777 800.894 112.288 800.311 112.648C799.731 113.004 799.051 113.182 798.271 113.182C797.491 113.182 796.807 112.998 796.22 112.631C795.633 112.259 795.176 111.71 794.851 110.983C794.525 110.252 794.362 109.348 794.362 108.273V107.341C794.362 105.398 794.691 103.924 795.351 102.92C796.013 101.917 797.01 101.398 798.339 101.364C798.809 101.348 799.227 101.345 799.595 101.352C799.962 101.36 800.282 101.343 800.555 101.301C800.828 101.259 801.059 101.159 801.248 101ZM798.271 111.977C798.798 111.977 799.25 111.845 799.629 111.58C800.012 111.314 800.305 110.941 800.51 110.46C800.714 109.975 800.816 109.405 800.816 108.75C800.816 108.114 800.712 107.572 800.504 107.125C800.299 106.678 800.006 106.337 799.623 106.102C799.241 105.867 798.782 105.75 798.248 105.75C797.858 105.75 797.508 105.816 797.197 105.949C796.887 106.081 796.621 106.277 796.402 106.534C796.182 106.792 796.012 107.106 795.89 107.477C795.773 107.848 795.71 108.273 795.703 108.75C795.703 109.727 795.932 110.509 796.39 111.097C796.849 111.684 797.476 111.977 798.271 111.977ZM805.977 113.205C805.424 113.205 804.922 113.1 804.471 112.892C804.02 112.68 803.662 112.375 803.397 111.977C803.132 111.576 802.999 111.091 802.999 110.523C802.999 110.023 803.098 109.617 803.295 109.307C803.492 108.992 803.755 108.746 804.085 108.568C804.414 108.39 804.778 108.258 805.176 108.17C805.577 108.08 805.98 108.008 806.386 107.955C806.916 107.886 807.346 107.835 807.676 107.801C808.009 107.763 808.251 107.701 808.403 107.614C808.558 107.527 808.636 107.375 808.636 107.159V107.114C808.636 106.553 808.482 106.117 808.176 105.807C807.873 105.496 807.412 105.341 806.795 105.341C806.155 105.341 805.653 105.481 805.289 105.761C804.926 106.042 804.67 106.341 804.522 106.659L803.249 106.205C803.477 105.674 803.78 105.261 804.159 104.966C804.541 104.667 804.958 104.458 805.409 104.341C805.863 104.22 806.31 104.159 806.749 104.159C807.03 104.159 807.352 104.193 807.715 104.261C808.083 104.326 808.437 104.46 808.778 104.665C809.123 104.869 809.409 105.178 809.636 105.591C809.863 106.004 809.977 106.557 809.977 107.25V113H808.636V111.818H808.568C808.477 112.008 808.325 112.21 808.113 112.426C807.901 112.642 807.619 112.826 807.266 112.977C806.914 113.129 806.484 113.205 805.977 113.205ZM806.181 112C806.712 112 807.159 111.896 807.522 111.688C807.89 111.479 808.166 111.21 808.352 110.881C808.541 110.551 808.636 110.205 808.636 109.841V108.614C808.579 108.682 808.454 108.744 808.261 108.801C808.071 108.854 807.852 108.902 807.602 108.943C807.355 108.981 807.115 109.015 806.88 109.045C806.649 109.072 806.462 109.095 806.318 109.114C805.969 109.159 805.643 109.233 805.34 109.335C805.041 109.434 804.799 109.583 804.613 109.784C804.431 109.981 804.34 110.25 804.34 110.591C804.34 111.057 804.513 111.409 804.857 111.648C805.206 111.883 805.647 112 806.181 112ZM811.624 113V104.273H815.192C816.132 104.273 816.878 104.485 817.431 104.909C817.984 105.333 818.261 105.894 818.261 106.591C818.261 107.121 818.103 107.532 817.789 107.824C817.475 108.112 817.071 108.307 816.579 108.409C816.901 108.455 817.213 108.568 817.516 108.75C817.823 108.932 818.077 109.182 818.278 109.5C818.478 109.814 818.579 110.201 818.579 110.659C818.579 111.106 818.465 111.506 818.238 111.858C818.011 112.21 817.685 112.489 817.261 112.693C816.836 112.898 816.329 113 815.738 113H811.624ZM812.897 111.773H815.738C816.2 111.773 816.562 111.663 816.823 111.443C817.084 111.223 817.215 110.924 817.215 110.545C817.215 110.095 817.084 109.741 816.823 109.483C816.562 109.222 816.2 109.091 815.738 109.091H812.897V111.773ZM812.897 107.932H815.192C815.552 107.932 815.861 107.883 816.118 107.784C816.376 107.682 816.573 107.538 816.709 107.352C816.85 107.163 816.92 106.939 816.92 106.682C816.92 106.314 816.766 106.027 816.459 105.818C816.153 105.606 815.73 105.5 815.192 105.5H812.897V107.932ZM820.968 107.432H823.468C824.49 107.432 825.273 107.691 825.814 108.21C826.356 108.729 826.627 109.386 826.627 110.182C826.627 110.705 826.505 111.18 826.263 111.608C826.021 112.032 825.665 112.371 825.195 112.625C824.725 112.875 824.149 113 823.468 113H819.809V104.273H821.149V111.75H823.468C823.998 111.75 824.434 111.61 824.774 111.33C825.115 111.049 825.286 110.689 825.286 110.25C825.286 109.788 825.115 109.411 824.774 109.119C824.434 108.828 823.998 108.682 823.468 108.682H820.968V107.432ZM826.462 105.523V104.273H833.553V105.523H830.689V113H829.348V105.523H826.462ZM837.914 113.182C837.074 113.182 836.348 112.996 835.738 112.625C835.132 112.25 834.664 111.727 834.335 111.057C834.009 110.383 833.846 109.598 833.846 108.705C833.846 107.811 834.009 107.023 834.335 106.341C834.664 105.655 835.123 105.121 835.71 104.739C836.301 104.352 836.99 104.159 837.778 104.159C838.233 104.159 838.682 104.235 839.125 104.386C839.568 104.538 839.971 104.784 840.335 105.125C840.699 105.462 840.988 105.909 841.204 106.466C841.42 107.023 841.528 107.708 841.528 108.523V109.091H834.801V107.932H840.164C840.164 107.439 840.066 107 839.869 106.614C839.676 106.227 839.399 105.922 839.039 105.699C838.683 105.475 838.263 105.364 837.778 105.364C837.244 105.364 836.782 105.496 836.392 105.761C836.005 106.023 835.708 106.364 835.5 106.784C835.291 107.205 835.187 107.655 835.187 108.136V108.909C835.187 109.568 835.301 110.127 835.528 110.585C835.759 111.04 836.079 111.386 836.488 111.625C836.897 111.86 837.373 111.977 837.914 111.977C838.267 111.977 838.585 111.928 838.869 111.83C839.157 111.727 839.405 111.576 839.613 111.375C839.822 111.17 839.983 110.917 840.096 110.614L841.392 110.977C841.255 111.417 841.026 111.803 840.704 112.136C840.382 112.466 839.985 112.723 839.511 112.909C839.038 113.091 838.505 113.182 837.914 113.182ZM846.468 113V104.273H850.036C850.975 104.273 851.722 104.485 852.275 104.909C852.828 105.333 853.104 105.894 853.104 106.591C853.104 107.121 852.947 107.532 852.633 107.824C852.318 108.112 851.915 108.307 851.422 108.409C851.744 108.455 852.057 108.568 852.36 108.75C852.667 108.932 852.921 109.182 853.121 109.5C853.322 109.814 853.422 110.201 853.422 110.659C853.422 111.106 853.309 111.506 853.082 111.858C852.854 112.21 852.529 112.489 852.104 112.693C851.68 112.898 851.172 113 850.582 113H846.468ZM847.741 111.773H850.582C851.044 111.773 851.405 111.663 851.667 111.443C851.928 111.223 852.059 110.924 852.059 110.545C852.059 110.095 851.928 109.741 851.667 109.483C851.405 109.222 851.044 109.091 850.582 109.091H847.741V111.773ZM847.741 107.932H850.036C850.396 107.932 850.705 107.883 850.962 107.784C851.22 107.682 851.417 107.538 851.553 107.352C851.693 107.163 851.763 106.939 851.763 106.682C851.763 106.314 851.61 106.027 851.303 105.818C850.996 105.606 850.574 105.5 850.036 105.5H847.741V107.932ZM855.993 111.023L860.198 104.273H861.743V113H860.402V106.25L856.22 113H854.652V104.273H855.993V111.023ZM862.467 115.5V111.75H863.195C863.373 111.564 863.526 111.364 863.655 111.148C863.784 110.932 863.895 110.676 863.99 110.381C864.089 110.081 864.172 109.718 864.24 109.29C864.308 108.858 864.369 108.337 864.422 107.727L864.717 104.273H870.263V111.75H871.604V115.5H870.263V113H863.808V115.5H862.467ZM864.717 111.75H868.922V105.523H865.967L865.74 107.727C865.645 108.64 865.528 109.437 865.388 110.119C865.248 110.801 865.024 111.345 864.717 111.75ZM876.243 113.182C875.402 113.182 874.676 112.996 874.066 112.625C873.46 112.25 872.993 111.727 872.663 111.057C872.337 110.383 872.174 109.598 872.174 108.705C872.174 107.811 872.337 107.023 872.663 106.341C872.993 105.655 873.451 105.121 874.038 104.739C874.629 104.352 875.318 104.159 876.106 104.159C876.561 104.159 877.01 104.235 877.453 104.386C877.896 104.538 878.299 104.784 878.663 105.125C879.027 105.462 879.316 105.909 879.532 106.466C879.748 107.023 879.856 107.708 879.856 108.523V109.091H873.129V107.932H878.493C878.493 107.439 878.394 107 878.197 106.614C878.004 106.227 877.727 105.922 877.368 105.699C877.012 105.475 876.591 105.364 876.106 105.364C875.572 105.364 875.11 105.496 874.72 105.761C874.334 106.023 874.036 106.364 873.828 106.784C873.62 107.205 873.515 107.655 873.515 108.136V108.909C873.515 109.568 873.629 110.127 873.856 110.585C874.087 111.04 874.407 111.386 874.816 111.625C875.226 111.86 875.701 111.977 876.243 111.977C876.595 111.977 876.913 111.928 877.197 111.83C877.485 111.727 877.733 111.576 877.941 111.375C878.15 111.17 878.311 110.917 878.424 110.614L879.72 110.977C879.584 111.417 879.354 111.803 879.032 112.136C878.71 112.466 878.313 112.723 877.839 112.909C877.366 113.091 876.834 113.182 876.243 113.182ZM884.641 113.182C883.854 113.182 883.162 112.994 882.568 112.619C881.977 112.244 881.515 111.72 881.181 111.045C880.852 110.371 880.687 109.583 880.687 108.682C880.687 107.773 880.852 106.979 881.181 106.301C881.515 105.623 881.977 105.097 882.568 104.722C883.162 104.347 883.854 104.159 884.641 104.159C885.429 104.159 886.119 104.347 886.71 104.722C887.304 105.097 887.766 105.623 888.096 106.301C888.429 106.979 888.596 107.773 888.596 108.682C888.596 109.583 888.429 110.371 888.096 111.045C887.766 111.72 887.304 112.244 886.71 112.619C886.119 112.994 885.429 113.182 884.641 113.182ZM884.641 111.977C885.24 111.977 885.732 111.824 886.119 111.517C886.505 111.21 886.791 110.807 886.977 110.307C887.162 109.807 887.255 109.265 887.255 108.682C887.255 108.098 887.162 107.555 886.977 107.051C886.791 106.547 886.505 106.14 886.119 105.83C885.732 105.519 885.24 105.364 884.641 105.364C884.043 105.364 883.551 105.519 883.164 105.83C882.778 106.14 882.492 106.547 882.306 107.051C882.121 107.555 882.028 108.098 882.028 108.682C882.028 109.265 882.121 109.807 882.306 110.307C882.492 110.807 882.778 111.21 883.164 111.517C883.551 111.824 884.043 111.977 884.641 111.977ZM899.384 108.023V109.273H894.566V108.023H899.384ZM894.884 104.273V113H893.543V104.273H894.884ZM900.407 104.273V113H899.066V104.273H900.407ZM905.714 113.182C904.874 113.182 904.148 112.996 903.538 112.625C902.932 112.25 902.464 111.727 902.135 111.057C901.809 110.383 901.646 109.598 901.646 108.705C901.646 107.811 901.809 107.023 902.135 106.341C902.464 105.655 902.923 105.121 903.51 104.739C904.101 104.352 904.79 104.159 905.578 104.159C906.033 104.159 906.482 104.235 906.925 104.386C907.368 104.538 907.771 104.784 908.135 105.125C908.499 105.462 908.788 105.909 909.004 106.466C909.22 107.023 909.328 107.708 909.328 108.523V109.091H902.601V107.932H907.964C907.964 107.439 907.866 107 907.669 106.614C907.476 106.227 907.199 105.922 906.839 105.699C906.483 105.475 906.063 105.364 905.578 105.364C905.044 105.364 904.582 105.496 904.192 105.761C903.805 106.023 903.508 106.364 903.3 106.784C903.091 107.205 902.987 107.655 902.987 108.136V108.909C902.987 109.568 903.101 110.127 903.328 110.585C903.559 111.04 903.879 111.386 904.288 111.625C904.697 111.86 905.173 111.977 905.714 111.977C906.067 111.977 906.385 111.928 906.669 111.83C906.957 111.727 907.205 111.576 907.413 111.375C907.622 111.17 907.783 110.917 907.896 110.614L909.192 110.977C909.055 111.417 908.826 111.803 908.504 112.136C908.182 112.466 907.785 112.723 907.311 112.909C906.838 113.091 906.305 113.182 905.714 113.182ZM911.909 111.023L916.113 104.273H917.659V113H916.318V106.25L912.136 113H910.568V104.273H911.909V111.023ZM922.86 113.182C922.042 113.182 921.337 112.989 920.747 112.602C920.156 112.216 919.701 111.684 919.383 111.006C919.065 110.328 918.906 109.553 918.906 108.682C918.906 107.795 919.069 107.013 919.394 106.335C919.724 105.653 920.182 105.121 920.769 104.739C921.36 104.352 922.05 104.159 922.837 104.159C923.451 104.159 924.004 104.273 924.497 104.5C924.989 104.727 925.392 105.045 925.707 105.455C926.021 105.864 926.216 106.341 926.292 106.886H924.951C924.849 106.489 924.622 106.136 924.269 105.83C923.921 105.519 923.451 105.364 922.86 105.364C922.337 105.364 921.879 105.5 921.485 105.773C921.095 106.042 920.79 106.422 920.57 106.915C920.355 107.403 920.247 107.977 920.247 108.636C920.247 109.311 920.353 109.898 920.565 110.398C920.781 110.898 921.084 111.286 921.474 111.562C921.868 111.839 922.33 111.977 922.86 111.977C923.209 111.977 923.525 111.917 923.809 111.795C924.093 111.674 924.334 111.5 924.531 111.273C924.728 111.045 924.868 110.773 924.951 110.455H926.292C926.216 110.97 926.029 111.434 925.73 111.847C925.434 112.256 925.042 112.581 924.553 112.824C924.069 113.062 923.504 113.182 922.86 113.182ZM927.452 113V104.273H934.316V113H932.975V105.523H928.793V113H927.452ZM935.965 116.273V104.273H937.26V105.659H937.419C937.518 105.508 937.654 105.314 937.828 105.08C938.006 104.841 938.26 104.629 938.59 104.443C938.923 104.254 939.374 104.159 939.942 104.159C940.677 104.159 941.325 104.343 941.885 104.71C942.446 105.078 942.883 105.598 943.198 106.273C943.512 106.947 943.669 107.742 943.669 108.659C943.669 109.583 943.512 110.384 943.198 111.062C942.883 111.737 942.448 112.259 941.891 112.631C941.334 112.998 940.692 113.182 939.965 113.182C939.404 113.182 938.955 113.089 938.618 112.903C938.281 112.714 938.022 112.5 937.84 112.261C937.658 112.019 937.518 111.818 937.419 111.659H937.306V116.273H935.965ZM937.283 108.636C937.283 109.295 937.38 109.877 937.573 110.381C937.766 110.881 938.048 111.273 938.419 111.557C938.791 111.837 939.245 111.977 939.783 111.977C940.344 111.977 940.811 111.83 941.186 111.534C941.565 111.235 941.849 110.833 942.039 110.33C942.232 109.822 942.328 109.258 942.328 108.636C942.328 108.023 942.234 107.47 942.044 106.977C941.859 106.481 941.577 106.089 941.198 105.801C940.823 105.509 940.351 105.364 939.783 105.364C939.237 105.364 938.779 105.502 938.408 105.778C938.037 106.051 937.756 106.434 937.567 106.926C937.378 107.415 937.283 107.985 937.283 108.636ZM947.483 113.205C946.93 113.205 946.428 113.1 945.977 112.892C945.527 112.68 945.169 112.375 944.903 111.977C944.638 111.576 944.506 111.091 944.506 110.523C944.506 110.023 944.604 109.617 944.801 109.307C944.998 108.992 945.261 108.746 945.591 108.568C945.92 108.39 946.284 108.258 946.682 108.17C947.083 108.08 947.487 108.008 947.892 107.955C948.422 107.886 948.852 107.835 949.182 107.801C949.515 107.763 949.758 107.701 949.909 107.614C950.064 107.527 950.142 107.375 950.142 107.159V107.114C950.142 106.553 949.989 106.117 949.682 105.807C949.379 105.496 948.919 105.341 948.301 105.341C947.661 105.341 947.159 105.481 946.795 105.761C946.432 106.042 946.176 106.341 946.028 106.659L944.756 106.205C944.983 105.674 945.286 105.261 945.665 104.966C946.047 104.667 946.464 104.458 946.915 104.341C947.369 104.22 947.816 104.159 948.256 104.159C948.536 104.159 948.858 104.193 949.222 104.261C949.589 104.326 949.943 104.46 950.284 104.665C950.629 104.869 950.915 105.178 951.142 105.591C951.369 106.004 951.483 106.557 951.483 107.25V113H950.142V111.818H950.074C949.983 112.008 949.831 112.21 949.619 112.426C949.407 112.642 949.125 112.826 948.773 112.977C948.42 113.129 947.991 113.205 947.483 113.205ZM947.688 112C948.218 112 948.665 111.896 949.028 111.688C949.396 111.479 949.672 111.21 949.858 110.881C950.047 110.551 950.142 110.205 950.142 109.841V108.614C950.085 108.682 949.96 108.744 949.767 108.801C949.578 108.854 949.358 108.902 949.108 108.943C948.862 108.981 948.621 109.015 948.386 109.045C948.155 109.072 947.968 109.095 947.824 109.114C947.475 109.159 947.15 109.233 946.847 109.335C946.547 109.434 946.305 109.583 946.119 109.784C945.938 109.981 945.847 110.25 945.847 110.591C945.847 111.057 946.019 111.409 946.364 111.648C946.712 111.883 947.153 112 947.688 112ZM953.13 113V104.273H956.699C957.638 104.273 958.384 104.485 958.937 104.909C959.49 105.333 959.767 105.894 959.767 106.591C959.767 107.121 959.61 107.532 959.295 107.824C958.981 108.112 958.577 108.307 958.085 108.409C958.407 108.455 958.719 108.568 959.022 108.75C959.329 108.932 959.583 109.182 959.784 109.5C959.985 109.814 960.085 110.201 960.085 110.659C960.085 111.106 959.971 111.506 959.744 111.858C959.517 112.21 959.191 112.489 958.767 112.693C958.343 112.898 957.835 113 957.244 113H953.13ZM954.403 111.773H957.244C957.706 111.773 958.068 111.663 958.329 111.443C958.591 111.223 958.721 110.924 958.721 110.545C958.721 110.095 958.591 109.741 958.329 109.483C958.068 109.222 957.706 109.091 957.244 109.091H954.403V111.773ZM954.403 107.932H956.699C957.058 107.932 957.367 107.883 957.625 107.784C957.882 107.682 958.079 107.538 958.216 107.352C958.356 107.163 958.426 106.939 958.426 106.682C958.426 106.314 958.272 106.027 957.966 105.818C957.659 105.606 957.236 105.5 956.699 105.5H954.403V107.932ZM967.156 108.023V109.273H962.337V108.023H967.156ZM962.656 104.273V113H961.315V104.273H962.656ZM968.178 104.273V113H966.837V104.273H968.178ZM973.373 113.182C972.585 113.182 971.894 112.994 971.299 112.619C970.708 112.244 970.246 111.72 969.913 111.045C969.583 110.371 969.418 109.583 969.418 108.682C969.418 107.773 969.583 106.979 969.913 106.301C970.246 105.623 970.708 105.097 971.299 104.722C971.894 104.347 972.585 104.159 973.373 104.159C974.161 104.159 974.85 104.347 975.441 104.722C976.036 105.097 976.498 105.623 976.827 106.301C977.161 106.979 977.327 107.773 977.327 108.682C977.327 109.583 977.161 110.371 976.827 111.045C976.498 111.72 976.036 112.244 975.441 112.619C974.85 112.994 974.161 113.182 973.373 113.182ZM973.373 111.977C973.971 111.977 974.464 111.824 974.85 111.517C975.236 111.21 975.522 110.807 975.708 110.307C975.894 109.807 975.986 109.265 975.986 108.682C975.986 108.098 975.894 107.555 975.708 107.051C975.522 106.547 975.236 106.14 974.85 105.83C974.464 105.519 973.971 105.364 973.373 105.364C972.774 105.364 972.282 105.519 971.895 105.83C971.509 106.14 971.223 106.547 971.038 107.051C970.852 107.555 970.759 108.098 970.759 108.682C970.759 109.265 970.852 109.807 971.038 110.307C971.223 110.807 971.509 111.21 971.895 111.517C972.282 111.824 972.774 111.977 973.373 111.977ZM982.12 113.182C981.301 113.182 980.597 112.989 980.006 112.602C979.415 112.216 978.96 111.684 978.642 111.006C978.324 110.328 978.165 109.553 978.165 108.682C978.165 107.795 978.328 107.013 978.654 106.335C978.983 105.653 979.442 105.121 980.029 104.739C980.62 104.352 981.309 104.159 982.097 104.159C982.71 104.159 983.264 104.273 983.756 104.5C984.248 104.727 984.652 105.045 984.966 105.455C985.281 105.864 985.476 106.341 985.551 106.886H984.21C984.108 106.489 983.881 106.136 983.529 105.83C983.18 105.519 982.71 105.364 982.12 105.364C981.597 105.364 981.139 105.5 980.745 105.773C980.354 106.042 980.05 106.422 979.83 106.915C979.614 107.403 979.506 107.977 979.506 108.636C979.506 109.311 979.612 109.898 979.824 110.398C980.04 110.898 980.343 111.286 980.733 111.562C981.127 111.839 981.589 111.977 982.12 111.977C982.468 111.977 982.784 111.917 983.068 111.795C983.353 111.674 983.593 111.5 983.79 111.273C983.987 111.045 984.127 110.773 984.21 110.455H985.551C985.476 110.97 985.288 111.434 984.989 111.847C984.693 112.256 984.301 112.581 983.813 112.824C983.328 113.062 982.764 113.182 982.12 113.182ZM986.024 105.523V104.273H993.115V105.523H990.251V113H988.911V105.523H986.024ZM995.612 111.023L999.816 104.273H1001.36V113H1000.02V106.25L995.839 113H994.271V104.273H995.612V111.023Z" fill="#817979"/>
<rect x="1002" y="233" width="33" height="33" rx="3" fill="#D9D9D9"/>
<g clip-path="url(#clip0_2_5320)">
<path d="M1018.86 237.431C1015.49 237.403 1012.73 240.117 1012.71 243.491L1012.51 257.411C1012.49 260.031 1014.61 262.179 1017.23 262.2C1019.85 262.221 1022 260.106 1022.02 257.487L1022.21 243.566C1022.22 241.691 1020.72 240.16 1018.84 240.146C1016.97 240.131 1015.44 241.639 1015.42 243.512L1015.34 254.04C1015.34 254.416 1015.64 254.721 1016.01 254.724C1016.39 254.727 1016.69 254.426 1016.7 254.051L1016.78 243.522C1016.79 242.4 1017.71 241.494 1018.83 241.502C1019.95 241.511 1020.86 242.432 1020.85 243.555L1020.66 257.476C1020.64 259.35 1019.11 260.857 1017.24 260.842C1015.37 260.828 1013.86 259.296 1013.87 257.422L1014.06 243.637C1014.08 241.013 1016.23 238.902 1018.85 238.924C1021.48 238.944 1023.59 241.087 1023.57 243.712L1023.48 254.104C1023.48 254.48 1023.78 254.785 1024.16 254.787C1024.53 254.791 1024.84 254.49 1024.84 254.114L1024.92 243.587C1024.95 240.213 1022.24 237.456 1018.86 237.431Z" fill="#525252"/>
</g>
<rect x="100" y="81" width="463.484" height="55" rx="9" stroke="#D9D9D9" stroke-width="2"/>
<path d="M125.434 113V101.364H129.503C130.313 101.364 130.982 101.504 131.508 101.784C132.035 102.061 132.427 102.434 132.684 102.903C132.942 103.369 133.071 103.886 133.071 104.455C133.071 104.955 132.982 105.367 132.804 105.693C132.63 106.019 132.398 106.277 132.111 106.466C131.827 106.655 131.518 106.795 131.184 106.886V107C131.541 107.023 131.898 107.148 132.258 107.375C132.618 107.602 132.919 107.928 133.162 108.352C133.404 108.777 133.525 109.295 133.525 109.909C133.525 110.492 133.393 111.017 133.128 111.483C132.863 111.949 132.444 112.318 131.872 112.591C131.3 112.864 130.556 113 129.639 113H125.434ZM126.844 111.75H129.639C130.559 111.75 131.213 111.572 131.599 111.216C131.989 110.856 132.184 110.42 132.184 109.909C132.184 109.515 132.084 109.152 131.883 108.818C131.683 108.481 131.397 108.212 131.025 108.011C130.654 107.807 130.215 107.705 129.707 107.705H126.844V111.75ZM126.844 106.477H129.457C129.881 106.477 130.264 106.394 130.605 106.227C130.95 106.061 131.222 105.826 131.423 105.523C131.628 105.22 131.73 104.864 131.73 104.455C131.73 103.943 131.552 103.509 131.196 103.153C130.84 102.794 130.275 102.614 129.503 102.614H126.844V106.477ZM137.427 113.205C136.874 113.205 136.372 113.1 135.921 112.892C135.471 112.68 135.113 112.375 134.848 111.977C134.582 111.576 134.45 111.091 134.45 110.523C134.45 110.023 134.548 109.617 134.745 109.307C134.942 108.992 135.206 108.746 135.535 108.568C135.865 108.39 136.228 108.258 136.626 108.17C137.027 108.08 137.431 108.008 137.836 107.955C138.366 107.886 138.796 107.835 139.126 107.801C139.459 107.763 139.702 107.701 139.853 107.614C140.009 107.527 140.086 107.375 140.086 107.159V107.114C140.086 106.553 139.933 106.117 139.626 105.807C139.323 105.496 138.863 105.341 138.245 105.341C137.605 105.341 137.103 105.481 136.74 105.761C136.376 106.042 136.12 106.341 135.973 106.659L134.7 106.205C134.927 105.674 135.23 105.261 135.609 104.966C135.991 104.667 136.408 104.458 136.859 104.341C137.313 104.22 137.76 104.159 138.2 104.159C138.48 104.159 138.802 104.193 139.166 104.261C139.533 104.326 139.887 104.46 140.228 104.665C140.573 104.869 140.859 105.178 141.086 105.591C141.313 106.004 141.427 106.557 141.427 107.25V113H140.086V111.818H140.018C139.927 112.008 139.776 112.21 139.563 112.426C139.351 112.642 139.069 112.826 138.717 112.977C138.365 113.129 137.935 113.205 137.427 113.205ZM137.632 112C138.162 112 138.609 111.896 138.973 111.688C139.34 111.479 139.616 111.21 139.802 110.881C139.991 110.551 140.086 110.205 140.086 109.841V108.614C140.029 108.682 139.904 108.744 139.711 108.801C139.522 108.854 139.302 108.902 139.052 108.943C138.806 108.981 138.565 109.015 138.331 109.045C138.099 109.072 137.912 109.095 137.768 109.114C137.42 109.159 137.094 109.233 136.791 109.335C136.491 109.434 136.249 109.583 136.063 109.784C135.882 109.981 135.791 110.25 135.791 110.591C135.791 111.057 135.963 111.409 136.308 111.648C136.656 111.883 137.098 112 137.632 112ZM143.075 104.273H144.415V111.75H147.711V104.273H149.052V111.75H152.347V104.273H153.688V113H143.075V104.273ZM158.996 113.182C158.155 113.182 157.43 112.996 156.82 112.625C156.214 112.25 155.746 111.727 155.417 111.057C155.091 110.383 154.928 109.598 154.928 108.705C154.928 107.811 155.091 107.023 155.417 106.341C155.746 105.655 156.204 105.121 156.792 104.739C157.382 104.352 158.072 104.159 158.86 104.159C159.314 104.159 159.763 104.235 160.206 104.386C160.65 104.538 161.053 104.784 161.417 105.125C161.78 105.462 162.07 105.909 162.286 106.466C162.502 107.023 162.61 107.708 162.61 108.523V109.091H155.882V107.932H161.246C161.246 107.439 161.148 107 160.951 106.614C160.757 106.227 160.481 105.922 160.121 105.699C159.765 105.475 159.345 105.364 158.86 105.364C158.326 105.364 157.864 105.496 157.473 105.761C157.087 106.023 156.79 106.364 156.581 106.784C156.373 107.205 156.269 107.655 156.269 108.136V108.909C156.269 109.568 156.382 110.127 156.61 110.585C156.841 111.04 157.161 111.386 157.57 111.625C157.979 111.86 158.454 111.977 158.996 111.977C159.348 111.977 159.667 111.928 159.951 111.83C160.239 111.727 160.487 111.576 160.695 111.375C160.903 111.17 161.064 110.917 161.178 110.614L162.473 110.977C162.337 111.417 162.108 111.803 161.786 112.136C161.464 112.466 161.066 112.723 160.593 112.909C160.119 113.091 159.587 113.182 158.996 113.182ZM168.89 111.023L173.095 104.273H174.64V113H173.3V106.25L169.118 113H167.55V104.273H168.89V111.023ZM181.069 111.182L184.115 104.273H185.387L181.615 113H180.524L176.819 104.273H178.069L181.069 111.182ZM177.637 104.273V113H176.296V104.273H177.637ZM184.501 113V104.273H185.842V113H184.501ZM192.746 113V105.5H190.428C189.906 105.5 189.495 105.621 189.195 105.864C188.896 106.106 188.746 106.439 188.746 106.864C188.746 107.28 188.881 107.608 189.15 107.847C189.423 108.085 189.796 108.205 190.269 108.205H193.087V109.455H190.269C189.678 109.455 189.169 109.35 188.741 109.142C188.313 108.934 187.983 108.636 187.752 108.25C187.521 107.86 187.406 107.398 187.406 106.864C187.406 106.326 187.527 105.864 187.769 105.477C188.012 105.091 188.358 104.794 188.809 104.585C189.263 104.377 189.803 104.273 190.428 104.273H194.019V113H192.746ZM186.928 113L189.406 108.659H190.86L188.383 113H186.928Z" fill="#817979"/>
<rect x="100" y="158" width="463.484" height="55" rx="9" stroke="#D9D9D9" stroke-width="2"/>
<path d="M125.434 190V178.364H132.457V179.614H126.844V183.545H132.094V184.795H126.844V188.75H132.548V190H125.434ZM139.015 184.386V185.636H133.924V184.386H139.015ZM140.575 190V181.273H141.87V182.636H141.984C142.165 182.17 142.459 181.809 142.864 181.551C143.27 181.29 143.756 181.159 144.325 181.159C144.9 181.159 145.379 181.29 145.762 181.551C146.148 181.809 146.45 182.17 146.665 182.636H146.756C146.98 182.186 147.315 181.828 147.762 181.562C148.209 181.294 148.745 181.159 149.37 181.159C150.15 181.159 150.789 181.403 151.285 181.892C151.781 182.377 152.029 183.133 152.029 184.159V190H150.688V184.159C150.688 183.515 150.512 183.055 150.16 182.778C149.807 182.502 149.393 182.364 148.915 182.364C148.302 182.364 147.826 182.549 147.489 182.92C147.152 183.288 146.984 183.754 146.984 184.318V190H145.62V184.023C145.62 183.527 145.459 183.127 145.137 182.824C144.815 182.517 144.4 182.364 143.893 182.364C143.544 182.364 143.218 182.456 142.915 182.642C142.616 182.828 142.374 183.085 142.188 183.415C142.006 183.741 141.915 184.117 141.915 184.545V190H140.575ZM156.249 190.205C155.696 190.205 155.194 190.1 154.743 189.892C154.293 189.68 153.935 189.375 153.669 188.977C153.404 188.576 153.272 188.091 153.272 187.523C153.272 187.023 153.37 186.617 153.567 186.307C153.764 185.992 154.027 185.746 154.357 185.568C154.686 185.39 155.05 185.258 155.448 185.17C155.849 185.08 156.253 185.008 156.658 184.955C157.188 184.886 157.618 184.835 157.948 184.801C158.281 184.763 158.524 184.701 158.675 184.614C158.83 184.527 158.908 184.375 158.908 184.159V184.114C158.908 183.553 158.755 183.117 158.448 182.807C158.145 182.496 157.685 182.341 157.067 182.341C156.427 182.341 155.925 182.481 155.561 182.761C155.198 183.042 154.942 183.341 154.794 183.659L153.522 183.205C153.749 182.674 154.052 182.261 154.431 181.966C154.813 181.667 155.23 181.458 155.681 181.341C156.135 181.22 156.582 181.159 157.022 181.159C157.302 181.159 157.624 181.193 157.988 181.261C158.355 181.326 158.709 181.46 159.05 181.665C159.395 181.869 159.681 182.178 159.908 182.591C160.135 183.004 160.249 183.557 160.249 184.25V190H158.908V188.818H158.84C158.749 189.008 158.597 189.21 158.385 189.426C158.173 189.642 157.891 189.826 157.539 189.977C157.186 190.129 156.757 190.205 156.249 190.205ZM156.454 189C156.984 189 157.431 188.896 157.794 188.688C158.162 188.479 158.438 188.21 158.624 187.881C158.813 187.551 158.908 187.205 158.908 186.841V185.614C158.851 185.682 158.726 185.744 158.533 185.801C158.344 185.854 158.124 185.902 157.874 185.943C157.628 185.981 157.387 186.015 157.152 186.045C156.921 186.072 156.734 186.095 156.59 186.114C156.241 186.159 155.916 186.233 155.613 186.335C155.313 186.434 155.071 186.583 154.885 186.784C154.704 186.981 154.613 187.25 154.613 187.591C154.613 188.057 154.785 188.409 155.13 188.648C155.478 188.883 155.919 189 156.454 189ZM161.896 190V181.273H163.237V190H161.896ZM162.578 179.818C162.317 179.818 162.091 179.729 161.902 179.551C161.716 179.373 161.624 179.159 161.624 178.909C161.624 178.659 161.716 178.445 161.902 178.267C162.091 178.089 162.317 178 162.578 178C162.84 178 163.063 178.089 163.249 178.267C163.438 178.445 163.533 178.659 163.533 178.909C163.533 179.159 163.438 179.373 163.249 179.551C163.063 179.729 162.84 179.818 162.578 179.818ZM166.234 178.364V190H164.893V178.364H166.234Z" fill="#817979"/>
<rect x="100" y="235" width="463.484" height="55" rx="9" stroke="#D9D9D9" stroke-width="2"/>
<path d="M124.798 256.614V255.364H133.525V256.614H129.866V267H128.457V256.614H124.798ZM137.112 267.182C136.271 267.182 135.545 266.996 134.936 266.625C134.33 266.25 133.862 265.727 133.532 265.057C133.206 264.383 133.044 263.598 133.044 262.705C133.044 261.811 133.206 261.023 133.532 260.341C133.862 259.655 134.32 259.121 134.907 258.739C135.498 258.352 136.188 258.159 136.975 258.159C137.43 258.159 137.879 258.235 138.322 258.386C138.765 258.538 139.169 258.784 139.532 259.125C139.896 259.462 140.186 259.909 140.402 260.466C140.617 261.023 140.725 261.708 140.725 262.523V263.091H133.998V261.932H139.362C139.362 261.439 139.263 261 139.066 260.614C138.873 260.227 138.597 259.922 138.237 259.699C137.881 259.475 137.46 259.364 136.975 259.364C136.441 259.364 135.979 259.496 135.589 259.761C135.203 260.023 134.905 260.364 134.697 260.784C134.489 261.205 134.384 261.655 134.384 262.136V262.909C134.384 263.568 134.498 264.127 134.725 264.585C134.956 265.04 135.277 265.386 135.686 265.625C136.095 265.86 136.57 265.977 137.112 265.977C137.464 265.977 137.782 265.928 138.066 265.83C138.354 265.727 138.602 265.576 138.811 265.375C139.019 265.17 139.18 264.917 139.294 264.614L140.589 264.977C140.453 265.417 140.223 265.803 139.902 266.136C139.58 266.466 139.182 266.723 138.708 266.909C138.235 267.091 137.703 267.182 137.112 267.182ZM141.192 267V265.75H141.511C141.772 265.75 141.99 265.699 142.164 265.597C142.338 265.491 142.478 265.307 142.584 265.045C142.694 264.78 142.778 264.413 142.834 263.943C142.895 263.47 142.939 262.867 142.965 262.136L143.124 258.273H148.942V267H147.602V259.523H144.397L144.261 262.636C144.23 263.352 144.166 263.983 144.067 264.528C143.973 265.07 143.827 265.525 143.63 265.892C143.437 266.259 143.179 266.536 142.857 266.722C142.535 266.907 142.132 267 141.647 267H141.192ZM154.262 267.182C153.421 267.182 152.695 266.996 152.086 266.625C151.48 266.25 151.012 265.727 150.682 265.057C150.356 264.383 150.194 263.598 150.194 262.705C150.194 261.811 150.356 261.023 150.682 260.341C151.012 259.655 151.47 259.121 152.057 258.739C152.648 258.352 153.338 258.159 154.125 258.159C154.58 258.159 155.029 258.235 155.472 258.386C155.915 258.538 156.319 258.784 156.682 259.125C157.046 259.462 157.336 259.909 157.552 260.466C157.767 261.023 157.875 261.708 157.875 262.523V263.091H151.148V261.932H156.512C156.512 261.439 156.413 261 156.216 260.614C156.023 260.227 155.747 259.922 155.387 259.699C155.031 259.475 154.61 259.364 154.125 259.364C153.591 259.364 153.129 259.496 152.739 259.761C152.353 260.023 152.055 260.364 151.847 260.784C151.639 261.205 151.534 261.655 151.534 262.136V262.909C151.534 263.568 151.648 264.127 151.875 264.585C152.106 265.04 152.427 265.386 152.836 265.625C153.245 265.86 153.72 265.977 154.262 265.977C154.614 265.977 154.932 265.928 155.216 265.83C155.504 265.727 155.752 265.576 155.961 265.375C156.169 265.17 156.33 264.917 156.444 264.614L157.739 264.977C157.603 265.417 157.373 265.803 157.052 266.136C156.73 266.466 156.332 266.723 155.858 266.909C155.385 267.091 154.853 267.182 154.262 267.182ZM162.661 269.977V255.364H164.002V269.977H162.661ZM162.661 267.182C162.07 267.182 161.532 267.076 161.047 266.864C160.562 266.648 160.145 266.343 159.797 265.949C159.448 265.551 159.18 265.076 158.99 264.523C158.801 263.97 158.706 263.356 158.706 262.682C158.706 262 158.801 261.383 158.99 260.83C159.18 260.273 159.448 259.795 159.797 259.398C160.145 259 160.562 258.695 161.047 258.483C161.532 258.267 162.07 258.159 162.661 258.159H163.07V267.182H162.661ZM162.661 265.977H162.888V259.364H162.661C162.214 259.364 161.825 259.455 161.496 259.636C161.166 259.814 160.894 260.059 160.678 260.369C160.466 260.676 160.306 261.028 160.2 261.426C160.098 261.824 160.047 262.242 160.047 262.682C160.047 263.265 160.14 263.807 160.325 264.307C160.511 264.807 160.797 265.21 161.183 265.517C161.57 265.824 162.062 265.977 162.661 265.977ZM164.002 267.182H163.592V258.159H164.002C164.592 258.159 165.13 258.267 165.615 258.483C166.1 258.695 166.517 259 166.865 259.398C167.214 259.795 167.483 260.273 167.672 260.83C167.861 261.383 167.956 262 167.956 262.682C167.956 263.356 167.861 263.97 167.672 264.523C167.483 265.076 167.214 265.551 166.865 265.949C166.517 266.343 166.1 266.648 165.615 266.864C165.13 267.076 164.592 267.182 164.002 267.182ZM164.002 265.977C164.452 265.977 164.841 265.89 165.166 265.716C165.496 265.538 165.767 265.295 165.979 264.989C166.195 264.678 166.354 264.326 166.456 263.932C166.562 263.534 166.615 263.117 166.615 262.682C166.615 262.098 166.522 261.555 166.337 261.051C166.151 260.547 165.865 260.14 165.479 259.83C165.092 259.519 164.6 259.364 164.002 259.364H163.774V265.977H164.002ZM172.751 267.182C171.963 267.182 171.272 266.994 170.677 266.619C170.086 266.244 169.624 265.72 169.291 265.045C168.961 264.371 168.797 263.583 168.797 262.682C168.797 261.773 168.961 260.979 169.291 260.301C169.624 259.623 170.086 259.097 170.677 258.722C171.272 258.347 171.963 258.159 172.751 258.159C173.539 258.159 174.229 258.347 174.819 258.722C175.414 259.097 175.876 259.623 176.206 260.301C176.539 260.979 176.706 261.773 176.706 262.682C176.706 263.583 176.539 264.371 176.206 265.045C175.876 265.72 175.414 266.244 174.819 266.619C174.229 266.994 173.539 267.182 172.751 267.182ZM172.751 265.977C173.35 265.977 173.842 265.824 174.229 265.517C174.615 265.21 174.901 264.807 175.086 264.307C175.272 263.807 175.365 263.265 175.365 262.682C175.365 262.098 175.272 261.555 175.086 261.051C174.901 260.547 174.615 260.14 174.229 259.83C173.842 259.519 173.35 259.364 172.751 259.364C172.153 259.364 171.66 259.519 171.274 259.83C170.888 260.14 170.602 260.547 170.416 261.051C170.23 261.555 170.138 262.098 170.138 262.682C170.138 263.265 170.23 263.807 170.416 264.307C170.602 264.807 170.888 265.21 171.274 265.517C171.66 265.824 172.153 265.977 172.751 265.977ZM183.794 262.023V263.273H178.975V262.023H183.794ZM179.294 258.273V267H177.953V258.273H179.294ZM184.816 258.273V267H183.475V258.273H184.816ZM188.692 261.909L188.783 259.409L186.67 260.75L186.124 259.795L188.352 258.636L186.124 257.477L186.67 256.523L188.783 257.864L188.692 255.364H189.783L189.692 257.864L191.806 256.523L192.352 257.477L190.124 258.636L192.352 259.795L191.806 260.75L189.692 259.409L189.783 261.909H188.692Z" fill="#817979"/>
<defs>
<clipPath id="clip0_2_5320">
<rect width="21.7199" height="21.7199" fill="white" transform="translate(1002.45 249.169) rotate(-44.5486)"/>
</clipPath>
</defs>
</svg>
