<svg width="1159" height="65" viewBox="0 0 1159 65" fill="none" xmlns="http://www.w3.org/2000/svg">
<path d="M322.276 38.179V36.696H323.094C323.409 36.696 323.673 36.6342 323.886 36.5107C324.104 36.3871 324.283 36.2273 324.423 36.0312C324.568 35.8352 324.688 35.6307 324.781 35.4176L324.986 34.9318L320.46 24.9091H322.173L325.778 33.0398L329.077 24.9091H330.764L326.239 35.8778C326.06 36.2869 325.855 36.6662 325.625 37.0156C325.399 37.3651 325.09 37.6463 324.698 37.8594C324.31 38.0724 323.784 38.179 323.119 38.179H322.276ZM334.313 38.2045C333.393 38.2045 332.6 37.9872 331.935 37.5526C331.27 37.1179 330.759 36.5192 330.401 35.7564C330.043 34.9936 329.864 34.1222 329.864 33.142C329.864 32.1449 330.047 31.2649 330.414 30.5021C330.785 29.7351 331.3 29.1364 331.961 28.706C332.626 28.2713 333.401 28.054 334.288 28.054C334.978 28.054 335.6 28.1818 336.154 28.4375C336.708 28.6932 337.162 29.0511 337.515 29.5114C337.869 29.9716 338.089 30.5085 338.174 31.1222H336.665C336.55 30.6747 336.295 30.2784 335.898 29.9332C335.506 29.5838 334.978 29.4091 334.313 29.4091C333.725 29.4091 333.209 29.5625 332.766 29.8693C332.327 30.1719 331.984 30.6001 331.737 31.1541C331.494 31.7038 331.373 32.3494 331.373 33.0909C331.373 33.8494 331.492 34.5099 331.731 35.0724C331.974 35.6349 332.314 36.0717 332.753 36.3828C333.197 36.6939 333.716 36.8494 334.313 36.8494C334.705 36.8494 335.061 36.7812 335.381 36.6449C335.7 36.5085 335.971 36.3125 336.192 36.0568C336.414 35.8011 336.572 35.4943 336.665 35.1364H338.174C338.089 35.7159 337.878 36.2379 337.541 36.7024C337.209 37.1626 336.768 37.5291 336.218 37.8018C335.672 38.0703 335.038 38.2045 334.313 38.2045ZM338.61 38V36.5938H338.968C339.262 36.5938 339.507 36.5362 339.703 36.4212C339.899 36.3018 340.057 36.0952 340.176 35.8011C340.299 35.5028 340.393 35.0895 340.457 34.5611C340.525 34.0284 340.574 33.3509 340.604 32.5284L340.783 28.1818H347.329V38H345.82V29.5881H342.215L342.062 33.0909C342.027 33.8963 341.955 34.6058 341.844 35.2195C341.738 35.8288 341.574 36.3402 341.352 36.7536C341.135 37.1669 340.845 37.478 340.483 37.6868C340.12 37.8956 339.667 38 339.121 38H338.61ZM349.816 41.6818C349.561 41.6818 349.333 41.6605 349.132 41.6179C348.932 41.5795 348.794 41.5412 348.717 41.5028L349.1 40.1733C349.467 40.267 349.791 40.3011 350.072 40.2756C350.353 40.25 350.603 40.1243 350.82 39.8984C351.041 39.6768 351.244 39.3168 351.427 38.8182L351.708 38.0511L348.078 28.1818H349.714L352.424 36.0057H352.527L355.237 28.1818H356.873L352.706 39.4318C352.518 39.9389 352.286 40.3587 352.009 40.6911C351.732 41.0277 351.41 41.277 351.044 41.4389C350.681 41.6009 350.272 41.6818 349.816 41.6818ZM364.024 28.1818V29.5881H359.473V38H357.964V28.1818H364.024ZM366.835 35.7756L371.565 28.1818H373.303V38H371.795V30.4062L367.09 38H365.326V28.1818H366.835V35.7756Z" fill="#2E3235"/>
<path d="M463.378 24.9091V38H461.793V26.3153H455.196V38H453.611V24.9091H463.378ZM465.471 41.6818V28.1818H466.928V29.7415H467.107C467.218 29.571 467.371 29.3537 467.568 29.0895C467.768 28.821 468.053 28.5824 468.424 28.3736C468.799 28.1605 469.306 28.054 469.945 28.054C470.772 28.054 471.501 28.2607 472.131 28.674C472.762 29.0874 473.254 29.6733 473.608 30.4318C473.962 31.1903 474.139 32.0852 474.139 33.1165C474.139 34.1562 473.962 35.0575 473.608 35.8203C473.254 36.5788 472.764 37.1669 472.138 37.5845C471.511 37.9979 470.789 38.2045 469.971 38.2045C469.34 38.2045 468.835 38.1001 468.456 37.8913C468.077 37.6783 467.785 37.4375 467.58 37.169C467.376 36.8963 467.218 36.6705 467.107 36.4915H466.979V41.6818H465.471ZM466.954 33.0909C466.954 33.8324 467.063 34.4865 467.28 35.0533C467.497 35.6158 467.815 36.0568 468.232 36.3764C468.65 36.6918 469.161 36.8494 469.766 36.8494C470.397 36.8494 470.923 36.6832 471.345 36.3509C471.771 36.0142 472.091 35.5625 472.304 34.9957C472.521 34.4247 472.63 33.7898 472.63 33.0909C472.63 32.4006 472.523 31.7784 472.31 31.2244C472.102 30.6662 471.784 30.2251 471.358 29.9013C470.936 29.5732 470.406 29.4091 469.766 29.4091C469.153 29.4091 468.637 29.5646 468.219 29.8757C467.802 30.1825 467.487 30.6129 467.273 31.1669C467.06 31.7166 466.954 32.358 466.954 33.0909ZM478.429 38.2301C477.807 38.2301 477.242 38.1129 476.735 37.8786C476.228 37.6399 475.825 37.2969 475.527 36.8494C475.229 36.3977 475.079 35.8523 475.079 35.2131C475.079 34.6506 475.19 34.1946 475.412 33.8452C475.633 33.4915 475.93 33.2145 476.3 33.0142C476.671 32.8139 477.08 32.6648 477.528 32.5668C477.979 32.4645 478.433 32.3835 478.889 32.3239C479.486 32.2472 479.969 32.1896 480.34 32.1513C480.715 32.1087 480.988 32.0384 481.158 31.9403C481.333 31.8423 481.42 31.6719 481.42 31.429V31.3778C481.42 30.7472 481.248 30.2571 480.903 29.9077C480.562 29.5582 480.044 29.3835 479.349 29.3835C478.629 29.3835 478.065 29.5412 477.655 29.8565C477.246 30.1719 476.959 30.5085 476.793 30.8665L475.361 30.3551C475.616 29.7585 475.957 29.294 476.383 28.9616C476.814 28.625 477.283 28.3906 477.79 28.2585C478.301 28.1222 478.804 28.054 479.298 28.054C479.614 28.054 479.976 28.0923 480.385 28.169C480.798 28.2415 481.197 28.3928 481.58 28.6229C481.968 28.853 482.29 29.2003 482.545 29.6648C482.801 30.1293 482.929 30.7514 482.929 31.5312V38H481.42V36.6705H481.344C481.241 36.8835 481.071 37.1115 480.832 37.3544C480.594 37.5973 480.276 37.804 479.88 37.9744C479.484 38.1449 479 38.2301 478.429 38.2301ZM478.659 36.875C479.256 36.875 479.758 36.7578 480.168 36.5234C480.581 36.2891 480.892 35.9865 481.101 35.6158C481.314 35.245 481.42 34.8551 481.42 34.446V33.0653C481.356 33.142 481.216 33.2124 480.998 33.2763C480.785 33.3359 480.538 33.3892 480.257 33.4361C479.98 33.4787 479.709 33.517 479.445 33.5511C479.185 33.581 478.974 33.6065 478.812 33.6278C478.42 33.679 478.054 33.7621 477.713 33.8771C477.376 33.9879 477.104 34.1562 476.895 34.3821C476.69 34.6037 476.588 34.9062 476.588 35.2898C476.588 35.8139 476.782 36.2102 477.17 36.4787C477.562 36.7429 478.058 36.875 478.659 36.875ZM486.291 35.7756L491.021 28.1818H492.76V38H491.251V30.4062L486.546 38H484.782V28.1818H486.291V35.7756ZM490.024 24.9091H491.43C491.43 25.5994 491.191 26.1641 490.714 26.603C490.237 27.0419 489.589 27.2614 488.771 27.2614C487.965 27.2614 487.324 27.0419 486.847 26.603C486.374 26.1641 486.137 25.5994 486.137 24.9091H487.544C487.544 25.2415 487.635 25.5334 487.818 25.7848C488.006 26.0362 488.323 26.1619 488.771 26.1619C489.218 26.1619 489.538 26.0362 489.73 25.7848C489.926 25.5334 490.024 25.2415 490.024 24.9091ZM498.611 38.2045C497.691 38.2045 496.898 37.9872 496.233 37.5526C495.569 37.1179 495.057 36.5192 494.699 35.7564C494.341 34.9936 494.162 34.1222 494.162 33.142C494.162 32.1449 494.345 31.2649 494.712 30.5021C495.083 29.7351 495.598 29.1364 496.259 28.706C496.924 28.2713 497.699 28.054 498.586 28.054C499.276 28.054 499.898 28.1818 500.452 28.4375C501.006 28.6932 501.46 29.0511 501.814 29.5114C502.167 29.9716 502.387 30.5085 502.472 31.1222H500.963C500.848 30.6747 500.593 30.2784 500.196 29.9332C499.804 29.5838 499.276 29.4091 498.611 29.4091C498.023 29.4091 497.507 29.5625 497.064 29.8693C496.625 30.1719 496.282 30.6001 496.035 31.1541C495.792 31.7038 495.671 32.3494 495.671 33.0909C495.671 33.8494 495.79 34.5099 496.029 35.0724C496.272 35.6349 496.613 36.0717 497.051 36.3828C497.495 36.6939 498.015 36.8494 498.611 36.8494C499.003 36.8494 499.359 36.7812 499.679 36.6449C499.998 36.5085 500.269 36.3125 500.49 36.0568C500.712 35.8011 500.87 35.4943 500.963 35.1364H502.472C502.387 35.7159 502.176 36.2379 501.839 36.7024C501.507 37.1626 501.066 37.5291 500.516 37.8018C499.97 38.0703 499.336 38.2045 498.611 38.2045ZM509.402 31.6847V33.0909H503.675V31.6847H509.402ZM510.287 38V36.5938H510.645C510.939 36.5938 511.184 36.5362 511.38 36.4212C511.576 36.3018 511.734 36.0952 511.853 35.8011C511.977 35.5028 512.071 35.0895 512.134 34.5611C512.203 34.0284 512.252 33.3509 512.281 32.5284L512.46 28.1818H519.006V38H517.497V29.5881H513.892L513.739 33.0909C513.705 33.8963 513.632 34.6058 513.522 35.2195C513.415 35.8288 513.251 36.3402 513.029 36.7536C512.812 37.1669 512.522 37.478 512.16 37.6868C511.798 37.8956 511.344 38 510.799 38H510.287ZM522.382 35.7756L527.112 28.1818H528.851V38H527.342V30.4062L522.638 38H520.874V28.1818H522.382V35.7756ZM534.703 38.2045C533.782 38.2045 532.989 37.9872 532.325 37.5526C531.66 37.1179 531.149 36.5192 530.791 35.7564C530.433 34.9936 530.254 34.1222 530.254 33.142C530.254 32.1449 530.437 31.2649 530.803 30.5021C531.174 29.7351 531.69 29.1364 532.35 28.706C533.015 28.2713 533.791 28.054 534.677 28.054C535.367 28.054 535.989 28.1818 536.543 28.4375C537.097 28.6932 537.551 29.0511 537.905 29.5114C538.259 29.9716 538.478 30.5085 538.563 31.1222H537.055C536.94 30.6747 536.684 30.2784 536.288 29.9332C535.896 29.5838 535.367 29.4091 534.703 29.4091C534.114 29.4091 533.599 29.5625 533.156 29.8693C532.717 30.1719 532.374 30.6001 532.127 31.1541C531.884 31.7038 531.762 32.3494 531.762 33.0909C531.762 33.8494 531.882 34.5099 532.12 35.0724C532.363 35.6349 532.704 36.0717 533.143 36.3828C533.586 36.6939 534.106 36.8494 534.703 36.8494C535.095 36.8494 535.45 36.7812 535.77 36.6449C536.09 36.5085 536.36 36.3125 536.582 36.0568C536.803 35.8011 536.961 35.4943 537.055 35.1364H538.563C538.478 35.7159 538.267 36.2379 537.931 36.7024C537.598 37.1626 537.157 37.5291 536.607 37.8018C536.062 38.0703 535.427 38.2045 534.703 38.2045ZM539.095 29.5881V28.1818H547.072V29.5881H543.851V38H542.342V29.5881H539.095Z" fill="#2E3235"/>
<path d="M636.631 31.4545C636.631 32.8352 636.381 34.0284 635.883 35.0341C635.384 36.0398 634.7 36.8153 633.831 37.3608C632.962 37.9062 631.969 38.179 630.852 38.179C629.736 38.179 628.743 37.9062 627.874 37.3608C627.004 36.8153 626.32 36.0398 625.822 35.0341C625.323 34.0284 625.074 32.8352 625.074 31.4545C625.074 30.0739 625.323 28.8807 625.822 27.875C626.32 26.8693 627.004 26.0938 627.874 25.5483C628.743 25.0028 629.736 24.7301 630.852 24.7301C631.969 24.7301 632.962 25.0028 633.831 25.5483C634.7 26.0938 635.384 26.8693 635.883 27.875C636.381 28.8807 636.631 30.0739 636.631 31.4545ZM635.097 31.4545C635.097 30.321 634.907 29.3643 634.528 28.5845C634.153 27.8047 633.643 27.2145 633 26.8139C632.361 26.4134 631.645 26.2131 630.852 26.2131C630.06 26.2131 629.342 26.4134 628.698 26.8139C628.059 27.2145 627.55 27.8047 627.17 28.5845C626.795 29.3643 626.608 30.321 626.608 31.4545C626.608 32.5881 626.795 33.5447 627.17 34.3246C627.55 35.1044 628.059 35.6946 628.698 36.0952C629.342 36.4957 630.06 36.696 630.852 36.696C631.645 36.696 632.361 36.4957 633 36.0952C633.643 35.6946 634.153 35.1044 634.528 34.3246C634.907 33.5447 635.097 32.5881 635.097 31.4545ZM642.354 38V28.1818H643.863V32.4517H644.86L648.388 28.1818H650.331L646.368 32.9119L650.383 38H648.439L645.218 33.858H643.863V38H642.354ZM654.706 38.2045C653.82 38.2045 653.042 37.9936 652.373 37.5717C651.709 37.1499 651.189 36.5597 650.814 35.8011C650.443 35.0426 650.258 34.1562 650.258 33.142C650.258 32.1193 650.443 31.2266 650.814 30.4638C651.189 29.701 651.709 29.1087 652.373 28.6868C653.042 28.2649 653.82 28.054 654.706 28.054C655.593 28.054 656.368 28.2649 657.033 28.6868C657.702 29.1087 658.222 29.701 658.593 30.4638C658.968 31.2266 659.155 32.1193 659.155 33.142C659.155 34.1562 658.968 35.0426 658.593 35.8011C658.222 36.5597 657.702 37.1499 657.033 37.5717C656.368 37.9936 655.593 38.2045 654.706 38.2045ZM654.706 36.8494C655.38 36.8494 655.934 36.6768 656.368 36.3317C656.803 35.9865 657.125 35.5327 657.334 34.9702C657.542 34.4077 657.647 33.7983 657.647 33.142C657.647 32.4858 657.542 31.8743 657.334 31.3075C657.125 30.7408 656.803 30.2827 656.368 29.9332C655.934 29.5838 655.38 29.4091 654.706 29.4091C654.033 29.4091 653.479 29.5838 653.044 29.9332C652.61 30.2827 652.288 30.7408 652.079 31.3075C651.87 31.8743 651.766 32.4858 651.766 33.142C651.766 33.7983 651.87 34.4077 652.079 34.9702C652.288 35.5327 652.61 35.9865 653.044 36.3317C653.479 36.6768 654.033 36.8494 654.706 36.8494ZM665.927 35.9545L669.353 28.1818H670.785L666.541 38H665.314L661.146 28.1818H662.552L665.927 35.9545ZM662.067 28.1818V38H660.558V28.1818H662.067ZM669.788 38V28.1818H671.297V38H669.788ZM673.158 38V28.1818H680.88V38H679.371V29.5881H674.667V38H673.158ZM685.624 38.2301C685.002 38.2301 684.437 38.1129 683.93 37.8786C683.423 37.6399 683.02 37.2969 682.722 36.8494C682.424 36.3977 682.274 35.8523 682.274 35.2131C682.274 34.6506 682.385 34.1946 682.607 33.8452C682.828 33.4915 683.125 33.2145 683.495 33.0142C683.866 32.8139 684.275 32.6648 684.723 32.5668C685.174 32.4645 685.628 32.3835 686.084 32.3239C686.681 32.2472 687.164 32.1896 687.535 32.1513C687.91 32.1087 688.183 32.0384 688.353 31.9403C688.528 31.8423 688.615 31.6719 688.615 31.429V31.3778C688.615 30.7472 688.443 30.2571 688.098 29.9077C687.757 29.5582 687.239 29.3835 686.544 29.3835C685.824 29.3835 685.259 29.5412 684.85 29.8565C684.441 30.1719 684.154 30.5085 683.987 30.8665L682.556 30.3551C682.811 29.7585 683.152 29.294 683.578 28.9616C684.009 28.625 684.477 28.3906 684.985 28.2585C685.496 28.1222 685.999 28.054 686.493 28.054C686.808 28.054 687.171 28.0923 687.58 28.169C687.993 28.2415 688.392 28.3928 688.775 28.6229C689.163 28.853 689.485 29.2003 689.74 29.6648C689.996 30.1293 690.124 30.7514 690.124 31.5312V38H688.615V36.6705H688.539C688.436 36.8835 688.266 37.1115 688.027 37.3544C687.789 37.5973 687.471 37.804 687.075 37.9744C686.678 38.1449 686.195 38.2301 685.624 38.2301ZM685.854 36.875C686.45 36.875 686.953 36.7578 687.362 36.5234C687.776 36.2891 688.087 35.9865 688.296 35.6158C688.509 35.245 688.615 34.8551 688.615 34.446V33.0653C688.551 33.142 688.411 33.2124 688.193 33.2763C687.98 33.3359 687.733 33.3892 687.452 33.4361C687.175 33.4787 686.904 33.517 686.64 33.5511C686.38 33.581 686.169 33.6065 686.007 33.6278C685.615 33.679 685.249 33.7621 684.908 33.8771C684.571 33.9879 684.299 34.1562 684.09 34.3821C683.885 34.6037 683.783 34.9062 683.783 35.2898C683.783 35.8139 683.977 36.2102 684.365 36.4787C684.757 36.7429 685.253 36.875 685.854 36.875ZM698.548 32.4006V33.8068H693.128V32.4006H698.548ZM693.486 28.1818V38H691.977V28.1818H693.486ZM699.699 28.1818V38H698.19V28.1818H699.699ZM703.062 35.7756L707.792 28.1818H709.531V38H708.022V30.4062L703.318 38H701.554V28.1818H703.062V35.7756ZM712.902 35.7756L717.633 28.1818H719.371V38H717.863V30.4062L713.158 38H711.394V28.1818H712.902V35.7756Z" fill="#2E3235"/>
<path d="M806.281 38L801.781 31.9915H800.17V38H798.585V24.9091H800.17V30.5852H800.861L806.102 24.9091H807.994L802.702 30.6619L808.173 38H806.281ZM812.385 38.2045C811.499 38.2045 810.721 37.9936 810.052 37.5717C809.387 37.1499 808.868 36.5597 808.493 35.8011C808.122 35.0426 807.936 34.1562 807.936 33.142C807.936 32.1193 808.122 31.2266 808.493 30.4638C808.868 29.701 809.387 29.1087 810.052 28.6868C810.721 28.2649 811.499 28.054 812.385 28.054C813.272 28.054 814.047 28.2649 814.712 28.6868C815.381 29.1087 815.901 29.701 816.272 30.4638C816.647 31.2266 816.834 32.1193 816.834 33.142C816.834 34.1562 816.647 35.0426 816.272 35.8011C815.901 36.5597 815.381 37.1499 814.712 37.5717C814.047 37.9936 813.272 38.2045 812.385 38.2045ZM812.385 36.8494C813.059 36.8494 813.613 36.6768 814.047 36.3317C814.482 35.9865 814.804 35.5327 815.012 34.9702C815.221 34.4077 815.326 33.7983 815.326 33.142C815.326 32.4858 815.221 31.8743 815.012 31.3075C814.804 30.7408 814.482 30.2827 814.047 29.9332C813.613 29.5838 813.059 29.4091 812.385 29.4091C811.712 29.4091 811.158 29.5838 810.723 29.9332C810.289 30.2827 809.967 30.7408 809.758 31.3075C809.549 31.8743 809.445 32.4858 809.445 33.142C809.445 33.7983 809.549 34.4077 809.758 34.9702C809.967 35.5327 810.289 35.9865 810.723 36.3317C811.158 36.6768 811.712 36.8494 812.385 36.8494ZM824.808 32.4006V33.8068H819.388V32.4006H824.808ZM819.745 28.1818V38H818.237V28.1818H819.745ZM825.959 28.1818V38H824.45V28.1818H825.959ZM826.478 29.5881V28.1818H834.455V29.5881H831.233V38H829.725V29.5881H826.478ZM838.135 38.2301C837.513 38.2301 836.948 38.1129 836.441 37.8786C835.934 37.6399 835.531 37.2969 835.233 36.8494C834.934 36.3977 834.785 35.8523 834.785 35.2131C834.785 34.6506 834.896 34.1946 835.118 33.8452C835.339 33.4915 835.635 33.2145 836.006 33.0142C836.377 32.8139 836.786 32.6648 837.233 32.5668C837.685 32.4645 838.139 32.3835 838.595 32.3239C839.192 32.2472 839.675 32.1896 840.046 32.1513C840.421 32.1087 840.694 32.0384 840.864 31.9403C841.039 31.8423 841.126 31.6719 841.126 31.429V31.3778C841.126 30.7472 840.954 30.2571 840.608 29.9077C840.268 29.5582 839.75 29.3835 839.055 29.3835C838.335 29.3835 837.77 29.5412 837.361 29.8565C836.952 30.1719 836.665 30.5085 836.498 30.8665L835.067 30.3551C835.322 29.7585 835.663 29.294 836.089 28.9616C836.52 28.625 836.988 28.3906 837.496 28.2585C838.007 28.1222 838.51 28.054 839.004 28.054C839.319 28.054 839.682 28.0923 840.091 28.169C840.504 28.2415 840.902 28.3928 841.286 28.6229C841.674 28.853 841.996 29.2003 842.251 29.6648C842.507 30.1293 842.635 30.7514 842.635 31.5312V38H841.126V36.6705H841.05C840.947 36.8835 840.777 37.1115 840.538 37.3544C840.3 37.5973 839.982 37.804 839.586 37.9744C839.189 38.1449 838.706 38.2301 838.135 38.2301ZM838.365 36.875C838.961 36.875 839.464 36.7578 839.873 36.5234C840.287 36.2891 840.598 35.9865 840.807 35.6158C841.02 35.245 841.126 34.8551 841.126 34.446V33.0653C841.062 33.142 840.922 33.2124 840.704 33.2763C840.491 33.3359 840.244 33.3892 839.963 33.4361C839.686 33.4787 839.415 33.517 839.151 33.5511C838.891 33.581 838.68 33.6065 838.518 33.6278C838.126 33.679 837.76 33.7621 837.419 33.8771C837.082 33.9879 836.809 34.1562 836.601 34.3821C836.396 34.6037 836.294 34.9062 836.294 35.2898C836.294 35.8139 836.488 36.2102 836.875 36.4787C837.268 36.7429 837.764 36.875 838.365 36.875ZM844.488 38V28.1818H845.997V32.4517H846.994L850.522 28.1818H852.465L848.502 32.9119L852.517 38H850.573L847.352 33.858H845.997V38H844.488ZM852.694 29.5881V28.1818H860.671V29.5881H857.449V38H855.941V29.5881H852.694ZM863.275 31.7358H866.088C867.238 31.7358 868.118 32.0277 868.728 32.6115C869.337 33.1953 869.642 33.9347 869.642 34.8295C869.642 35.4176 869.505 35.9524 869.233 36.4339C868.96 36.9112 868.559 37.2926 868.031 37.5781C867.503 37.8594 866.855 38 866.088 38H861.971V28.1818H863.48V36.5938H866.088C866.684 36.5938 867.174 36.4361 867.558 36.1207C867.941 35.8054 868.133 35.4006 868.133 34.9062C868.133 34.3864 867.941 33.9624 867.558 33.6342C867.174 33.3061 866.684 33.142 866.088 33.142H863.275V31.7358ZM871.201 38V28.1818H872.71V38H871.201Z" fill="#2E3235"/>
<path d="M1004.53 37.7841V27.7273H1007.07V37.7841H1004.53ZM1000.77 34.027V31.4844H1010.83V34.027H1000.77ZM1012.76 40L1018.79 28.0682V27.9688H1011.77V25.4545H1021.97V28.0043L1015.94 40H1012.76ZM1026.49 37.4432V35.0213L1032.56 25.4545H1034.65V28.8068H1033.41L1029.59 34.8651V34.9787H1038.22V37.4432H1026.49ZM1033.47 40V36.7045L1033.53 35.6321V25.4545H1036.41V40H1033.47ZM1044.53 25.2557C1045.28 25.2557 1046 25.3812 1046.69 25.6321C1047.38 25.883 1048 26.2831 1048.55 26.8324C1049.1 27.3816 1049.53 28.1108 1049.85 29.0199C1050.17 29.9242 1050.33 31.0346 1050.34 32.3509C1050.34 33.5866 1050.2 34.6899 1049.92 35.6605C1049.64 36.6264 1049.25 37.4479 1048.73 38.125C1048.22 38.8021 1047.59 39.3182 1046.86 39.6733C1046.14 40.0237 1045.32 40.1989 1044.42 40.1989C1043.45 40.1989 1042.59 40.0118 1041.85 39.6378C1041.11 39.259 1040.51 38.7453 1040.05 38.0966C1039.6 37.4432 1039.33 36.7093 1039.24 35.8949H1042.27C1042.39 36.4252 1042.64 36.8371 1043.01 37.1307C1043.39 37.4195 1043.86 37.5639 1044.42 37.5639C1045.37 37.5639 1046.09 37.152 1046.58 36.3281C1047.07 35.4995 1047.32 34.3655 1047.33 32.9261H1047.23C1047.01 33.3523 1046.72 33.7192 1046.35 34.027C1045.98 34.33 1045.55 34.5644 1045.07 34.7301C1044.6 34.8958 1044.1 34.9787 1043.56 34.9787C1042.7 34.9787 1041.94 34.7775 1041.27 34.375C1040.6 33.9725 1040.07 33.4186 1039.68 32.7131C1039.29 32.0076 1039.09 31.2027 1039.09 30.2983C1039.09 29.3229 1039.31 28.4541 1039.77 27.6918C1040.22 26.9295 1040.86 26.3329 1041.67 25.902C1042.49 25.4664 1043.44 25.2509 1044.53 25.2557ZM1044.55 27.6705C1044.07 27.6705 1043.64 27.7841 1043.27 28.0114C1042.9 28.2386 1042.61 28.544 1042.39 28.9276C1042.18 29.3111 1042.07 29.7396 1042.08 30.2131C1042.08 30.6913 1042.18 31.1222 1042.39 31.5057C1042.6 31.8845 1042.89 32.1875 1043.26 32.4148C1043.63 32.6373 1044.05 32.7486 1044.52 32.7486C1044.88 32.7486 1045.2 32.6823 1045.51 32.5497C1045.81 32.4171 1046.07 32.2348 1046.3 32.0028C1046.52 31.7661 1046.7 31.4938 1046.83 31.1861C1046.96 30.8783 1047.02 30.5516 1047.02 30.206C1047.02 29.7467 1046.91 29.3253 1046.69 28.9418C1046.48 28.5582 1046.19 28.2505 1045.81 28.0185C1045.44 27.7865 1045.02 27.6705 1044.55 27.6705ZM1056.73 25.2557C1057.48 25.2557 1058.2 25.3812 1058.89 25.6321C1059.59 25.883 1060.21 26.2831 1060.75 26.8324C1061.3 27.3816 1061.73 28.1108 1062.05 29.0199C1062.37 29.9242 1062.54 31.0346 1062.54 32.3509C1062.54 33.5866 1062.4 34.6899 1062.12 35.6605C1061.85 36.6264 1061.45 37.4479 1060.94 38.125C1060.42 38.8021 1059.8 39.3182 1059.07 39.6733C1058.34 40.0237 1057.52 40.1989 1056.62 40.1989C1055.65 40.1989 1054.8 40.0118 1054.05 39.6378C1053.31 39.259 1052.71 38.7453 1052.26 38.0966C1051.81 37.4432 1051.53 36.7093 1051.44 35.8949H1054.47C1054.59 36.4252 1054.84 36.8371 1055.22 37.1307C1055.6 37.4195 1056.07 37.5639 1056.62 37.5639C1057.57 37.5639 1058.29 37.152 1058.78 36.3281C1059.28 35.4995 1059.52 34.3655 1059.53 32.9261H1059.43C1059.21 33.3523 1058.92 33.7192 1058.55 34.027C1058.18 34.33 1057.76 34.5644 1057.28 34.7301C1056.8 34.8958 1056.3 34.9787 1055.76 34.9787C1054.91 34.9787 1054.14 34.7775 1053.47 34.375C1052.8 33.9725 1052.27 33.4186 1051.88 32.7131C1051.49 32.0076 1051.3 31.2027 1051.3 30.2983C1051.29 29.3229 1051.52 28.4541 1051.97 27.6918C1052.43 26.9295 1053.06 26.3329 1053.88 25.902C1054.69 25.4664 1055.65 25.2509 1056.73 25.2557ZM1056.75 27.6705C1056.27 27.6705 1055.85 27.7841 1055.47 28.0114C1055.1 28.2386 1054.81 28.544 1054.59 28.9276C1054.38 29.3111 1054.28 29.7396 1054.28 30.2131C1054.28 30.6913 1054.38 31.1222 1054.59 31.5057C1054.81 31.8845 1055.09 32.1875 1055.46 32.4148C1055.83 32.6373 1056.25 32.7486 1056.72 32.7486C1057.08 32.7486 1057.41 32.6823 1057.71 32.5497C1058.01 32.4171 1058.28 32.2348 1058.5 32.0028C1058.73 31.7661 1058.9 31.4938 1059.03 31.1861C1059.16 30.8783 1059.22 30.5516 1059.22 30.206C1059.22 29.7467 1059.11 29.3253 1058.9 28.9418C1058.68 28.5582 1058.39 28.2505 1058.02 28.0185C1057.64 27.7865 1057.22 27.6705 1056.75 27.6705ZM1067.3 40V37.7841L1072.48 32.9901C1072.92 32.5639 1073.29 32.1804 1073.59 31.8395C1073.89 31.4986 1074.12 31.1648 1074.27 30.8381C1074.43 30.5066 1074.51 30.1491 1074.51 29.7656C1074.51 29.3395 1074.41 28.9725 1074.22 28.6648C1074.02 28.3523 1073.76 28.1132 1073.42 27.9474C1073.09 27.777 1072.7 27.6918 1072.28 27.6918C1071.83 27.6918 1071.45 27.7817 1071.11 27.9616C1070.78 28.1416 1070.53 28.3996 1070.35 28.7358C1070.17 29.072 1070.08 29.4721 1070.08 29.9361H1067.16C1067.16 28.9844 1067.37 28.1581 1067.8 27.4574C1068.24 26.7566 1068.84 26.2145 1069.62 25.831C1070.39 25.4474 1071.29 25.2557 1072.3 25.2557C1073.34 25.2557 1074.25 25.4403 1075.02 25.8097C1075.8 26.1742 1076.4 26.6809 1076.83 27.3295C1077.26 27.9782 1077.48 28.7216 1077.48 29.5597C1077.48 30.1089 1077.37 30.651 1077.15 31.1861C1076.94 31.7211 1076.56 32.3153 1076.01 32.9688C1075.46 33.6174 1074.68 34.3963 1073.69 35.3054L1071.56 37.3864V37.4858H1077.67V40H1067.3ZM1078.9 40V37.7841L1084.08 32.9901C1084.52 32.5639 1084.88 32.1804 1085.18 31.8395C1085.49 31.4986 1085.72 31.1648 1085.87 30.8381C1086.03 30.5066 1086.11 30.1491 1086.11 29.7656C1086.11 29.3395 1086.01 28.9725 1085.82 28.6648C1085.62 28.3523 1085.36 28.1132 1085.02 27.9474C1084.68 27.777 1084.3 27.6918 1083.88 27.6918C1083.43 27.6918 1083.04 27.7817 1082.71 27.9616C1082.38 28.1416 1082.12 28.3996 1081.94 28.7358C1081.76 29.072 1081.67 29.4721 1081.67 29.9361H1078.76C1078.76 28.9844 1078.97 28.1581 1079.4 27.4574C1079.83 26.7566 1080.44 26.2145 1081.21 25.831C1081.99 25.4474 1082.88 25.2557 1083.9 25.2557C1084.94 25.2557 1085.85 25.4403 1086.62 25.8097C1087.39 26.1742 1088 26.6809 1088.43 27.3295C1088.86 27.9782 1089.08 28.7216 1089.08 29.5597C1089.08 30.1089 1088.97 30.651 1088.75 31.1861C1088.54 31.7211 1088.15 32.3153 1087.61 32.9688C1087.06 33.6174 1086.28 34.3963 1085.28 35.3054L1083.16 37.3864V37.4858H1089.27V40H1078.9ZM1096.08 40.1989C1095.33 40.1941 1094.61 40.0687 1093.91 39.8224C1093.22 39.5762 1092.6 39.1761 1092.05 38.6222C1091.5 38.0682 1091.07 37.3343 1090.74 36.4205C1090.43 35.5066 1090.27 34.3845 1090.27 33.054C1090.27 31.8324 1090.41 30.741 1090.69 29.7798C1090.97 28.8139 1091.36 27.9948 1091.88 27.3224C1092.4 26.6501 1093.02 26.1387 1093.75 25.7884C1094.47 25.4332 1095.28 25.2557 1096.18 25.2557C1097.15 25.2557 1098.01 25.4451 1098.76 25.8239C1099.5 26.1979 1100.1 26.7069 1100.55 27.3509C1101 27.9948 1101.27 28.7169 1101.37 29.517H1098.34C1098.22 29.0104 1097.97 28.6127 1097.59 28.3239C1097.21 28.035 1096.74 27.8906 1096.18 27.8906C1095.24 27.8906 1094.52 28.3026 1094.03 29.1264C1093.54 29.9503 1093.29 31.0701 1093.28 32.4858H1093.38C1093.6 32.0549 1093.89 31.688 1094.26 31.3849C1094.63 31.0772 1095.06 30.8428 1095.53 30.6818C1096.01 30.5161 1096.51 30.4332 1097.04 30.4332C1097.91 30.4332 1098.67 30.6368 1099.34 31.044C1100.02 31.4465 1100.55 32.0005 1100.94 32.706C1101.32 33.4115 1101.52 34.2187 1101.52 35.1278C1101.52 36.1127 1101.29 36.9886 1100.83 37.7557C1100.37 38.5227 1099.74 39.1241 1098.92 39.5597C1098.1 39.9905 1097.16 40.2036 1096.08 40.1989ZM1096.06 37.7841C1096.54 37.7841 1096.96 37.6705 1097.33 37.4432C1097.71 37.2159 1098 36.9081 1098.22 36.5199C1098.43 36.1316 1098.54 35.696 1098.54 35.2131C1098.54 34.7301 1098.43 34.2969 1098.22 33.9134C1098.01 33.5298 1097.72 33.2244 1097.35 32.9972C1096.98 32.7699 1096.56 32.6562 1096.08 32.6562C1095.73 32.6562 1095.4 32.7225 1095.1 32.8551C1094.8 32.9877 1094.54 33.1723 1094.31 33.4091C1094.09 33.6458 1093.91 33.9205 1093.78 34.233C1093.66 34.5407 1093.59 34.8698 1093.59 35.2202C1093.59 35.6889 1093.7 36.1174 1093.91 36.5057C1094.13 36.8939 1094.42 37.2041 1094.79 37.4361C1095.17 37.6681 1095.59 37.7841 1096.06 37.7841ZM1106.33 40V37.7841L1111.5 32.9901C1111.95 32.5639 1112.31 32.1804 1112.61 31.8395C1112.92 31.4986 1113.15 31.1648 1113.3 30.8381C1113.46 30.5066 1113.54 30.1491 1113.54 29.7656C1113.54 29.3395 1113.44 28.9725 1113.25 28.6648C1113.05 28.3523 1112.79 28.1132 1112.45 27.9474C1112.11 27.777 1111.73 27.6918 1111.31 27.6918C1110.86 27.6918 1110.47 27.7817 1110.14 27.9616C1109.81 28.1416 1109.55 28.3996 1109.37 28.7358C1109.19 29.072 1109.1 29.4721 1109.1 29.9361H1106.19C1106.19 28.9844 1106.4 28.1581 1106.83 27.4574C1107.26 26.7566 1107.87 26.2145 1108.64 25.831C1109.42 25.4474 1110.31 25.2557 1111.33 25.2557C1112.37 25.2557 1113.28 25.4403 1114.05 25.8097C1114.82 26.1742 1115.43 26.6809 1115.86 27.3295C1116.29 27.9782 1116.5 28.7216 1116.5 29.5597C1116.5 30.1089 1116.4 30.651 1116.18 31.1861C1115.97 31.7211 1115.58 32.3153 1115.03 32.9688C1114.49 33.6174 1113.71 34.3963 1112.71 35.3054L1110.59 37.3864V37.4858H1116.7V40H1106.33ZM1123.19 25.2557C1123.94 25.2557 1124.66 25.3812 1125.35 25.6321C1126.04 25.883 1126.66 26.2831 1127.21 26.8324C1127.76 27.3816 1128.19 28.1108 1128.51 29.0199C1128.83 29.9242 1128.99 31.0346 1129 32.3509C1129 33.5866 1128.86 34.6899 1128.58 35.6605C1128.3 36.6264 1127.91 37.4479 1127.39 38.125C1126.88 38.8021 1126.25 39.3182 1125.52 39.6733C1124.8 40.0237 1123.98 40.1989 1123.08 40.1989C1122.11 40.1989 1121.25 40.0118 1120.51 39.6378C1119.77 39.259 1119.17 38.7453 1118.71 38.0966C1118.26 37.4432 1117.99 36.7093 1117.9 35.8949H1120.93C1121.05 36.4252 1121.3 36.8371 1121.68 37.1307C1122.05 37.4195 1122.52 37.5639 1123.08 37.5639C1124.03 37.5639 1124.75 37.152 1125.24 36.3281C1125.73 35.4995 1125.98 34.3655 1125.99 32.9261H1125.89C1125.67 33.3523 1125.38 33.7192 1125.01 34.027C1124.64 34.33 1124.21 34.5644 1123.73 34.7301C1123.26 34.8958 1122.76 34.9787 1122.22 34.9787C1121.36 34.9787 1120.6 34.7775 1119.93 34.375C1119.26 33.9725 1118.73 33.4186 1118.34 32.7131C1117.95 32.0076 1117.75 31.2027 1117.75 30.2983C1117.75 29.3229 1117.97 28.4541 1118.43 27.6918C1118.88 26.9295 1119.52 26.3329 1120.33 25.902C1121.15 25.4664 1122.1 25.2509 1123.19 25.2557ZM1123.21 27.6705C1122.73 27.6705 1122.3 27.7841 1121.93 28.0114C1121.56 28.2386 1121.27 28.544 1121.05 28.9276C1120.84 29.3111 1120.73 29.7396 1120.74 30.2131C1120.74 30.6913 1120.84 31.1222 1121.05 31.5057C1121.26 31.8845 1121.55 32.1875 1121.92 32.4148C1122.29 32.6373 1122.71 32.7486 1123.18 32.7486C1123.54 32.7486 1123.86 32.6823 1124.17 32.5497C1124.47 32.4171 1124.73 32.2348 1124.96 32.0028C1125.18 31.7661 1125.36 31.4938 1125.49 31.1861C1125.62 30.8783 1125.68 30.5516 1125.68 30.206C1125.68 29.7467 1125.57 29.3253 1125.35 28.9418C1125.14 28.5582 1124.85 28.2505 1124.47 28.0185C1124.1 27.7865 1123.68 27.6705 1123.21 27.6705ZM1133.76 40V37.7841L1138.93 32.9901C1139.38 32.5639 1139.74 32.1804 1140.04 31.8395C1140.35 31.4986 1140.58 31.1648 1140.73 30.8381C1140.89 30.5066 1140.97 30.1491 1140.97 29.7656C1140.97 29.3395 1140.87 28.9725 1140.67 28.6648C1140.48 28.3523 1140.22 28.1132 1139.88 27.9474C1139.54 27.777 1139.16 27.6918 1138.74 27.6918C1138.29 27.6918 1137.9 27.7817 1137.57 27.9616C1137.24 28.1416 1136.98 28.3996 1136.8 28.7358C1136.62 29.072 1136.53 29.4721 1136.53 29.9361H1133.62C1133.62 28.9844 1133.83 28.1581 1134.26 27.4574C1134.69 26.7566 1135.3 26.2145 1136.07 25.831C1136.85 25.4474 1137.74 25.2557 1138.76 25.2557C1139.8 25.2557 1140.71 25.4403 1141.48 25.8097C1142.25 26.1742 1142.86 26.6809 1143.29 27.3295C1143.72 27.9782 1143.93 28.7216 1143.93 29.5597C1143.93 30.1089 1143.83 30.651 1143.61 31.1861C1143.39 31.7211 1143.01 32.3153 1142.46 32.9688C1141.92 33.6174 1141.14 34.3963 1140.14 35.3054L1138.02 37.3864V37.4858H1144.13V40H1133.76ZM1150.78 40.1989C1149.69 40.1989 1148.71 40.0213 1147.86 39.6662C1147.01 39.3063 1146.35 38.8163 1145.87 38.196C1145.38 37.5758 1145.14 36.8726 1145.14 36.0866C1145.14 35.4806 1145.28 34.9242 1145.55 34.4176C1145.83 33.9062 1146.21 33.4825 1146.69 33.1463C1147.17 32.8054 1147.7 32.5876 1148.3 32.4929V32.3935C1147.52 32.2372 1146.89 31.8608 1146.41 31.2642C1145.92 30.6629 1145.68 29.9645 1145.68 29.169C1145.68 28.4162 1145.9 27.7462 1146.34 27.1591C1146.78 26.5672 1147.39 26.1032 1148.15 25.767C1148.92 25.4261 1149.8 25.2557 1150.78 25.2557C1151.76 25.2557 1152.63 25.4261 1153.4 25.767C1154.17 26.108 1154.78 26.5743 1155.22 27.1662C1155.66 27.7533 1155.88 28.4209 1155.89 29.169C1155.88 29.9692 1155.64 30.6676 1155.15 31.2642C1154.66 31.8608 1154.04 32.2372 1153.27 32.3935V32.4929C1153.86 32.5876 1154.38 32.8054 1154.86 33.1463C1155.34 33.4825 1155.71 33.9062 1155.99 34.4176C1156.28 34.9242 1156.42 35.4806 1156.43 36.0866C1156.42 36.8726 1156.18 37.5758 1155.7 38.196C1155.21 38.8163 1154.55 39.3063 1153.69 39.6662C1152.85 40.0213 1151.87 40.1989 1150.78 40.1989ZM1150.78 37.9403C1151.27 37.9403 1151.69 37.8527 1152.06 37.6776C1152.42 37.4976 1152.71 37.2514 1152.91 36.9389C1153.12 36.6217 1153.22 36.2571 1153.22 35.8452C1153.22 35.4238 1153.12 35.0521 1152.9 34.7301C1152.69 34.4034 1152.4 34.1477 1152.04 33.9631C1151.67 33.7737 1151.25 33.679 1150.78 33.679C1150.31 33.679 1149.89 33.7737 1149.52 33.9631C1149.15 34.1477 1148.86 34.4034 1148.65 34.7301C1148.44 35.0521 1148.34 35.4238 1148.34 35.8452C1148.34 36.2571 1148.44 36.6217 1148.64 36.9389C1148.85 37.2514 1149.13 37.4976 1149.5 37.6776C1149.87 37.8527 1150.3 37.9403 1150.78 37.9403ZM1150.78 31.4418C1151.19 31.4418 1151.55 31.3589 1151.87 31.1932C1152.18 31.0275 1152.43 30.7978 1152.61 30.5043C1152.79 30.2107 1152.88 29.8722 1152.88 29.4886C1152.88 29.1098 1152.79 28.7784 1152.61 28.4943C1152.43 28.2055 1152.19 27.9806 1151.87 27.8196C1151.56 27.6539 1151.2 27.571 1150.78 27.571C1150.37 27.571 1150 27.6539 1149.69 27.8196C1149.37 27.9806 1149.12 28.2055 1148.94 28.4943C1148.77 28.7784 1148.68 29.1098 1148.68 29.4886C1148.68 29.8722 1148.77 30.2107 1148.95 30.5043C1149.13 30.7978 1149.38 31.0275 1149.69 31.1932C1150.01 31.3589 1150.37 31.4418 1150.78 31.4418Z" fill="#2E3235"/>
<path d="M77.6724 28.799C77.5842 26.1325 76.7327 23.999 75.1177 22.3993C73.5018 20.7993 71.2744 19.9994 68.4364 19.9994C65.5972 19.9994 63.3047 20.7993 61.5584 22.3993C59.8117 23.999 58.7634 26.1325 58.4145 28.799H77.6724ZM82.061 41.5316C80.2269 43.9315 78.2181 45.6096 76.0347 46.5648C73.8508 47.5201 71.3185 47.998 68.4364 47.998C66.0343 47.998 63.8727 47.5647 61.9515 46.6983C60.0294 45.8315 58.4031 44.6648 57.0717 43.1982C55.739 41.7319 54.7134 39.9985 53.9931 37.9984C53.2724 35.9987 52.9121 33.8653 52.9121 31.5988C52.9121 29.1989 53.3051 26.9887 54.0913 24.9658C54.8774 22.9438 55.9684 21.2106 57.3666 19.766C58.7634 18.3222 60.4225 17.1995 62.3445 16.3993C64.2657 15.5995 66.3619 15.1995 68.633 15.1995C70.7719 15.1995 72.7371 15.5661 74.5283 16.2994C76.3183 17.0327 77.8578 18.0994 79.1461 19.4991C80.4337 20.8992 81.4275 22.6107 82.1264 24.6323C82.8247 26.6553 83.1746 28.9553 83.1746 31.5323V33.1988H58.4145C58.5013 34.5321 58.8176 35.8102 59.3642 37.032C59.9099 38.2547 60.6191 39.3214 61.493 40.2318C62.3663 41.1431 63.3928 41.865 64.5716 42.3983C65.7507 42.9317 67.0385 43.1982 68.4364 43.1982C70.6636 43.1982 72.5407 42.7983 74.0699 41.9984C75.5977 41.1985 76.9735 40.0213 78.1963 38.4652L82.061 41.5316Z" fill="#040606"/>
<path d="M95.9477 31.5986C95.9477 33.2432 96.1983 34.7653 96.7003 36.165C97.2023 37.5651 97.9339 38.7879 98.8951 39.8316C99.8546 40.8764 101.002 41.6983 102.334 42.2981C103.665 42.8981 105.161 43.1979 106.82 43.1979C108.48 43.1979 109.976 42.8981 111.308 42.2981C112.639 41.6983 113.786 40.8764 114.747 39.8316C115.706 38.7879 116.439 37.5651 116.942 36.165C117.443 34.7653 117.694 33.2432 117.694 31.5986C117.694 29.9548 117.443 28.4319 116.942 27.0321C116.439 25.632 115.706 24.4102 114.747 23.3655C113.786 22.322 112.639 21.499 111.308 20.899C109.976 20.2991 108.48 19.9992 106.82 19.9992C105.161 19.9992 103.665 20.2991 102.334 20.899C101.002 21.499 99.8546 22.322 98.8951 23.3655C97.9339 24.4102 97.2023 25.632 96.7003 27.0321C96.1983 28.4319 95.9477 29.9548 95.9477 31.5986ZM90.8379 15.9992H95.9477V20.5322H96.0787C97.4755 18.844 99.1011 17.5324 100.958 16.599C102.814 15.6658 104.855 15.1993 107.083 15.1993C109.484 15.1993 111.678 15.6107 113.666 16.4325C115.652 17.2553 117.344 18.3991 118.743 19.8657C120.139 21.3324 121.232 23.0655 122.017 25.0656C122.803 27.0656 123.197 29.2435 123.197 31.5986C123.197 33.9548 122.803 36.1316 122.017 38.1316C121.232 40.1316 120.151 41.8648 118.775 43.3314C117.4 44.798 115.772 45.9428 113.896 46.7646C112.017 47.5865 110.008 47.9978 107.869 47.9978C105.118 47.9978 102.704 47.3865 100.631 46.1647C98.5564 44.9429 97.0382 43.4428 96.0787 41.6648H95.9477V62.3975H90.8379V15.9992Z" fill="#040606"/>
<path d="M145.533 32.1987C142.259 32.1987 139.66 32.6656 137.738 33.5989C135.816 34.5321 134.855 36.0653 134.855 38.1987C134.855 40.1548 135.5 41.5434 136.788 42.365C138.076 43.1881 139.681 43.5985 141.602 43.5985C143.087 43.5985 144.387 43.3431 145.501 42.8318C146.613 42.3213 147.541 41.6434 148.284 40.7986C149.026 39.9548 149.595 38.9651 149.988 37.8319C150.38 36.6986 150.598 35.4884 150.643 34.1988V32.1987H145.533ZM130.729 19.9994C132.301 18.3557 134.168 17.144 136.329 16.3661C138.492 15.5889 140.686 15.1995 142.913 15.1995C147.455 15.1995 150.729 16.2891 152.738 18.4659C154.747 20.6442 155.752 23.9555 155.752 28.399V41.7985C155.752 42.6881 155.794 43.6099 155.882 44.5649C155.97 45.5211 156.079 46.3984 156.21 47.1983H151.298C151.122 46.4878 151.025 45.6982 151.003 44.8317C150.98 43.965 150.97 43.1982 150.97 42.5318H150.84C149.834 44.1316 148.491 45.4431 146.81 46.4649C145.129 47.4867 143.11 47.998 140.751 47.998C139.179 47.998 137.705 47.7982 136.329 47.3983C134.954 46.9983 133.753 46.4098 132.727 45.6317C131.7 44.8546 130.882 43.8879 130.271 42.7318C129.658 41.5765 129.354 40.2433 129.354 38.7318C129.354 36.1548 130.009 34.1322 131.319 32.6656C132.628 31.1988 134.255 30.1102 136.198 29.3988C138.142 28.6884 140.238 28.2436 142.487 28.0656C144.736 27.8885 146.799 27.7991 148.678 27.7991H150.643V26.8658C150.643 24.599 149.977 22.8887 148.644 21.7325C147.312 20.5773 145.445 19.9994 143.043 19.9994C141.385 19.9994 139.758 20.2773 138.165 20.8327C136.57 21.3886 135.161 22.2439 133.939 23.3991L130.729 19.9994Z" fill="#040606"/>
<path d="M165.577 15.9994H170.686V47.1982H165.577V15.9994ZM164.398 3.79979C164.398 2.77797 164.758 1.88963 165.478 1.13332C166.199 0.378059 167.084 0.000110626 168.132 0.000110626C169.18 0.000110626 170.065 0.378059 170.785 1.13332C171.505 1.88963 171.866 2.77797 171.866 3.79979C171.866 4.91143 171.516 5.82269 170.818 6.53315C170.118 7.24444 169.223 7.59988 168.132 7.59988C167.04 7.59988 166.143 7.24444 165.447 6.53315C164.747 5.82269 164.398 4.91143 164.398 3.79979Z" fill="#040606"/>
<path d="M32.8926 27.9032C32.8926 27.3508 33.043 25.3725 33.1911 24.7079C34.1608 20.3561 38.2732 14.868 46.2718 15.1772C46.9135 15.202 47.3634 15.2426 47.8771 15.3733V20.2007C47.1934 20.1295 45.713 20.1125 44.9271 20.1632C42.6285 20.3113 39.2702 21.9552 38.1775 26.3178C37.8297 27.7062 37.9363 30.7434 37.9363 31.7236L37.9338 47.1699H32.8926V27.9032Z" fill="#040606"/>
<path d="M180.842 27.9356C180.842 27.3832 180.992 25.4048 181.141 24.7402C182.11 20.3885 186.223 14.9003 194.222 15.2096C194.863 15.2343 195.313 15.275 195.827 15.4058V20.233C195.143 20.1618 193.663 20.1448 192.877 20.1955C190.578 20.3437 187.22 21.9876 186.127 26.3502C185.78 27.7387 185.885 30.7758 185.885 31.7559L185.883 47.2021H180.842V27.9356Z" fill="#040606"/>
<path d="M11.5794 30.1987L26.3832 15.9995H19.1123L5.16008 29.7323L5.15616 9.91821e-05L0.046875 5.02163L0.050831 47.1982H5.16008V30.799L20.3569 47.1982H27.8896L11.5794 30.1987Z" fill="#F03957"/>
<path d="M6.73021 57.2043H5.4929C5.38315 56.815 5.15904 56.5008 4.8206 56.2616C4.48196 56.0223 4.05049 55.9028 3.52606 55.9028C2.84891 55.9028 2.30303 56.1561 1.8882 56.6626C1.47338 57.169 1.2659 57.8399 1.2659 58.6748C1.2659 59.5284 1.47447 60.2037 1.89172 60.7009C2.3089 61.1981 2.85846 61.4466 3.54025 61.4466C4.05049 61.4466 4.47476 61.3365 4.81341 61.116C5.15191 60.8955 5.38315 60.5789 5.50722 60.1662H6.74447C6.61573 60.8746 6.26055 61.4466 5.6788 61.883C5.09707 62.3191 4.3818 62.5371 3.53315 62.5371C2.46508 62.5371 1.60917 62.189 0.965485 61.4924C0.321862 60.7958 0 59.8566 0 58.6748C0 57.5116 0.321862 56.577 0.965485 55.871C1.60917 55.1652 2.46032 54.8123 3.51883 54.8123C4.39612 54.8123 5.1209 55.0421 5.69312 55.5017C6.26533 55.9614 6.61096 56.5289 6.73021 57.2043Z" fill="#6F7375"/>
<path d="M12.439 55.8886C11.8333 55.8886 11.3314 56.0857 10.9333 56.4796C10.5351 56.8736 10.3147 57.3919 10.2717 58.0345H14.513C14.4987 57.3919 14.302 56.8736 13.9229 56.4796C13.5439 56.0857 13.0492 55.8886 12.439 55.8886ZM14.4844 60.2999H15.7147C15.6096 60.9519 15.2568 61.4878 14.6561 61.9075C14.0554 62.3273 13.3425 62.5371 12.5175 62.5371C11.4351 62.5371 10.5757 62.1924 9.93921 61.503C9.30259 60.8134 8.98438 59.8802 8.98438 58.7029C8.98438 57.5256 9.30137 56.5828 9.93563 55.8746C10.5697 55.1665 11.4114 54.8123 12.4603 54.8123C13.4903 54.8123 14.3056 55.1465 14.9064 55.8149C15.5071 56.4832 15.8076 57.3898 15.8076 58.534V59.0123H10.2717V59.0827C10.2717 59.8051 10.4792 60.382 10.894 60.8134C11.3088 61.2452 11.8596 61.4608 12.5463 61.4608C13.0276 61.4608 13.4438 61.3565 13.7942 61.1476C14.1447 60.9389 14.3746 60.6563 14.4844 60.2999Z" fill="#6F7375"/>
<path d="M22.0092 61.447C22.691 61.447 23.2381 61.1949 23.6506 60.6906C24.063 60.1866 24.2693 59.5147 24.2693 58.6751C24.2693 57.8402 24.063 57.1693 23.6506 56.6629C23.2381 56.1565 22.691 55.9031 22.0092 55.9031C21.3464 55.9031 20.8075 56.1588 20.3928 56.6699C19.9779 57.1812 19.7706 57.8496 19.7706 58.6751C19.7706 59.5006 19.9767 60.1689 20.3892 60.6802C20.8016 61.1913 21.3416 61.447 22.0092 61.447ZM22.2381 54.8127C23.2251 54.8127 24.0225 55.1679 24.6305 55.8783C25.2383 56.5892 25.5423 57.5212 25.5423 58.6751C25.5423 59.8288 25.2395 60.761 24.634 61.4715C24.0284 62.1822 23.2393 62.5375 22.2666 62.5375C21.7231 62.5375 21.2379 62.425 20.8111 62.1998C20.3845 61.9747 20.0495 61.6534 19.8063 61.2359H19.7777V65H18.5332V54.8829H19.7133V56.1142H19.7419C19.9659 55.7201 20.3045 55.4049 20.7575 55.1679C21.2105 54.9312 21.704 54.8127 22.2381 54.8127Z" fill="#6F7375"/>
<path d="M31.3236 59.0475H29.4996V61.4536H31.5595C32.0268 61.4536 32.3843 61.3518 32.6323 61.1476C32.8802 60.9436 33.0042 60.6494 33.0042 60.2647C33.0042 59.8521 32.8659 59.546 32.5895 59.3465C32.3128 59.1473 31.8909 59.0475 31.3236 59.0475ZM31.4165 55.8956H29.4996V58.0346H31.2163C32.184 58.0346 32.6681 57.6734 32.6681 56.951C32.6681 56.6088 32.5608 56.3472 32.3462 56.1667C32.1316 55.9862 31.8216 55.8956 31.4165 55.8956ZM28.2695 62.4668V54.8826H31.5738C32.289 54.8826 32.8528 55.0562 33.2653 55.4034C33.6777 55.7503 33.884 56.2241 33.884 56.8245C33.884 57.209 33.7624 57.5584 33.5192 57.8727C33.276 58.1871 32.978 58.3818 32.6252 58.4567V58.5128C33.1067 58.5786 33.4941 58.7733 33.7873 59.097C34.0807 59.4204 34.2273 59.8168 34.2273 60.2858C34.2273 60.9566 33.9913 61.4878 33.5192 61.8794C33.0471 62.271 32.4035 62.4668 31.5881 62.4668H28.2695Z" fill="#6F7375"/>
<path d="M38.2184 62.4668H36.9883V54.8826H38.2184V60.5744H38.2756L42.2451 54.8826H43.4753V62.4668H42.2451V56.7752H42.1879L38.2184 62.4668Z" fill="#6F7375"/>
<path d="M52.9333 57.2043H51.696C51.5862 56.815 51.3621 56.5008 51.0237 56.2616C50.6851 56.0223 50.2536 55.9028 49.7292 55.9028C49.052 55.9028 48.5061 56.1561 48.0913 56.6626C47.6765 57.169 47.469 57.8399 47.469 58.6748C47.469 59.5284 47.6776 60.2037 48.0949 60.7009C48.5119 61.1981 49.0615 61.4466 49.7434 61.4466C50.2536 61.4466 50.6778 61.3365 51.0165 61.116C51.3551 60.8955 51.5862 60.5789 51.7103 60.1662H52.9476C52.8188 60.8746 52.4636 61.4466 51.8819 61.883C51.3001 62.3191 50.5849 62.5371 49.7363 62.5371C48.6681 62.5371 47.8122 62.189 47.1685 61.4924C46.5249 60.7958 46.2031 59.8566 46.2031 58.6748C46.2031 57.5116 46.5249 56.577 47.1685 55.871C47.8122 55.1652 48.6633 54.8123 49.7219 54.8123C50.5992 54.8123 51.324 55.0421 51.8962 55.5017C52.4683 55.9614 52.814 56.5289 52.9333 57.2043Z" fill="#6F7375"/>
<path d="M60.716 62.4668V59.0335H56.7966V62.4668H55.5664V54.8826H56.7966V58.0204H60.716V54.8826H61.9461V62.4668H60.716Z" fill="#6F7375"/>
<path d="M71.6022 62.4668V54.8826H72.8324V62.4668H71.6022ZM67.7328 58.33H66.2809V61.4536H67.7328C68.2382 61.4536 68.6423 61.312 68.9451 61.0281C69.2478 60.7443 69.3993 60.3657 69.3993 59.8918C69.3993 59.4181 69.2478 59.0396 68.9451 58.7557C68.6423 58.4719 68.2382 58.33 67.7328 58.33ZM65.0508 62.4668V54.8826H66.2809V57.317H67.7328C68.6148 57.317 69.3182 57.549 69.8428 58.0134C70.3672 58.4777 70.6295 59.1039 70.6295 59.8918C70.6295 60.6799 70.3672 61.3059 69.8428 61.7703C69.3182 62.2346 68.6148 62.4668 67.7328 62.4668H65.0508Z" fill="#6F7375"/>
<path d="M76.903 51.5619H77.8184C77.8184 51.9795 77.946 52.3264 78.2012 52.6031C78.4562 52.8799 78.7912 53.0182 79.206 53.0182C79.6208 53.0182 79.9558 52.8799 80.211 52.6031C80.466 52.3264 80.5936 51.9795 80.5936 51.5619H81.509C81.509 52.2091 81.2956 52.7346 80.869 53.1379C80.4422 53.5413 79.8878 53.743 79.206 53.743C78.524 53.743 77.9699 53.5413 77.5432 53.1379C77.1164 52.7346 76.903 52.2091 76.903 51.5619ZM77.1676 62.4668H75.9375V54.8826H77.1676V60.5744H77.2249L81.1944 54.8826H82.4246V62.4668H81.1944V56.7752H81.1372L77.1676 62.4668Z" fill="#6F7375"/>
<path d="M111.752 64.4727H110.593V62.4675H104.285V54.8833H105.515V61.4543H109.291V54.8833H110.522V61.4543H111.752V64.4727Z" fill="#6F7375"/>
<path d="M117.267 55.8886C116.662 55.8886 116.16 56.0857 115.762 56.4796C115.364 56.8736 115.143 57.3919 115.1 58.0345H119.341C119.327 57.3919 119.13 56.8736 118.751 56.4796C118.372 56.0857 117.877 55.8886 117.267 55.8886ZM119.313 60.2999H120.543C120.438 60.9519 120.085 61.4878 119.485 61.9075C118.884 62.3273 118.171 62.5371 117.346 62.5371C116.263 62.5371 115.404 62.1924 114.768 61.503C114.131 60.8134 113.812 59.8802 113.812 58.7029C113.812 57.5256 114.129 56.5828 114.764 55.8746C115.398 55.1665 116.24 54.8123 117.289 54.8123C118.318 54.8123 119.134 55.1465 119.734 55.8149C120.336 56.4832 120.636 57.3898 120.636 58.534V59.0123H115.1V59.0827C115.1 59.8051 115.307 60.382 115.723 60.8134C116.137 61.2452 116.688 61.4608 117.374 61.4608C117.856 61.4608 118.272 61.3565 118.623 61.1476C118.973 60.9389 119.203 60.6563 119.313 60.2999Z" fill="#6F7375"/>
<path d="M128.511 62.4668V59.0335H124.592V62.4668H123.361V54.8826H124.592V58.0204H128.511V54.8826H129.741V62.4668H128.511Z" fill="#6F7375"/>
<path d="M138.456 54.8826V55.8956H135.953V62.4668H134.722V55.8956H132.219V54.8826H138.456Z" fill="#6F7375"/>
<path d="M144.408 61.447C145.089 61.447 145.637 61.1949 146.05 60.6906C146.462 60.1865 146.668 59.5147 146.668 58.6751C146.668 57.8402 146.462 57.1693 146.05 56.6629C145.637 56.1565 145.089 55.9031 144.408 55.9031C143.744 55.9031 143.206 56.1588 142.791 56.6698C142.377 57.1811 142.169 57.8496 142.169 58.6751C142.169 59.5006 142.376 60.1689 142.788 60.6802C143.2 61.1913 143.74 61.447 144.408 61.447ZM144.637 54.8126C145.623 54.8126 146.421 55.1678 147.029 55.8783C147.636 56.5892 147.941 57.5211 147.941 58.6751C147.941 59.8288 147.638 60.761 147.033 61.4715C146.427 62.1822 145.639 62.5375 144.665 62.5375C144.122 62.5375 143.636 62.425 143.21 62.1998C142.783 61.9747 142.448 61.6534 142.204 61.2359H142.177V65H140.932V54.8829H142.112V56.1142H142.141C142.364 55.72 142.703 55.4049 143.156 55.1678C143.609 54.9312 144.103 54.8126 144.637 54.8126Z" fill="#6F7375"/>
</svg>
